<svg xmlns="http://www.w3.org/2000/svg" width="90.116" height="90.058" viewBox="0 0 90.116 90.058">
  <g id="グループ_9174" data-name="グループ 9174" transform="translate(-300.692 -239.971)">
    <path id="パス_10975" data-name="パス 10975" d="M335.091,299.229a3.437,3.437,0,0,1-2.446-1.013,3.476,3.476,0,0,1-.186-4.691l4.136-4.847a8.113,8.113,0,1,0,5.5,5.65l-4.755,4.07A3.461,3.461,0,0,1,335.091,299.229Z" fill="#fff"/>
    <path id="パス_10976" data-name="パス 10976" d="M347.555,296.411a13.254,13.254,0,1,1-7.414-11.889l5.2-6.089a21.106,21.106,0,1,0,7.04,7.094l-6.1,5.219A13.175,13.175,0,0,1,347.555,296.411Z" fill="#fff"/>
    <path id="パス_10977" data-name="パス 10977" d="M355.956,282.464a25.8,25.8,0,1,1-7.564-7.612l4.657-5.458,0-.882a33.669,33.669,0,1,0,9.232,9.271h-.853Z" fill="#fff"/>
    <path id="パス_10978" data-name="パス 10978" d="M373.8,259.252l-2.271-2.271v-17.01l-16.175,16.175.056,14.113,0,0-21.154,24.792a1.1,1.1,0,0,0,.059,1.5h0a1.1,1.1,0,0,0,1.5.058l24.741-21.177,0,0h14.078l16.176-16.175Z" fill="#fff"/>
  </g>
</svg>
