<svg xmlns="http://www.w3.org/2000/svg" width="91.753" height="80.726" viewBox="0 0 91.753 80.726">
  <path id="パス_10979" data-name="パス 10979" d="M4275.758-20.516h-.1a3.684,3.684,0,0,1-2.586-1.166,3.7,3.7,0,0,1-1.034-2.647,3.7,3.7,0,0,1,1.153-2.6l6.9-6.552a3.7,3.7,0,0,1,2.566-1.018h.093a3.677,3.677,0,0,1,2.6,1.153,3.692,3.692,0,0,1,1.017,2.661,3.688,3.688,0,0,1-1.152,2.6l-6.9,6.552a3.7,3.7,0,0,1-2.561,1.019Zm-8.965-7.727h-.093a3.776,3.776,0,0,1-3.619-3.815,3.692,3.692,0,0,1,.613-1.952.337.337,0,0,1,.051-.06l6.521-6.2a7.872,7.872,0,0,0,.766-.842.26.26,0,0,1,.032-.035l.066-.063a3.7,3.7,0,0,1,2.563-1.02h.1a3.682,3.682,0,0,1,2.6,1.152,3.717,3.717,0,0,1,1.019,2.663,3.711,3.711,0,0,1-1.155,2.6l-6.9,6.55a3.7,3.7,0,0,1-2.566,1.021Zm23.749-1.751q-.148,0-.291-.009a.337.337,0,0,1-.312-.358c0-.077.008-.155.01-.232a7.355,7.355,0,0,0-2-5.221,7.263,7.263,0,0,0-5.106-2.268l-.18,0a7.364,7.364,0,0,0-1.276.111.339.339,0,0,1-.4-.344v0a7.358,7.358,0,0,0-2-5.22,7.249,7.249,0,0,0-5.107-2.266l-.185,0a7.369,7.369,0,0,0-1.479.15V-45.7a7.36,7.36,0,0,0-2-5.217,7.249,7.249,0,0,0-5.107-2.266l-.186,0a7.349,7.349,0,0,0-2.146.321.337.337,0,0,1-.436-.333c0-.031,0-.061,0-.092a6.771,6.771,0,0,0-1.788-4.737l-.049-.05a6.632,6.632,0,0,0-4.683-2.079l-.172,0a6.725,6.725,0,0,0-4.108,1.406.317.317,0,0,1-.037.024,7.107,7.107,0,0,0-1.438,1.064l-6.167,5.859a7.091,7.091,0,0,0-.755.841.337.337,0,0,1-.53.008c-4.715-5.848-7.633-11.8-8.679-17.7a26.9,26.9,0,0,1-.2-8.3,25.648,25.648,0,0,1,2.175-7.394,29.046,29.046,0,0,1,11.087-12.294,29.66,29.66,0,0,1,15.436-4.594,22.57,22.57,0,0,1,9.093,1.833,20.656,20.656,0,0,1,7.156,5.2.336.336,0,0,1-.015.462l-13.4,13.37-2.7,2.695-1.1,1.1a.565.565,0,0,0-.127.185.535.535,0,0,0,.137.6l1.165,1.046c3.257,2.931,6.514,4.417,9.68,4.417,3.023,0,5.959-1.349,8.728-4.011a.508.508,0,0,0,.046-.039l1.593-1.509a.337.337,0,0,1,.444-.017l8.079,6.555,18.276,16.474c1.9,1.713,2.106,3.558,1.662,4.713a2.585,2.585,0,0,1-2.509,1.683h0a5.643,5.643,0,0,1-3.59-1.656l-19.7-17.614a2.433,2.433,0,0,0-1.665-.725,1.862,1.862,0,0,0-1.751,1.205,2.35,2.35,0,0,0,.818,2.6l19.72,17.634c1.651,1.554,2.332,3.392,1.775,4.8a2.438,2.438,0,0,1-2.379,1.512h0a5.693,5.693,0,0,1-3.638-1.62l-20.137-17.7a2.26,2.26,0,0,0-1.489-.613,1.917,1.917,0,0,0-1.793,1.272,2.232,2.232,0,0,0,.729,2.477L4295.016-37.8a.342.342,0,0,1,.027.026c1.354,1.463,1.746,2.981,1.134,4.393a5.5,5.5,0,0,1-2.335,2.434A6.831,6.831,0,0,1,4290.542-29.995Zm-32.524-5.626h-.088a3.688,3.688,0,0,1-2.586-1.168,3.7,3.7,0,0,1-1.034-2.648,3.678,3.678,0,0,1,1.154-2.6l6.9-6.556a3.713,3.713,0,0,1,2.563-1.016h.1a3.692,3.692,0,0,1,2.6,1.154,3.7,3.7,0,0,1,1.016,2.662,3.716,3.716,0,0,1-.612,1.949.337.337,0,0,1-.051.06l-6.521,6.2a8.1,8.1,0,0,0-.765.842.269.269,0,0,1-.029.032l-.072.07a3.71,3.71,0,0,1-2.568,1.018ZM4249.49-44.5h-.084a3.124,3.124,0,0,1-3.03-3.2,3.094,3.094,0,0,1,.966-2.173l6.168-5.861a3.111,3.111,0,0,1,2.152-.852h.075a3.094,3.094,0,0,1,2.163.955l.013.015a.572.572,0,0,0,.05.051,3.1,3.1,0,0,1,.8,2.171,3.085,3.085,0,0,1-.965,2.176l-6.165,5.859A3.1,3.1,0,0,1,4249.49-44.5Zm65.364-10.77a2.97,2.97,0,0,1-1.978-.856L4283.7-81.844a.534.534,0,0,0-.354-.133.532.532,0,0,0-.372.151l-4.681,4.54a.477.477,0,0,0-.043.048c-1.976,1.9-3.968,2.856-5.924,2.856a8.153,8.153,0,0,1-3.935-1.145,1.262,1.262,0,0,1-.27-1.995h0l13.3-13.256a29.408,29.408,0,0,1,9.055-6.3,23.061,23.061,0,0,1,9.172-1.921,24.642,24.642,0,0,1,13.064,3.887,27.8,27.8,0,0,1,9.375,9.767,23.661,23.661,0,0,1,3.168,10.771,20.069,20.069,0,0,1-2.873,11.139c-.13.22-.268.452-.41.695C4320.325-59.942,4317.573-55.266,4314.854-55.266Z" transform="translate(-4233.511 101.242)" fill="#fff" fill-rule="evenodd"/>
</svg>
