<svg xmlns="http://www.w3.org/2000/svg" width="442.946" height="340.077" viewBox="0 0 442.946 340.077">
  <g id="アートワーク_47" data-name="アートワーク 47" transform="translate(221.473 170.039)">
    <g id="グループ_6055" data-name="グループ 6055" transform="translate(-221.473 -170.039)">
      <g id="グループ_5879" data-name="グループ 5879" transform="translate(71.237 29.549)">
        <g id="グループ_5878" data-name="グループ 5878">
          <g id="グループ_5877" data-name="グループ 5877">
            <path id="パス_7287" data-name="パス 7287" d="M19.221,172.885a1.125,1.125,0,0,1-1.124-1.124v-6.706a1.126,1.126,0,0,1,2.252,0v6.706A1.125,1.125,0,0,1,19.221,172.885Zm0-13.408a1.125,1.125,0,0,1-1.124-1.128v-6.7a1.126,1.126,0,0,1,2.252,0v6.7A1.126,1.126,0,0,1,19.221,159.477Zm0-13.408a1.125,1.125,0,0,1-1.124-1.124v-6.706a1.126,1.126,0,0,1,2.252,0v6.706A1.125,1.125,0,0,1,19.221,146.069Zm0-13.408a1.125,1.125,0,0,1-1.124-1.124v-6.706a1.126,1.126,0,0,1,2.252,0v6.706A1.125,1.125,0,0,1,19.221,132.661Zm0-13.408a1.125,1.125,0,0,1-1.124-1.124v-6.706a1.126,1.126,0,0,1,2.252,0v6.706A1.125,1.125,0,0,1,19.221,119.253Zm0-13.408a1.125,1.125,0,0,1-1.124-1.124V98.015a1.126,1.126,0,0,1,2.252,0v6.706A1.125,1.125,0,0,1,19.221,105.845Zm0-13.408A1.122,1.122,0,0,1,18.1,91.313v-6.7a1.126,1.126,0,1,1,2.252,0v6.7A1.123,1.123,0,0,1,19.221,92.437Zm0-13.408A1.125,1.125,0,0,1,18.1,77.9V71.2a1.126,1.126,0,0,1,2.252,0V77.9A1.125,1.125,0,0,1,19.221,79.029Zm0-13.408A1.125,1.125,0,0,1,18.1,64.5V57.791a1.126,1.126,0,0,1,2.252,0V64.5A1.125,1.125,0,0,1,19.221,65.621Zm0-13.408A1.125,1.125,0,0,1,18.1,51.089V44.383a1.126,1.126,0,0,1,2.252,0v6.706A1.125,1.125,0,0,1,19.221,52.213Zm0-13.408A1.125,1.125,0,0,1,18.1,37.681v-6.7a1.126,1.126,0,0,1,2.252,0v6.7A1.125,1.125,0,0,1,19.221,38.8Zm0-13.408A1.122,1.122,0,0,1,18.1,24.272V21.555a13.7,13.7,0,0,1,.677-4.266,1.125,1.125,0,1,1,2.139.7,11.383,11.383,0,0,0-.564,3.567v2.718A1.123,1.123,0,0,1,19.221,25.4ZM23.5,13.236a1.126,1.126,0,0,1-.741-1.97A13.654,13.654,0,0,1,29.242,8.1a1.125,1.125,0,0,1,.417,2.21,11.426,11.426,0,0,0-5.417,2.646A1.129,1.129,0,0,1,23.5,13.236Zm86.384-3.124h-6.7a1.126,1.126,0,1,1,0-2.252h6.7a1.126,1.126,0,0,1,0,2.252Zm-13.408,0h-6.7a1.126,1.126,0,1,1,0-2.252h6.7a1.126,1.126,0,0,1,0,2.252Zm-13.408,0h-6.7a1.126,1.126,0,0,1,0-2.252h6.7a1.126,1.126,0,0,1,0,2.252Zm-13.4,0H62.956a1.126,1.126,0,0,1,0-2.252h6.706a1.126,1.126,0,0,1,0,2.252Zm-13.412,0h-6.7a1.126,1.126,0,0,1,0-2.252h6.7a1.126,1.126,0,1,1,0,2.252Zm-13.408,0h-6.7a1.126,1.126,0,0,1,0-2.252h6.7a1.126,1.126,0,1,1,0,2.252Z" transform="translate(-18.097 -7.861)" fill="#202360"/>
          </g>
        </g>
      </g>
      <g id="グループ_5882" data-name="グループ 5882" transform="translate(253.3 120.458)">
        <g id="グループ_5881" data-name="グループ 5881" transform="translate(0)">
          <g id="グループ_5880" data-name="グループ 5880">
            <path id="パス_7288" data-name="パス 7288" d="M146.977,197.01h-6.762a1.126,1.126,0,0,1,0-2.252h6.762a1.126,1.126,0,0,1,0,2.252Zm-13.525,0H126.69a1.126,1.126,0,0,1,0-2.252h6.762a1.126,1.126,0,0,1,0,2.252Zm-13.521,0h-6.762a1.126,1.126,0,0,1,0-2.252h6.762a1.126,1.126,0,0,1,0,2.252Zm-13.525,0H99.644a1.126,1.126,0,0,1,0-2.252h6.762a1.126,1.126,0,0,1,0,2.252Zm-13.521,0H86.124a1.126,1.126,0,0,1,0-2.252h6.762a1.126,1.126,0,0,1,0,2.252Zm-13.521-.03h-.079a13.724,13.724,0,0,1-6.868-2.409,1.125,1.125,0,0,1,1.282-1.849,11.382,11.382,0,0,0,5.74,2.011,1.125,1.125,0,0,1-.075,2.248ZM68.78,189.643a1.124,1.124,0,0,1-1.022-.658,13.584,13.584,0,0,1-1.225-5.668v-1.395a1.124,1.124,0,1,1,2.248,0v1.395a11.383,11.383,0,0,0,1.022,4.736,1.119,1.119,0,0,1-.556,1.489A1.076,1.076,0,0,1,68.78,189.643Zm-1.124-13.359a1.125,1.125,0,0,1-1.124-1.124V168.4a1.124,1.124,0,1,1,2.248,0v6.762A1.125,1.125,0,0,1,67.656,176.283Zm0-13.521a1.125,1.125,0,0,1-1.124-1.128v-6.759a1.124,1.124,0,1,1,2.248,0v6.759A1.125,1.125,0,0,1,67.656,162.763Zm0-13.525a1.125,1.125,0,0,1-1.124-1.124v-6.762a1.124,1.124,0,1,1,2.248,0v6.762A1.125,1.125,0,0,1,67.656,149.238Zm0-13.521a1.125,1.125,0,0,1-1.124-1.128v-6.759a1.124,1.124,0,1,1,2.248,0v6.759A1.125,1.125,0,0,1,67.656,135.717Zm0-13.525a1.125,1.125,0,0,1-1.124-1.124v-6.762a1.124,1.124,0,1,1,2.248,0v6.762A1.125,1.125,0,0,1,67.656,122.193Zm0-13.521a1.125,1.125,0,0,1-1.124-1.124v-6.762a1.124,1.124,0,1,1,2.248,0v6.762A1.125,1.125,0,0,1,67.656,108.672Zm0-13.525a1.125,1.125,0,0,1-1.124-1.124V87.261a1.124,1.124,0,0,1,2.248,0v6.762A1.125,1.125,0,0,1,67.656,95.147Zm0-13.521A1.125,1.125,0,0,1,66.532,80.5V73.74a1.124,1.124,0,0,1,2.248,0V80.5A1.125,1.125,0,0,1,67.656,81.626Zm0-13.525a1.125,1.125,0,0,1-1.124-1.124V60.215a1.124,1.124,0,0,1,2.248,0v6.762A1.125,1.125,0,0,1,67.656,68.1Zm0-13.521a1.125,1.125,0,0,1-1.124-1.124V46.695a1.124,1.124,0,1,1,2.248,0v6.762A1.125,1.125,0,0,1,67.656,54.581Zm0-13.525a1.125,1.125,0,0,1-1.124-1.124V33.17a1.124,1.124,0,1,1,2.248,0v6.762A1.125,1.125,0,0,1,67.656,41.056Z" transform="translate(-66.532 -32.046)" fill="#202360"/>
          </g>
        </g>
      </g>
      <g id="グループ_5936" data-name="グループ 5936" transform="translate(0 201.565)">
        <g id="グループ_5884" data-name="グループ 5884" transform="translate(12.949 8.714)">
          <g id="グループ_5883" data-name="グループ 5883">
            <path id="パス_7289" data-name="パス 7289" d="M91.815,175.716,60.642,144.544,88.6,116.589H60.651V87.307L32.465,59.122,4.181,87.408l-1.59-1.59L32.465,55.941,62.9,86.376v27.963H94.029l-30.206,30.2,27.992,27.992,28.515-28.515,1.59,1.59Z" transform="translate(-2.591 -55.941)" fill="#202360"/>
          </g>
        </g>
        <g id="グループ_5935" data-name="グループ 5935">
          <g id="グループ_5886" data-name="グループ 5886" transform="translate(3.211 0.001)">
            <g id="グループ_5885" data-name="グループ 5885" transform="translate(0)">
              <circle id="楕円形_891" data-name="楕円形 891" cx="10.533" cy="10.533" r="10.533" fill="#bcbdcf"/>
            </g>
          </g>
          <g id="グループ_5888" data-name="グループ 5888" transform="translate(32.52 0.001)">
            <g id="グループ_5887" data-name="グループ 5887">
              <ellipse id="楕円形_892" data-name="楕円形 892" cx="10.533" cy="10.533" rx="10.533" ry="10.533" fill="#202360"/>
            </g>
          </g>
          <g id="グループ_5890" data-name="グループ 5890" transform="translate(61.828)">
            <g id="グループ_5889" data-name="グループ 5889">
              <path id="パス_7290" data-name="パス 7290" d="M36.663,64.155A10.534,10.534,0,1,1,26.127,53.623,10.533,10.533,0,0,1,36.663,64.155Z" transform="translate(-15.594 -53.623)" fill="#bcbdcf"/>
            </g>
          </g>
          <g id="グループ_5892" data-name="グループ 5892" transform="translate(91.14)">
            <g id="グループ_5891" data-name="グループ 5891">
              <path id="パス_7291" data-name="パス 7291" d="M44.457,64.155A10.533,10.533,0,1,1,33.924,53.623,10.533,10.533,0,0,1,44.457,64.155Z" transform="translate(-23.392 -53.623)" fill="#bcbdcf"/>
            </g>
          </g>
          <g id="グループ_5894" data-name="グループ 5894" transform="translate(120.448)">
            <g id="グループ_5893" data-name="グループ 5893">
              <path id="パス_7292" data-name="パス 7292" d="M41.722,55.875a8.283,8.283,0,1,1-8.285,8.281,8.292,8.292,0,0,1,8.285-8.281m0-2.252A10.533,10.533,0,1,0,52.254,64.155,10.533,10.533,0,0,0,41.722,53.623Z" transform="translate(-31.189 -53.623)" fill="#bcbdcf"/>
            </g>
          </g>
          <g id="グループ_5896" data-name="グループ 5896" transform="translate(1.666 27.306)">
            <g id="グループ_5895" data-name="グループ 5895" transform="translate(0 0)">
              <ellipse id="楕円形_893" data-name="楕円形 893" cx="10.533" cy="10.533" rx="10.533" ry="10.533" transform="translate(0 20.796) rotate(-80.818)" fill="#202360"/>
            </g>
          </g>
          <g id="グループ_5898" data-name="グループ 5898" transform="translate(30.392 26.724)">
            <g id="グループ_5897" data-name="グループ 5897" transform="translate(0 0)">
              <ellipse id="楕円形_894" data-name="楕円形 894" cx="10.533" cy="10.533" rx="10.533" ry="10.533" transform="matrix(0.229, -0.974, 0.974, 0.229, 0, 20.508)" fill="#bcbdcf"/>
            </g>
          </g>
          <g id="グループ_5900" data-name="グループ 5900" transform="translate(61.828 28.853)">
            <g id="グループ_5899" data-name="グループ 5899">
              <path id="パス_7293" data-name="パス 7293" d="M36.663,71.831A10.534,10.534,0,1,1,26.127,61.3,10.536,10.536,0,0,1,36.663,71.831Z" transform="translate(-15.594 -61.299)" fill="#202360"/>
            </g>
          </g>
          <g id="グループ_5902" data-name="グループ 5902" transform="translate(91.14 28.853)">
            <g id="グループ_5901" data-name="グループ 5901">
              <path id="パス_7294" data-name="パス 7294" d="M44.457,71.831A10.533,10.533,0,1,1,33.924,61.3,10.535,10.535,0,0,1,44.457,71.831Z" transform="translate(-23.392 -61.299)" fill="#bcbdcf"/>
            </g>
          </g>
          <g id="グループ_5904" data-name="グループ 5904" transform="translate(120.448 28.853)">
            <g id="グループ_5903" data-name="グループ 5903">
              <path id="パス_7295" data-name="パス 7295" d="M52.254,71.831A10.532,10.532,0,1,1,41.722,61.3,10.532,10.532,0,0,1,52.254,71.831Z" transform="translate(-31.189 -61.299)" fill="#bcbdcf"/>
            </g>
          </g>
          <g id="グループ_5906" data-name="グループ 5906" transform="translate(0 54.492)">
            <g id="グループ_5905" data-name="グループ 5905" transform="translate(0 0)">
              <ellipse id="楕円形_895" data-name="楕円形 895" cx="10.533" cy="10.533" rx="10.533" ry="10.533" transform="translate(0 8.001) rotate(-22.322)" fill="#bcbdcf"/>
            </g>
          </g>
          <g id="グループ_5908" data-name="グループ 5908" transform="translate(32.52 57.703)">
            <g id="グループ_5907" data-name="グループ 5907">
              <ellipse id="楕円形_896" data-name="楕円形 896" cx="10.533" cy="10.533" rx="10.533" ry="10.533" fill="#bcbdcf"/>
            </g>
          </g>
          <g id="グループ_5910" data-name="グループ 5910" transform="translate(61.828 57.703)">
            <g id="グループ_5909" data-name="グループ 5909">
              <path id="パス_7296" data-name="パス 7296" d="M36.663,79.506A10.534,10.534,0,1,1,26.127,68.974,10.533,10.533,0,0,1,36.663,79.506Z" transform="translate(-15.594 -68.974)" fill="#202360"/>
            </g>
          </g>
          <g id="グループ_5912" data-name="グループ 5912" transform="translate(91.14 57.703)">
            <g id="グループ_5911" data-name="グループ 5911">
              <path id="パス_7297" data-name="パス 7297" d="M44.457,79.506A10.533,10.533,0,1,1,33.924,68.974,10.533,10.533,0,0,1,44.457,79.506Z" transform="translate(-23.392 -68.974)" fill="#202360"/>
            </g>
          </g>
          <g id="グループ_5914" data-name="グループ 5914" transform="translate(120.448 57.703)">
            <g id="グループ_5913" data-name="グループ 5913">
              <path id="パス_7298" data-name="パス 7298" d="M52.254,79.506A10.532,10.532,0,1,1,41.722,68.974,10.53,10.53,0,0,1,52.254,79.506Z" transform="translate(-31.189 -68.974)" fill="#bcbdcf"/>
            </g>
          </g>
          <g id="グループ_5916" data-name="グループ 5916" transform="translate(3.211 86.553)">
            <g id="グループ_5915" data-name="グループ 5915">
              <path id="パス_7299" data-name="パス 7299" d="M10.533,78.9a8.283,8.283,0,1,1-8.285,8.281A8.292,8.292,0,0,1,10.533,78.9m0-2.252A10.534,10.534,0,1,0,21.065,87.181,10.535,10.535,0,0,0,10.533,76.649Z" transform="translate(0 -76.649)" fill="#bcbdcf"/>
            </g>
          </g>
          <g id="グループ_5918" data-name="グループ 5918" transform="translate(32.52 86.553)">
            <g id="グループ_5917" data-name="グループ 5917">
              <path id="パス_7300" data-name="パス 7300" d="M28.862,87.181A10.533,10.533,0,1,1,18.33,76.649,10.533,10.533,0,0,1,28.862,87.181Z" transform="translate(-7.797 -76.649)" fill="#bcbdcf"/>
            </g>
          </g>
          <g id="グループ_5920" data-name="グループ 5920" transform="translate(61.828 86.553)">
            <g id="グループ_5919" data-name="グループ 5919">
              <path id="パス_7301" data-name="パス 7301" d="M36.663,87.181A10.534,10.534,0,1,1,26.127,76.649,10.537,10.537,0,0,1,36.663,87.181Z" transform="translate(-15.594 -76.649)" fill="#202360"/>
            </g>
          </g>
          <g id="グループ_5922" data-name="グループ 5922" transform="translate(91.14 86.553)">
            <g id="グループ_5921" data-name="グループ 5921">
              <path id="パス_7302" data-name="パス 7302" d="M44.457,87.181A10.533,10.533,0,1,1,33.924,76.649,10.536,10.536,0,0,1,44.457,87.181Z" transform="translate(-23.392 -76.649)" fill="#bcbdcf"/>
            </g>
          </g>
          <g id="グループ_5924" data-name="グループ 5924" transform="translate(120.448 86.553)">
            <g id="グループ_5923" data-name="グループ 5923">
              <path id="パス_7303" data-name="パス 7303" d="M52.254,87.181A10.532,10.532,0,1,1,41.722,76.649,10.533,10.533,0,0,1,52.254,87.181Z" transform="translate(-31.189 -76.649)" fill="#202360"/>
            </g>
          </g>
          <g id="グループ_5926" data-name="グループ 5926" transform="translate(3.211 115.406)">
            <g id="グループ_5925" data-name="グループ 5925">
              <path id="パス_7304" data-name="パス 7304" d="M10.533,86.573a8.283,8.283,0,1,1-8.285,8.285,8.3,8.3,0,0,1,8.285-8.285m0-2.248A10.532,10.532,0,1,0,21.065,94.858,10.533,10.533,0,0,0,10.533,84.325Z" transform="translate(0 -84.325)" fill="#bcbdcf"/>
            </g>
          </g>
          <g id="グループ_5928" data-name="グループ 5928" transform="translate(32.52 115.406)">
            <g id="グループ_5927" data-name="グループ 5927">
              <path id="パス_7305" data-name="パス 7305" d="M28.862,94.858A10.533,10.533,0,1,1,18.33,84.325,10.532,10.532,0,0,1,28.862,94.858Z" transform="translate(-7.797 -84.325)" fill="#bcbdcf"/>
            </g>
          </g>
          <g id="グループ_5930" data-name="グループ 5930" transform="translate(61.828 115.406)">
            <g id="グループ_5929" data-name="グループ 5929">
              <path id="パス_7306" data-name="パス 7306" d="M36.663,94.858A10.534,10.534,0,1,1,26.127,84.325,10.536,10.536,0,0,1,36.663,94.858Z" transform="translate(-15.594 -84.325)" fill="#bcbdcf"/>
            </g>
          </g>
          <g id="グループ_5932" data-name="グループ 5932" transform="translate(91.14 115.406)">
            <g id="グループ_5931" data-name="グループ 5931">
              <path id="パス_7307" data-name="パス 7307" d="M44.457,94.858A10.533,10.533,0,1,1,33.924,84.325,10.535,10.535,0,0,1,44.457,94.858Z" transform="translate(-23.392 -84.325)" fill="#202360"/>
            </g>
          </g>
          <g id="グループ_5934" data-name="グループ 5934" transform="translate(120.448 115.406)">
            <g id="グループ_5933" data-name="グループ 5933">
              <path id="パス_7308" data-name="パス 7308" d="M52.254,94.858A10.532,10.532,0,1,1,41.722,84.325,10.532,10.532,0,0,1,52.254,94.858Z" transform="translate(-31.189 -84.325)" fill="#bcbdcf"/>
            </g>
          </g>
        </g>
      </g>
      <g id="グループ_6014" data-name="グループ 6014" transform="translate(174.477)">
        <g id="グループ_6013" data-name="グループ 6013" transform="translate(0)">
          <g id="グループ_5974" data-name="グループ 5974">
            <g id="グループ_5969" data-name="グループ 5969">
              <g id="グループ_5938" data-name="グループ 5938" transform="translate(7.614 7.615)">
                <g id="グループ_5937" data-name="グループ 5937">
                  <path id="パス_7309" data-name="パス 7309" d="M74.028,2.282a30.4,30.4,0,0,0-26.44,30.079,30.892,30.892,0,0,0,.252,3.9A30.314,30.314,0,1,0,74.028,2.282Zm28.53,26.888A24.847,24.847,0,1,1,74.731,7.717,24.868,24.868,0,0,1,102.559,29.17Z" transform="translate(-47.588 -2.026)" fill="#4d4f80" fill-rule="evenodd"/>
                </g>
              </g>
              <g id="グループ_5943" data-name="グループ 5943" transform="translate(0 32.378)">
                <g id="グループ_5940" data-name="グループ 5940" transform="translate(67.451)">
                  <g id="グループ_5939" data-name="グループ 5939">
                    <path id="パス_7310" data-name="パス 7310" d="M71.945,9.963V18.4l-8.438,1.352V8.614Z" transform="translate(-63.506 -8.614)" fill="#4d4f80" fill-rule="evenodd"/>
                  </g>
                </g>
                <g id="グループ_5942" data-name="グループ 5942">
                  <g id="グループ_5941" data-name="グループ 5941">
                    <path id="パス_7311" data-name="パス 7311" d="M45.562,18.4V9.963L54,8.614V19.752Z" transform="translate(-45.562 -8.614)" fill="#4d4f80" fill-rule="evenodd"/>
                  </g>
                </g>
              </g>
              <g id="グループ_5948" data-name="グループ 5948" transform="translate(2.974 15.319)">
                <g id="グループ_5945" data-name="グループ 5945" transform="translate(57.738)">
                  <g id="グループ_5944" data-name="グループ 5944">
                    <path id="パス_7312" data-name="パス 7312" d="M69.7,4.075l4.22,7.308-6.634,5.39L61.714,7.124Z" transform="translate(-61.714 -4.075)" fill="#4d4f80" fill-rule="evenodd"/>
                  </g>
                </g>
                <g id="グループ_5947" data-name="グループ 5947" transform="translate(0 32.557)">
                  <g id="グループ_5946" data-name="グループ 5946">
                    <path id="パス_7313" data-name="パス 7313" d="M50.574,25.431l-4.221-7.306,6.63-5.388,5.571,9.647Z" transform="translate(-46.354 -12.736)" fill="#4d4f80" fill-rule="evenodd"/>
                  </g>
                </g>
              </g>
              <g id="グループ_5953" data-name="グループ 5953" transform="translate(15.317 2.974)">
                <g id="グループ_5950" data-name="グループ 5950" transform="translate(32.558)">
                  <g id="グループ_5949" data-name="グループ 5949">
                    <path id="パス_7314" data-name="パス 7314" d="M63.689.791l7.3,4.22-3.048,7.984L58.3,7.423Z" transform="translate(-58.299 -0.791)" fill="#4d4f80" fill-rule="evenodd"/>
                  </g>
                </g>
                <g id="グループ_5952" data-name="グループ 5952" transform="translate(0 57.74)">
                  <g id="グループ_5951" data-name="グループ 5951">
                    <path id="パス_7315" data-name="パス 7315" d="M56.947,28.353l-7.31-4.219,3.051-7.982,9.645,5.568Z" transform="translate(-49.637 -16.152)" fill="#4d4f80" fill-rule="evenodd"/>
                  </g>
                </g>
              </g>
              <g id="グループ_5958" data-name="グループ 5958" transform="translate(32.377)">
                <g id="グループ_5955" data-name="グループ 5955">
                  <g id="グループ_5954" data-name="グループ 5954">
                    <path id="パス_7316" data-name="パス 7316" d="M55.525,0H63.96l1.35,8.438H54.176Z" transform="translate(-54.176)" fill="#4d4f80" fill-rule="evenodd"/>
                  </g>
                </g>
                <g id="グループ_5957" data-name="グループ 5957" transform="translate(0 67.451)">
                  <g id="グループ_5956" data-name="グループ 5956">
                    <path id="パス_7317" data-name="パス 7317" d="M63.96,26.382H55.525l-1.349-8.438H65.31Z" transform="translate(-54.176 -17.944)" fill="#4d4f80" fill-rule="evenodd"/>
                  </g>
                </g>
              </g>
              <g id="グループ_5963" data-name="グループ 5963" transform="translate(15.317 2.974)">
                <g id="グループ_5960" data-name="グループ 5960">
                  <g id="グループ_5959" data-name="グループ 5959">
                    <path id="パス_7318" data-name="パス 7318" d="M49.637,5.011,56.946.791l5.388,6.634-9.645,5.569Z" transform="translate(-49.637 -0.791)" fill="#4d4f80" fill-rule="evenodd"/>
                  </g>
                </g>
                <g id="グループ_5962" data-name="グループ 5962" transform="translate(32.558 57.74)">
                  <g id="グループ_5961" data-name="グループ 5961">
                    <path id="パス_7319" data-name="パス 7319" d="M70.994,24.134l-7.306,4.219L58.3,21.72l9.647-5.568Z" transform="translate(-58.299 -16.152)" fill="#4d4f80" fill-rule="evenodd"/>
                  </g>
                </g>
              </g>
              <g id="グループ_5968" data-name="グループ 5968" transform="translate(2.973 15.319)">
                <g id="グループ_5965" data-name="グループ 5965">
                  <g id="グループ_5964" data-name="グループ 5964">
                    <path id="パス_7320" data-name="パス 7320" d="M46.353,11.383l4.219-7.308,7.983,3.049-5.571,9.649Z" transform="translate(-46.353 -4.075)" fill="#4d4f80" fill-rule="evenodd"/>
                  </g>
                </g>
                <g id="グループ_5967" data-name="グループ 5967" transform="translate(57.739 32.557)">
                  <g id="グループ_5966" data-name="グループ 5966">
                    <path id="パス_7321" data-name="パス 7321" d="M73.915,18.125,69.7,25.431l-7.982-3.048,5.571-9.647Z" transform="translate(-61.714 -12.736)" fill="#4d4f80" fill-rule="evenodd"/>
                  </g>
                </g>
              </g>
            </g>
            <g id="グループ_5971" data-name="グループ 5971" transform="translate(10.151 10.153)">
              <g id="グループ_5970" data-name="グループ 5970">
                <path id="パス_7322" data-name="パス 7322" d="M48.263,30.494A27.792,27.792,0,1,0,76.057,2.7,27.793,27.793,0,0,0,48.263,30.494Zm43.085,0A15.293,15.293,0,1,1,76.057,15.2,15.29,15.29,0,0,1,91.348,30.494Z" transform="translate(-48.263 -2.701)" fill="#4d4f80" fill-rule="evenodd"/>
              </g>
            </g>
            <g id="グループ_5973" data-name="グループ 5973" transform="translate(20.699 20.697)">
              <g id="グループ_5972" data-name="グループ 5972">
                <path id="パス_7323" data-name="パス 7323" d="M51.069,22.756A17.246,17.246,0,1,0,68.315,5.506,17.265,17.265,0,0,0,51.069,22.756Zm30.229,0A12.985,12.985,0,1,1,68.315,9.769,12.981,12.981,0,0,1,81.3,22.756Z" transform="translate(-51.069 -5.506)" fill="#202360" fill-rule="evenodd"/>
              </g>
            </g>
          </g>
          <g id="グループ_6012" data-name="グループ 6012" transform="translate(64.831 51.19)">
            <g id="グループ_6007" data-name="グループ 6007">
              <g id="グループ_5976" data-name="グループ 5976" transform="translate(6.347 6.348)">
                <g id="グループ_5975" data-name="グループ 5975">
                  <path id="パス_7324" data-name="パス 7324" d="M86.54,15.521A25.347,25.347,0,0,0,64.5,40.6a25.3,25.3,0,0,0,9.871,20.016,25.268,25.268,0,0,0,40.7-19.994,25.674,25.674,0,0,0-.211-3.267A25.318,25.318,0,0,0,86.54,15.521Zm23.786,22.418a20.714,20.714,0,1,1-23.2-17.885A20.733,20.733,0,0,1,110.327,37.939Z" transform="translate(-64.498 -15.307)" fill="#202360" fill-rule="evenodd"/>
                </g>
              </g>
              <g id="グループ_5981" data-name="グループ 5981" transform="translate(0 26.993)">
                <g id="グループ_5978" data-name="グループ 5978" transform="translate(56.233)">
                  <g id="グループ_5977" data-name="グループ 5977">
                    <path id="パス_7325" data-name="パス 7325" d="M84.8,21.925v7.033l-7.034,1.127V20.8Z" transform="translate(-77.769 -20.799)" fill="#202360" fill-rule="evenodd"/>
                  </g>
                </g>
                <g id="グループ_5980" data-name="グループ 5980">
                  <g id="グループ_5979" data-name="グループ 5979">
                    <path id="パス_7326" data-name="パス 7326" d="M62.81,28.958V21.925L69.844,20.8v9.285Z" transform="translate(-62.81 -20.799)" fill="#202360" fill-rule="evenodd"/>
                  </g>
                </g>
              </g>
              <g id="グループ_5986" data-name="グループ 5986" transform="translate(2.48 12.771)">
                <g id="グループ_5983" data-name="グループ 5983" transform="translate(48.135)">
                  <g id="グループ_5982" data-name="グループ 5982">
                    <path id="パス_7327" data-name="パス 7327" d="M82.932,17.016l3.517,6.091L80.919,27.6l-4.644-8.044Z" transform="translate(-76.275 -17.016)" fill="#202360" fill-rule="evenodd"/>
                  </g>
                </g>
                <g id="グループ_5985" data-name="グループ 5985" transform="translate(0 27.141)">
                  <g id="グループ_5984" data-name="グループ 5984">
                    <path id="パス_7328" data-name="パス 7328" d="M66.988,34.82l-3.519-6.091L69,24.237l4.644,8.043Z" transform="translate(-63.469 -24.237)" fill="#202360" fill-rule="evenodd"/>
                  </g>
                </g>
              </g>
              <g id="グループ_5991" data-name="グループ 5991" transform="translate(12.77 2.479)">
                <g id="グループ_5988" data-name="グループ 5988" transform="translate(27.142)">
                  <g id="グループ_5987" data-name="グループ 5987">
                    <path id="パス_7329" data-name="パス 7329" d="M77.922,14.278l6.09,3.517L81.47,24.452l-8.043-4.644Z" transform="translate(-73.428 -14.278)" fill="#202360" fill-rule="evenodd"/>
                  </g>
                </g>
                <g id="グループ_5990" data-name="グループ 5990" transform="translate(0 48.137)">
                  <g id="グループ_5989" data-name="グループ 5989">
                    <path id="パス_7330" data-name="パス 7330" d="M72.3,37.256l-6.094-3.518,2.544-6.654,8.041,4.642Z" transform="translate(-66.207 -27.084)" fill="#202360" fill-rule="evenodd"/>
                  </g>
                </g>
              </g>
              <g id="グループ_5996" data-name="グループ 5996" transform="translate(26.993)">
                <g id="グループ_5993" data-name="グループ 5993">
                  <g id="グループ_5992" data-name="グループ 5992">
                    <path id="パス_7331" data-name="パス 7331" d="M71.116,13.618h7.032l1.126,7.035H69.991Z" transform="translate(-69.991 -13.618)" fill="#202360" fill-rule="evenodd"/>
                  </g>
                </g>
                <g id="グループ_5995" data-name="グループ 5995" transform="translate(0 56.233)">
                  <g id="グループ_5994" data-name="グループ 5994">
                    <path id="パス_7332" data-name="パス 7332" d="M78.147,35.612H71.116l-1.125-7.034h9.283Z" transform="translate(-69.991 -28.578)" fill="#202360" fill-rule="evenodd"/>
                  </g>
                </g>
              </g>
              <g id="グループ_6001" data-name="グループ 6001" transform="translate(12.77 2.479)">
                <g id="グループ_5998" data-name="グループ 5998">
                  <g id="グループ_5997" data-name="グループ 5997">
                    <path id="パス_7333" data-name="パス 7333" d="M66.207,17.8,72.3,14.278l4.492,5.531-8.041,4.643Z" transform="translate(-66.207 -14.278)" fill="#202360" fill-rule="evenodd"/>
                  </g>
                </g>
                <g id="グループ_6000" data-name="グループ 6000" transform="translate(27.142 48.137)">
                  <g id="グループ_5999" data-name="グループ 5999">
                    <path id="パス_7334" data-name="パス 7334" d="M84.012,33.738,77.92,37.256l-4.493-5.53,8.043-4.642Z" transform="translate(-73.428 -27.084)" fill="#202360" fill-rule="evenodd"/>
                  </g>
                </g>
              </g>
              <g id="グループ_6006" data-name="グループ 6006" transform="translate(2.479 12.771)">
                <g id="グループ_6003" data-name="グループ 6003">
                  <g id="グループ_6002" data-name="グループ 6002">
                    <path id="パス_7335" data-name="パス 7335" d="M63.469,23.107l3.517-6.091,6.656,2.541L69,27.6Z" transform="translate(-63.469 -17.016)" fill="#202360" fill-rule="evenodd"/>
                  </g>
                </g>
                <g id="グループ_6005" data-name="グループ 6005" transform="translate(48.136 27.141)">
                  <g id="グループ_6004" data-name="グループ 6004">
                    <path id="パス_7336" data-name="パス 7336" d="M86.447,28.729,82.929,34.82l-6.654-2.541,4.644-8.043Z" transform="translate(-76.275 -24.237)" fill="#202360" fill-rule="evenodd"/>
                  </g>
                </g>
              </g>
            </g>
            <g id="グループ_6009" data-name="グループ 6009" transform="translate(8.463 8.464)">
              <g id="グループ_6008" data-name="グループ 6008">
                <path id="パス_7337" data-name="パス 7337" d="M65.061,39.04a23.17,23.17,0,1,0,23.17-23.17A23.171,23.171,0,0,0,65.061,39.04Zm35.92,0a12.75,12.75,0,1,1-12.75-12.75A12.75,12.75,0,0,1,100.981,39.04Z" transform="translate(-65.061 -15.87)" fill="#202360" fill-rule="evenodd"/>
              </g>
            </g>
            <g id="グループ_6011" data-name="グループ 6011" transform="translate(17.255 17.256)">
              <g id="グループ_6010" data-name="グループ 6010">
                <path id="パス_7338" data-name="パス 7338" d="M67.4,32.587A14.378,14.378,0,1,0,81.778,18.209,14.392,14.392,0,0,0,67.4,32.587Zm25.2,0A10.826,10.826,0,1,1,81.778,21.761,10.824,10.824,0,0,1,92.6,32.587Z" transform="translate(-67.4 -18.209)" fill="#fff" fill-rule="evenodd"/>
              </g>
            </g>
          </g>
        </g>
      </g>
      <g id="グループ_6054" data-name="グループ 6054" transform="translate(337.644 218.902)">
        <g id="グループ_6053" data-name="グループ 6053">
          <g id="グループ_6016" data-name="グループ 6016" transform="translate(9.975 15.098)">
            <g id="グループ_6015" data-name="グループ 6015">
              <path id="パス_7339" data-name="パス 7339" d="M94.631,159.664H91.624V127.616c0-9.01,7.292-18.588,20.813-18.588H144.7c7.334,0,16.077-3.045,16.077-17.562V62.252h3.007V91.466c0,13.074-6.954,20.569-19.084,20.569H112.437c-11.69,0-17.806,7.841-17.806,15.581Z" transform="translate(-91.624 -62.252)" fill="#202360"/>
            </g>
          </g>
          <g id="グループ_6018" data-name="グループ 6018" transform="translate(71.963 1.9)">
            <g id="グループ_6017" data-name="グループ 6017">
              <path id="パス_7340" data-name="パス 7340" d="M125.447,67.405a8.666,8.666,0,1,1-8.664-8.664A8.665,8.665,0,0,1,125.447,67.405Z" transform="translate(-108.115 -58.741)" fill="#202360"/>
            </g>
          </g>
          <g id="グループ_6020" data-name="グループ 6020" transform="translate(3.198 103.842)">
            <g id="グループ_6019" data-name="グループ 6019">
              <path id="パス_7341" data-name="パス 7341" d="M107.153,94.529a8.666,8.666,0,1,1-8.664-8.668A8.664,8.664,0,0,1,107.153,94.529Z" transform="translate(-89.821 -85.861)" fill="#202360"/>
            </g>
          </g>
          <g id="グループ_6025" data-name="グループ 6025" transform="translate(52.404 99.945)">
            <g id="グループ_6022" data-name="グループ 6022" transform="translate(9.063)">
              <g id="グループ_6021" data-name="グループ 6021">
                <rect id="長方形_2757" data-name="長方形 2757" width="3.007" height="21.13" fill="#202360"/>
              </g>
            </g>
            <g id="グループ_6024" data-name="グループ 6024" transform="translate(0 9.063)">
              <g id="グループ_6023" data-name="グループ 6023">
                <rect id="長方形_2758" data-name="長方形 2758" width="21.13" height="3.007" fill="#202360"/>
              </g>
            </g>
          </g>
          <g id="グループ_6030" data-name="グループ 6030" transform="translate(88.233 54.992)">
            <g id="グループ_6027" data-name="グループ 6027" transform="translate(0 0)">
              <g id="グループ_6026" data-name="グループ 6026" transform="translate(0 0)">
                <rect id="長方形_2759" data-name="長方形 2759" width="3.007" height="21.132" transform="translate(0 2.126) rotate(-45)" fill="#202360"/>
              </g>
            </g>
            <g id="グループ_6029" data-name="グループ 6029" transform="translate(0 0)">
              <g id="グループ_6028" data-name="グループ 6028" transform="translate(0 0)">
                <rect id="長方形_2760" data-name="長方形 2760" width="21.132" height="3.007" transform="translate(0 14.942) rotate(-44.998)" fill="#202360"/>
              </g>
            </g>
          </g>
          <g id="グループ_6035" data-name="グループ 6035">
            <g id="グループ_6032" data-name="グループ 6032" transform="translate(9.063)">
              <g id="グループ_6031" data-name="グループ 6031">
                <rect id="長方形_2761" data-name="長方形 2761" width="3.007" height="21.13" fill="#202360"/>
              </g>
            </g>
            <g id="グループ_6034" data-name="グループ 6034" transform="translate(0 9.063)">
              <g id="グループ_6033" data-name="グループ 6033">
                <rect id="長方形_2762" data-name="長方形 2762" width="21.13" height="3.007" fill="#202360"/>
              </g>
            </g>
          </g>
          <g id="グループ_6040" data-name="グループ 6040" transform="translate(46.965 34.498)">
            <g id="グループ_6037" data-name="グループ 6037" transform="translate(0 0)">
              <g id="グループ_6036" data-name="グループ 6036" transform="translate(0 0)">
                <rect id="長方形_2763" data-name="長方形 2763" width="3.007" height="21.132" transform="translate(0 2.126) rotate(-45)" fill="#202360"/>
              </g>
            </g>
            <g id="グループ_6039" data-name="グループ 6039" transform="translate(0 0)">
              <g id="グループ_6038" data-name="グループ 6038" transform="translate(0)">
                <rect id="長方形_2764" data-name="長方形 2764" width="21.132" height="3.007" transform="translate(0 14.943) rotate(-45.002)" fill="#202360"/>
              </g>
            </g>
          </g>
          <g id="グループ_6046" data-name="グループ 6046" transform="translate(10.362 14.994)">
            <g id="グループ_6042" data-name="グループ 6042" transform="translate(0 3.746)">
              <g id="グループ_6041" data-name="グループ 6041">
                <path id="パス_7342" data-name="パス 7342" d="M94.734,95.364H91.727A32.179,32.179,0,0,1,123.87,63.221v3.007A29.168,29.168,0,0,0,94.734,95.364Z" transform="translate(-91.727 -63.221)" fill="#202360"/>
              </g>
            </g>
            <g id="グループ_6045" data-name="グループ 6045" transform="translate(30.607)">
              <g id="グループ_6044" data-name="グループ 6044">
                <g id="グループ_6043" data-name="グループ 6043">
                  <path id="パス_7343" data-name="パス 7343" d="M99.87,72.721l9.089-5.248L99.87,62.224Z" transform="translate(-99.87 -62.224)" fill="#202360"/>
                </g>
              </g>
            </g>
          </g>
          <g id="グループ_6052" data-name="グループ 6052" transform="translate(42.172 73.043)">
            <g id="グループ_6048" data-name="グループ 6048" transform="translate(4.276 4.276)">
              <g id="グループ_6047" data-name="グループ 6047">
                <path id="パス_7344" data-name="パス 7344" d="M124.057,90.356a31.95,31.95,0,0,1-22.73-9.424l2.128-2.128a29.112,29.112,0,0,0,41.205,0l2.128,2.128A31.944,31.944,0,0,1,124.057,90.356Z" transform="translate(-101.327 -78.805)" fill="#202360"/>
              </g>
            </g>
            <g id="グループ_6051" data-name="グループ 6051">
              <g id="グループ_6050" data-name="グループ 6050">
                <g id="グループ_6049" data-name="グループ 6049">
                  <path id="パス_7345" data-name="パス 7345" d="M110.327,80.383,100.19,77.667l2.716,10.138Z" transform="translate(-100.19 -77.667)" fill="#202360"/>
                </g>
              </g>
            </g>
          </g>
        </g>
      </g>
    </g>
  </g>
</svg>
