<svg xmlns="http://www.w3.org/2000/svg" width="314.828" height="352.589" viewBox="0 0 314.828 352.589">
  <g id="グループ_11564" data-name="グループ 11564" transform="translate(-939.436 -3206)">
    <path id="パス_11084" data-name="パス 11084" d="M12.549,83.011V223.936L134.593,294.4l122.044-70.462V83.011L134.593,12.549Z" transform="translate(962.258 3228.821)" fill="none"/>
    <g id="グループ_10547" data-name="グループ 10547" transform="translate(-6 -0.182)">
      <rect id="長方形_3445" data-name="長方形 3445" width="47.338" height="2.797" transform="translate(1014.631 3287.223) rotate(-29.997)" fill="#202360"/>
      <g id="グループ_9268" data-name="グループ 9268" transform="translate(1051.074 3259.749)">
        <path id="パス_11085" data-name="パス 11085" d="M39.609,19.07H53.55L46.58,31.145Z" transform="translate(-39.609 -19.07)" fill="#202360"/>
      </g>
    </g>
    <g id="グループ_10910" data-name="グループ 10910" transform="translate(-3 2)">
      <rect id="長方形_3446" data-name="長方形 3446" width="47.338" height="2.797" transform="translate(1136 3498.951) rotate(-29.997)" fill="#202360"/>
      <g id="グループ_9271" data-name="グループ 9271" transform="translate(1172.441 3471.476)">
        <path id="パス_11087" data-name="パス 11087" d="M82.671,94.191H96.611l-6.969,12.074Z" transform="translate(-82.671 -94.191)" fill="#202360"/>
      </g>
    </g>
    <rect id="長方形_3447" data-name="長方形 3447" width="2.797" height="47.338" transform="translate(973.412 3360.255)" fill="#202360"/>
    <g id="グループ_9274" data-name="グループ 9274" transform="translate(967.838 3350.222)">
      <path id="パス_11089" data-name="パス 11089" d="M10.077,63.243,17.048,51.17l6.972,12.073Z" transform="translate(-10.077 -51.17)" fill="#202360"/>
    </g>
    <g id="グループ_9275" data-name="グループ 9275" transform="translate(967.838 3405.553)">
      <path id="パス_11090" data-name="パス 11090" d="M10.077,70.8l6.971,12.073L24.019,70.8Z" transform="translate(-10.077 -70.802)" fill="#202360"/>
    </g>
    <g id="グループ_10908" data-name="グループ 10908" transform="translate(0 -5)">
      <rect id="長方形_3448" data-name="長方形 3448" width="2.797" height="47.338" transform="translate(1217.457 3361.01)" fill="#202360"/>
      <g id="グループ_9278" data-name="グループ 9278" transform="translate(1211.883 3406.309)">
        <path id="パス_11092" data-name="パス 11092" d="M96.664,71.07l6.971,12.073,6.972-12.073Z" transform="translate(-96.664 -71.07)" fill="#202360"/>
      </g>
    </g>
    <g id="グループ_10913" data-name="グループ 10913" transform="translate(1768.383 -82.337) rotate(30)">
      <rect id="長方形_3448-2" data-name="長方形 3448" width="2.797" height="149.36" transform="translate(1217.457 3257.985)" fill="#202360"/>
      <g id="グループ_9278-2" data-name="グループ 9278" transform="translate(1211.883 3406.309)">
        <path id="パス_11092-2" data-name="パス 11092" d="M96.664,71.07l6.971,12.073,6.972-12.073Z" transform="translate(-96.664 -71.07)" fill="#202360"/>
      </g>
    </g>
    <g id="グループ_10914" data-name="グループ 10914" transform="translate(3761.65 5698.565) rotate(150)">
      <rect id="長方形_3448-3" data-name="長方形 3448" width="2.797" height="149.36" transform="translate(1217.457 3257.985)" fill="#202360"/>
      <g id="グループ_9278-3" data-name="グループ 9278" transform="translate(1211.883 3406.309)">
        <path id="パス_11092-3" data-name="パス 11092" d="M96.664,71.07l6.971,12.073,6.972-12.073Z" transform="translate(-96.664 -71.07)" fill="#202360"/>
      </g>
    </g>
    <g id="グループ_10912" data-name="グループ 10912" transform="translate(-2243.422 4530.686) rotate(-90)">
      <rect id="長方形_3448-4" data-name="長方形 3448" width="2.797" height="148.576" transform="translate(1217.457 3260.088)" fill="#202360"/>
      <g id="グループ_9278-4" data-name="グループ 9278" transform="translate(1211.883 3406.309)">
        <path id="パス_11092-4" data-name="パス 11092" d="M96.664,71.07l6.971,12.073,6.972-12.073Z" transform="translate(-96.664 -71.07)" fill="#202360"/>
      </g>
    </g>
    <g id="グループ_10911" data-name="グループ 10911" transform="translate(5)">
      <rect id="長方形_3449" data-name="長方形 3449" width="2.797" height="47.338" transform="translate(1014.855 3477.884) rotate(-59.997)" fill="#202360"/>
      <g id="グループ_9280" data-name="グループ 9280" transform="translate(1006.865 3471.657)">
        <path id="パス_11093" data-name="パス 11093" d="M30.894,106.33l-6.97-12.073H37.865Z" transform="translate(-23.924 -94.255)" fill="#202360"/>
      </g>
    </g>
    <g id="グループ_10907" data-name="グループ 10907" transform="translate(7)">
      <rect id="長方形_3450" data-name="長方形 3450" width="2.797" height="47.338" transform="translate(1136.814 3265.793) rotate(-59.997)" fill="#202360"/>
      <g id="グループ_9283" data-name="グループ 9283" transform="translate(1128.824 3259.567)">
        <path id="パス_11095" data-name="パス 11095" d="M74.164,31.08l-6.97-12.073H81.136Z" transform="translate(-67.195 -19.006)" fill="#202360"/>
      </g>
    </g>
    <g id="グループ_9288" data-name="グループ 9288" transform="translate(939.436 3276.462)">
      <ellipse id="楕円形_1227" data-name="楕円形 1227" cx="35.37" cy="35.37" rx="35.37" ry="35.37" fill="#202360"/>
      <g id="グループ_9287" data-name="グループ 9287" transform="translate(21.257 20.259)">
        <path id="パス_11097" data-name="パス 11097" d="M21.654,40.8c-6.8,0-14.112-1.359-14.112-4.3s7.314-4.3,14.112-4.3,14.115,1.347,14.115,4.3S28.455,40.8,21.654,40.8Zm0-7.072a37.8,37.8,0,0,0-9.242,1.009c-2.737.724-3.323,1.511-3.323,1.759s.606,1.029,3.323,1.759a37.936,37.936,0,0,0,9.242,1.006A37.936,37.936,0,0,0,30.9,38.251c2.737-.73,3.34-1.511,3.34-1.759s-.606-1.034-3.34-1.759a37.8,37.8,0,0,0-9.242-1.009Z" transform="translate(-7.542 -32.188)" fill="#fff"/>
        <path id="パス_11098" data-name="パス 11098" d="M21.654,45.579c-6.8,0-14.112-1.342-14.112-4.3V34.21a.767.767,0,0,1,1.533,0v7.069c0,.242.6,1.032,3.323,1.756a37.773,37.773,0,0,0,9.242,1.012,37.773,37.773,0,0,0,9.242-1.012c2.737-.724,3.337-1.511,3.337-1.756V34.435a.768.768,0,0,1,1.536,0v6.857c.014,2.945-7.3,4.287-14.1,4.287Z" transform="translate(-7.542 -29.906)" fill="#fff"/>
        <path id="パス_11099" data-name="パス 11099" d="M21.654,48.173c-6.8,0-14.112-1.361-14.112-4.318V36.787a.767.767,0,0,1,1.533,0v7.069c0,.242.6,1.032,3.323,1.756a37.637,37.637,0,0,0,9.242,1.012,37.637,37.637,0,0,0,9.242-1.012c2.737-.724,3.337-1.508,3.337-1.756V37a.768.768,0,0,1,1.536,0v6.857c.014,2.957-7.3,4.318-14.1,4.318Z" transform="translate(-7.542 -25.22)" fill="#fff"/>
        <path id="パス_11100" data-name="パス 11100" d="M21.654,50.738c-6.8,0-14.112-1.347-14.112-4.3V39.363a.767.767,0,0,1,1.533,0v7.072c0,.245.6,1.032,3.323,1.759A37.8,37.8,0,0,0,21.64,49.2a37.8,37.8,0,0,0,9.242-1.006c2.737-.727,3.337-1.511,3.337-1.759V39.58a.768.768,0,0,1,1.536,0v6.855c.014,2.957-7.3,4.3-14.1,4.3Z" transform="translate(-7.542 -20.535)" fill="#fff"/>
      </g>
    </g>
    <g id="グループ_9290" data-name="グループ 9290" transform="translate(1183.523 3276.462)">
      <ellipse id="楕円形_1228" data-name="楕円形 1228" cx="35.37" cy="35.37" rx="35.37" ry="35.37" fill="#202360"/>
      <g id="グループ_9289" data-name="グループ 9289" transform="translate(21.255 20.259)">
        <path id="パス_11101" data-name="パス 11101" d="M108.259,40.8c-6.8,0-14.115-1.359-14.115-4.3s7.317-4.3,14.115-4.3,14.112,1.347,14.112,4.3S115.057,40.8,108.259,40.8Zm0-7.072a37.8,37.8,0,0,0-9.242,1.009c-2.737.724-3.323,1.511-3.323,1.759s.6,1.029,3.323,1.759a37.936,37.936,0,0,0,9.242,1.006,37.936,37.936,0,0,0,9.242-1.006c2.737-.73,3.337-1.511,3.337-1.759s-.6-1.034-3.337-1.759a37.8,37.8,0,0,0-9.242-1.009Z" transform="translate(-94.144 -32.188)" fill="#fff"/>
        <path id="パス_11102" data-name="パス 11102" d="M108.259,45.579c-6.8,0-14.115-1.342-14.115-4.3V34.21a.768.768,0,0,1,1.536,0v7.069c0,.242.6,1.032,3.32,1.756a42.725,42.725,0,0,0,18.486,0c2.734-.724,3.337-1.511,3.337-1.756V34.435a.767.767,0,1,1,1.533,0v6.857c.014,2.945-7.3,4.287-14.1,4.287Z" transform="translate(-94.144 -29.906)" fill="#fff"/>
        <path id="パス_11103" data-name="パス 11103" d="M108.259,48.173c-6.8,0-14.115-1.361-14.115-4.318V36.787a.768.768,0,0,1,1.536,0v7.069c0,.242.6,1.032,3.32,1.756a37.661,37.661,0,0,0,9.245,1.012,37.653,37.653,0,0,0,9.242-1.012c2.734-.724,3.337-1.508,3.337-1.756V37a.767.767,0,1,1,1.533,0v6.857c.014,2.957-7.3,4.318-14.1,4.318Z" transform="translate(-94.144 -25.22)" fill="#fff"/>
        <path id="パス_11104" data-name="パス 11104" d="M108.259,50.738c-6.8,0-14.115-1.347-14.115-4.3V39.363a.768.768,0,0,1,1.536,0v7.072c0,.245.6,1.032,3.32,1.759a37.822,37.822,0,0,0,9.245,1.006,37.814,37.814,0,0,0,9.242-1.006c2.734-.727,3.337-1.511,3.337-1.759V39.58a.767.767,0,1,1,1.533,0v6.855c.014,2.957-7.3,4.3-14.1,4.3Z" transform="translate(-94.144 -20.535)" fill="#fff"/>
      </g>
    </g>
    <g id="グループ_9292" data-name="グループ 9292" transform="translate(939.436 3420.321)">
      <ellipse id="楕円形_1229" data-name="楕円形 1229" cx="35.37" cy="35.37" rx="35.37" ry="35.37" transform="translate(0 0)" fill="#202360"/>
      <g id="グループ_9291" data-name="グループ 9291" transform="translate(21.257 20.259)">
        <path id="パス_11105" data-name="パス 11105" d="M21.654,91.837c-6.8,0-14.112-1.358-14.112-4.3s7.314-4.3,14.112-4.3,14.115,1.347,14.115,4.3S28.455,91.837,21.654,91.837Zm0-7.072a37.8,37.8,0,0,0-9.242,1.009c-2.737.724-3.323,1.511-3.323,1.759s.606,1.029,3.323,1.759A37.935,37.935,0,0,0,21.654,90.3,37.935,37.935,0,0,0,30.9,89.292c2.737-.73,3.34-1.511,3.34-1.759S33.63,86.5,30.9,85.774a37.8,37.8,0,0,0-9.242-1.009Z" transform="translate(-7.542 -83.229)" fill="#fff"/>
        <path id="パス_11106" data-name="パス 11106" d="M21.654,96.62c-6.8,0-14.112-1.342-14.112-4.3V85.251a.767.767,0,0,1,1.533,0v7.069c0,.242.6,1.032,3.323,1.756a37.772,37.772,0,0,0,9.242,1.012,37.772,37.772,0,0,0,9.242-1.012c2.737-.724,3.337-1.511,3.337-1.756V85.476a.768.768,0,0,1,1.536,0v6.857c.014,2.945-7.3,4.287-14.1,4.287Z" transform="translate(-7.542 -80.947)" fill="#fff"/>
        <path id="パス_11107" data-name="パス 11107" d="M21.654,99.214c-6.8,0-14.112-1.361-14.112-4.318V87.828a.767.767,0,1,1,1.533,0V94.9c0,.242.6,1.032,3.323,1.756a37.636,37.636,0,0,0,9.242,1.012,37.636,37.636,0,0,0,9.242-1.012c2.737-.724,3.337-1.508,3.337-1.756V88.039a.768.768,0,0,1,1.536,0V94.9c.014,2.957-7.3,4.318-14.1,4.318Z" transform="translate(-7.542 -76.261)" fill="#fff"/>
        <path id="パス_11108" data-name="パス 11108" d="M21.654,101.779c-6.8,0-14.112-1.347-14.112-4.3V90.4a.767.767,0,0,1,1.533,0v7.072c0,.245.6,1.032,3.323,1.759a37.8,37.8,0,0,0,9.242,1.006,37.8,37.8,0,0,0,9.242-1.006c2.737-.727,3.337-1.511,3.337-1.759V90.621a.768.768,0,0,1,1.536,0v6.855c.014,2.957-7.3,4.3-14.1,4.3Z" transform="translate(-7.542 -71.576)" fill="#fff"/>
      </g>
    </g>
    <g id="グループ_9294" data-name="グループ 9294" transform="translate(1183.523 3420.321)">
      <ellipse id="楕円形_1230" data-name="楕円形 1230" cx="35.37" cy="35.37" rx="35.37" ry="35.37" transform="translate(0 0)" fill="#202360"/>
      <g id="グループ_9293" data-name="グループ 9293" transform="translate(21.255 20.259)">
        <path id="パス_11109" data-name="パス 11109" d="M108.259,91.837c-6.8,0-14.115-1.358-14.115-4.3s7.317-4.3,14.115-4.3,14.112,1.347,14.112,4.3S115.057,91.837,108.259,91.837Zm0-7.072a37.8,37.8,0,0,0-9.242,1.009c-2.737.724-3.323,1.511-3.323,1.759s.6,1.029,3.323,1.759a37.935,37.935,0,0,0,9.242,1.006,37.935,37.935,0,0,0,9.242-1.006c2.737-.73,3.337-1.511,3.337-1.759s-.6-1.034-3.337-1.759a37.8,37.8,0,0,0-9.242-1.009Z" transform="translate(-94.144 -83.229)" fill="#fff"/>
        <path id="パス_11110" data-name="パス 11110" d="M108.259,96.62c-6.8,0-14.115-1.342-14.115-4.3V85.251a.768.768,0,0,1,1.536,0v7.069c0,.242.6,1.032,3.32,1.756a42.724,42.724,0,0,0,18.486,0c2.734-.724,3.337-1.511,3.337-1.756V85.476a.767.767,0,0,1,1.533,0v6.857c.014,2.945-7.3,4.287-14.1,4.287Z" transform="translate(-94.144 -80.947)" fill="#fff"/>
        <path id="パス_11111" data-name="パス 11111" d="M108.259,99.214c-6.8,0-14.115-1.361-14.115-4.318V87.828a.768.768,0,0,1,1.536,0V94.9c0,.242.6,1.032,3.32,1.756a37.66,37.66,0,0,0,9.245,1.012,37.652,37.652,0,0,0,9.242-1.012c2.734-.724,3.337-1.508,3.337-1.756V88.039a.767.767,0,1,1,1.533,0V94.9c.014,2.957-7.3,4.318-14.1,4.318Z" transform="translate(-94.144 -76.261)" fill="#fff"/>
        <path id="パス_11112" data-name="パス 11112" d="M108.259,101.779c-6.8,0-14.115-1.347-14.115-4.3V90.4a.768.768,0,0,1,1.536,0v7.072c0,.245.6,1.032,3.32,1.759a37.821,37.821,0,0,0,9.245,1.006,37.813,37.813,0,0,0,9.242-1.006c2.734-.727,3.337-1.511,3.337-1.759V90.621a.767.767,0,0,1,1.533,0v6.855c.014,2.957-7.3,4.3-14.1,4.3Z" transform="translate(-94.144 -71.576)" fill="#fff"/>
      </g>
    </g>
    <g id="グループ_9296" data-name="グループ 9296" transform="translate(1061 3206)">
      <ellipse id="楕円形_1231" data-name="楕円形 1231" cx="35.37" cy="35.37" rx="35.37" ry="35.37" fill="#202360"/>
      <g id="グループ_9295" data-name="グループ 9295" transform="translate(21.256 20.259)">
        <path id="パス_11113" data-name="パス 11113" d="M64.958,15.8c-6.8,0-14.115-1.359-14.115-4.3s7.314-4.3,14.115-4.3,14.112,1.347,14.112,4.3S71.756,15.8,64.958,15.8Zm0-7.072a37.842,37.842,0,0,0-9.245,1.009c-2.734.724-3.32,1.511-3.32,1.759s.6,1.029,3.32,1.759a37.96,37.96,0,0,0,9.245,1.006A37.952,37.952,0,0,0,74.2,13.251c2.737-.73,3.337-1.511,3.337-1.759s-.606-1.034-3.337-1.759a37.834,37.834,0,0,0-9.242-1.009Z" transform="translate(-50.843 -7.188)" fill="#fff"/>
        <path id="パス_11114" data-name="パス 11114" d="M64.958,20.579c-6.8,0-14.115-1.342-14.115-4.3V9.21a.767.767,0,0,1,1.533,0v7.069c0,.242.606,1.032,3.323,1.756a37.773,37.773,0,0,0,9.242,1.012,37.773,37.773,0,0,0,9.242-1.012c2.737-.724,3.337-1.511,3.337-1.756V9.435a.768.768,0,0,1,1.536,0v6.857c.014,2.945-7.3,4.287-14.1,4.287Z" transform="translate(-50.843 -4.906)" fill="#fff"/>
        <path id="パス_11115" data-name="パス 11115" d="M64.958,23.173c-6.8,0-14.115-1.361-14.115-4.318V11.787a.767.767,0,0,1,1.533,0v7.069c0,.242.606,1.032,3.323,1.756a37.636,37.636,0,0,0,9.242,1.012,37.636,37.636,0,0,0,9.242-1.012c2.737-.724,3.337-1.508,3.337-1.756V12a.768.768,0,0,1,1.536,0v6.857c.014,2.957-7.3,4.318-14.1,4.318Z" transform="translate(-50.843 -0.22)" fill="#fff"/>
        <path id="パス_11116" data-name="パス 11116" d="M64.958,25.738c-6.8,0-14.115-1.347-14.115-4.3V14.363a.767.767,0,0,1,1.533,0v7.072c0,.245.606,1.032,3.323,1.759A37.8,37.8,0,0,0,64.941,24.2a37.8,37.8,0,0,0,9.242-1.006c2.737-.727,3.337-1.511,3.337-1.759V14.58a.768.768,0,0,1,1.536,0v6.855c.014,2.957-7.3,4.3-14.1,4.3Z" transform="translate(-50.843 4.465)" fill="#fff"/>
      </g>
    </g>
    <g id="グループ_9298" data-name="グループ 9298" transform="translate(1061.48 3487.849)">
      <ellipse id="楕円形_1232" data-name="楕円形 1232" cx="35.37" cy="35.37" rx="35.37" ry="35.37" fill="#202360"/>
      <g id="グループ_9297" data-name="グループ 9297" transform="translate(21.256 20.259)">
        <path id="パス_11117" data-name="パス 11117" d="M64.958,115.8c-6.8,0-14.115-1.358-14.115-4.3s7.314-4.3,14.115-4.3,14.112,1.347,14.112,4.3S71.756,115.8,64.958,115.8Zm0-7.072a37.842,37.842,0,0,0-9.245,1.009c-2.734.724-3.32,1.511-3.32,1.759s.6,1.029,3.32,1.759a37.959,37.959,0,0,0,9.245,1.006,37.951,37.951,0,0,0,9.242-1.006c2.737-.73,3.337-1.511,3.337-1.759s-.606-1.034-3.337-1.759a37.834,37.834,0,0,0-9.242-1.009Z" transform="translate(-50.843 -107.188)" fill="#fff"/>
        <path id="パス_11118" data-name="パス 11118" d="M64.958,120.579c-6.8,0-14.115-1.342-14.115-4.3V109.21a.767.767,0,0,1,1.533,0v7.069c0,.242.606,1.032,3.323,1.756a37.773,37.773,0,0,0,9.242,1.012,37.773,37.773,0,0,0,9.242-1.012c2.737-.724,3.337-1.511,3.337-1.756v-6.843a.768.768,0,0,1,1.536,0v6.857c.014,2.945-7.3,4.287-14.1,4.287Z" transform="translate(-50.843 -104.906)" fill="#fff"/>
        <path id="パス_11119" data-name="パス 11119" d="M64.958,123.173c-6.8,0-14.115-1.361-14.115-4.318v-7.069a.767.767,0,0,1,1.533,0v7.069c0,.242.606,1.032,3.323,1.756a37.635,37.635,0,0,0,9.242,1.012,37.635,37.635,0,0,0,9.242-1.012c2.737-.724,3.337-1.508,3.337-1.756V112a.768.768,0,0,1,1.536,0v6.857c.014,2.957-7.3,4.318-14.1,4.318Z" transform="translate(-50.843 -100.22)" fill="#fff"/>
        <path id="パス_11120" data-name="パス 11120" d="M64.958,125.738c-6.8,0-14.115-1.347-14.115-4.3v-7.072a.767.767,0,0,1,1.533,0v7.072c0,.245.606,1.032,3.323,1.759a37.8,37.8,0,0,0,9.242,1.006,37.8,37.8,0,0,0,9.242-1.006c2.737-.727,3.337-1.511,3.337-1.759V114.58a.768.768,0,0,1,1.536,0v6.855c.014,2.957-7.3,4.3-14.1,4.3Z" transform="translate(-50.843 -95.535)" fill="#fff"/>
      </g>
    </g>
    <g id="グループ_9319" data-name="グループ 9319" transform="translate(1067 3343.689)">
      <g id="グループ_9301" data-name="グループ 9301" transform="translate(1.756)">
        <g id="グループ_9299" data-name="グループ 9299">
          <path id="パス_11121" data-name="パス 11121" d="M87.441,65.623l-2.117-1.268a1.234,1.234,0,0,0-1.68.406A25.185,25.185,0,0,1,55.336,76a1.23,1.23,0,0,0-1.452.7L52.9,78.993a1.232,1.232,0,0,0,.8,1.671,30.279,30.279,0,0,0,34.16-13.34A1.234,1.234,0,0,0,88,66.386,1.219,1.219,0,0,0,87.441,65.623Z" transform="translate(-31.542 -20.981)" fill="#1c2a54"/>
          <path id="パス_11122" data-name="パス 11122" d="M75.681,48.852a30.4,30.4,0,0,0-15.347,56.663,1.214,1.214,0,0,0,.62.169,1.284,1.284,0,0,0,.386-.059,1.246,1.246,0,0,0,.747-.685l.981-2.291a1.224,1.224,0,0,0-.493-1.539A25.473,25.473,0,0,1,75.681,53.776a25.613,25.613,0,0,1,22,12.672,1.239,1.239,0,0,0,.758.569,1.221,1.221,0,0,0,.936-.135l2.119-1.271a1.23,1.23,0,0,0,.428-1.677A30.553,30.553,0,0,0,75.681,48.852Z" transform="translate(-45.258 -48.852)" fill="#1c2a54"/>
        </g>
        <g id="グループ_9300" data-name="グループ 9300" transform="translate(13.631 12.982)">
          <path id="パス_11123" data-name="パス 11123" d="M82.94,71.282c0-.127.006-.254.006-.381s0-.256-.006-.383l1.189-1.094a1.39,1.39,0,0,0,.44-1.254h0a17.422,17.422,0,0,0-1.688-5.189,1.4,1.4,0,0,0-1.091-.755l-1.609-.186q-.216-.313-.448-.617l.321-1.587a1.389,1.389,0,0,0-.383-1.271,17.377,17.377,0,0,0-4.411-3.2,1.409,1.409,0,0,0-1.33.028l-1.406.795c-.242-.087-.485-.166-.73-.24l-.671-1.468a1.4,1.4,0,0,0-1.06-.806,17.658,17.658,0,0,0-5.448,0,1.4,1.4,0,0,0-1.06.806l-.674,1.468c-.24.073-.485.152-.727.24l-1.406-.795a1.386,1.386,0,0,0-1.33-.028,17.377,17.377,0,0,0-4.411,3.2,1.4,1.4,0,0,0-.383,1.271l.321,1.587q-.233.3-.448.617l-1.607.183a1.4,1.4,0,0,0-1.094.758,17.412,17.412,0,0,0-1.688,5.192,1.415,1.415,0,0,0,.44,1.251l1.192,1.094c0,.127-.006.254-.006.383s0,.254.006.381L50.55,72.376a1.412,1.412,0,0,0-.44,1.254A17.378,17.378,0,0,0,51.8,78.816a1.406,1.406,0,0,0,1.091.758l1.609.186q.216.313.448.617l-.321,1.59a1.4,1.4,0,0,0,.383,1.268,17.5,17.5,0,0,0,4.411,3.2,1.408,1.408,0,0,0,1.33-.028l1.406-.795c.242.087.488.166.727.24l.674,1.468a1.406,1.406,0,0,0,1.06.806,17.64,17.64,0,0,0,5.445,0,1.4,1.4,0,0,0,1.063-.8l.671-1.471c.245-.073.488-.152.73-.24l1.406.795a1.409,1.409,0,0,0,1.33.028,17.5,17.5,0,0,0,4.411-3.2,1.389,1.389,0,0,0,.383-1.271l-.321-1.587q.233-.3.448-.617l1.607-.186a1.406,1.406,0,0,0,1.094-.758,17.379,17.379,0,0,0,1.688-5.186,1.4,1.4,0,0,0-.44-1.254ZM67.343,84.63A13.732,13.732,0,1,1,81.071,70.9,13.731,13.731,0,0,1,67.343,84.63Z" transform="translate(-50.094 -53.458)" fill="#1c2a54"/>
          <path id="パス_11124" data-name="パス 11124" d="M57.772,58.789A2.415,2.415,0,1,0,60.188,61.2,2.415,2.415,0,0,0,57.772,58.789Z" transform="translate(-40.524 -43.764)" fill="#1c2a54"/>
        </g>
      </g>
      <g id="グループ_9318" data-name="グループ 9318" transform="translate(0 67.241)">
        <g id="グループ_9304" data-name="グループ 9304" transform="translate(0 0.025)">
          <g id="グループ_9302" data-name="グループ 9302" transform="translate(3.467 7.043)">
            <path id="パス_11125" data-name="パス 11125" d="M47.23,77.362a4.311,4.311,0,0,1-1.133-.155l-.161.372a4.674,4.674,0,0,0,1.294.183,4.747,4.747,0,0,0,4.05-2.269l-.344-.206A4.355,4.355,0,0,1,47.23,77.362Z" transform="translate(-45.736 -75.087)" fill="#1c2a54"/>
            <path id="パス_11126" data-name="パス 11126" d="M47.359,78.092a4.934,4.934,0,0,1-1.347-.189.2.2,0,0,1-.13-.273l.161-.372a.2.2,0,0,1,.237-.116,4.1,4.1,0,0,0,4.614-1.832.2.2,0,0,1,.273-.065l.347.206a.2.2,0,0,1,.09.124.191.191,0,0,1-.023.152A4.928,4.928,0,0,1,47.359,78.092Zm0-.4h0Zm3.768-2a4.525,4.525,0,0,1-3.768,2,4.522,4.522,0,0,0,3.768-2Zm-3.771,2Zm-1.015-.118a4.471,4.471,0,0,0,1.015.118,4.465,4.465,0,0,1-1.012-.118Z" transform="translate(-45.865 -75.217)" fill="#1c2a54"/>
          </g>
          <g id="グループ_9303" data-name="グループ 9303">
            <path id="パス_11127" data-name="パス 11127" d="M47.224,81.278a4.353,4.353,0,1,1,6-5.922l.347-.209a4.757,4.757,0,1,0-6.508,6.505Z" transform="translate(-44.504 -72.589)" fill="#1c2a54"/>
            <path id="パス_11128" data-name="パス 11128" d="M47.194,81.982a.191.191,0,0,1-.1-.028,4.957,4.957,0,1,1,6.781-6.778.2.2,0,0,1-.07.273l-.344.209a.22.22,0,0,1-.152.023.2.2,0,0,1-.124-.093,4.154,4.154,0,0,0-7.745,2.091,4.123,4.123,0,0,0,2.021,3.557.2.2,0,0,1,.082.251l-.161.375a.208.208,0,0,1-.121.113A.256.256,0,0,1,47.194,81.982Zm-.521-.815a4.078,4.078,0,0,0,.431.321v0A4.488,4.488,0,0,1,46.673,81.168Zm-1.635-3.489h0Zm4.557-4.56a4.581,4.581,0,0,1,3.828,2.091h0A4.581,4.581,0,0,0,49.6,73.118Z" transform="translate(-44.635 -72.718)" fill="#1c2a54"/>
          </g>
        </g>
        <g id="グループ_9307" data-name="グループ 9307" transform="translate(43.577 0.008)">
          <g id="グループ_9305" data-name="グループ 9305" transform="translate(3.032 1.604)">
            <rect id="長方形_3451" data-name="長方形 3451" width="0.48" height="7.946" transform="translate(0.202 0.202)" fill="#1c2a54"/>
            <path id="パス_11129" data-name="パス 11129" d="M61.854,81.629h-.479a.2.2,0,0,1-.2-.2V73.484a.2.2,0,0,1,.2-.2h.479a.2.2,0,0,1,.2.2v7.945A.2.2,0,0,1,61.854,81.629Zm-.279-.4h.079V73.684h-.079Z" transform="translate(-61.172 -73.281)" fill="#1c2a54"/>
          </g>
          <g id="グループ_9306" data-name="グループ 9306">
            <rect id="長方形_3452" data-name="長方形 3452" width="6.547" height="0.401" transform="translate(0.201 0.201)" fill="#1c2a54"/>
            <rect id="長方形_3453" data-name="長方形 3453" width="6.949" height="0.803" rx="0.201" fill="#1c2a54"/>
          </g>
        </g>
        <g id="グループ_9310" data-name="グループ 9310" transform="translate(34.043 0.025)">
          <g id="グループ_9308" data-name="グループ 9308" transform="translate(2.047)">
            <path id="パス_11130" data-name="パス 11130" d="M59.558,72.789l-2.047,4.759h.444l1.811-4.21,3.858,8.97h.444l-4.095-9.519Z" transform="translate(-57.31 -72.589)" fill="#1c2a54"/>
            <path id="パス_11131" data-name="パス 11131" d="M64.2,82.636h-.443a.2.2,0,0,1-.183-.121L59.9,73.975l-1.626,3.782a.2.2,0,0,1-.186.121h-.442a.206.206,0,0,1-.169-.09.2.2,0,0,1-.014-.192L59.5,72.839a.2.2,0,0,1,.183-.121H60.1a.2.2,0,0,1,.183.121l4.1,9.518a.2.2,0,0,1-.186.279Zm-.31-.4h.006l-3.921-9.118h-.152l-1.874,4.357h.008l1.759-4.087a.206.206,0,0,1,.366,0Z" transform="translate(-57.44 -72.718)" fill="#1c2a54"/>
          </g>
          <g id="グループ_9309" data-name="グループ 9309" transform="translate(0 5.961)">
            <path id="パス_11132" data-name="パス 11132" d="M62.105,74.911h-3.35l0-.007h-.444l0,.007-.173.4L56.785,78.46h.444l1.354-3.148h3.7Z" transform="translate(-56.584 -74.703)" fill="#1c2a54"/>
            <path id="パス_11133" data-name="パス 11133" d="M57.358,78.79h-.443a.2.2,0,0,1-.186-.279l1.528-3.548a.212.212,0,0,1,.186-.13h.445l.051.008h3.295a.2.2,0,0,1,.186.121l.172.4a.21.21,0,0,1-.017.192.2.2,0,0,1-.169.09H58.843l-1.3,3.024A.2.2,0,0,1,57.358,78.79Zm-.138-.4h.006l1.3-3.027a.2.2,0,0,1,.183-.121h.175l-.054-.006h-.256Z" transform="translate(-56.713 -74.833)" fill="#1c2a54"/>
          </g>
        </g>
        <g id="グループ_9313" data-name="グループ 9313" transform="translate(51.338 0.025)">
          <g id="グループ_9311" data-name="グループ 9311" transform="translate(2.048)">
            <path id="パス_11134" data-name="パス 11134" d="M65.695,72.789l-2.047,4.759h.444l1.811-4.21,3.858,8.97H70.2L66.11,72.789Z" transform="translate(-63.447 -72.589)" fill="#1c2a54"/>
            <path id="パス_11135" data-name="パス 11135" d="M70.334,82.636h-.442a.2.2,0,0,1-.186-.121l-3.672-8.54L64.4,77.757a.2.2,0,0,1-.183.121h-.443a.2.2,0,0,1-.169-.09.21.21,0,0,1-.017-.192l2.049-4.758a.2.2,0,0,1,.183-.121h.414a.2.2,0,0,1,.186.121l4.092,9.518a.189.189,0,0,1-.017.189A.2.2,0,0,1,70.334,82.636Zm-.313-.4h.008l-3.923-9.118h-.149l-1.874,4.357h.006l1.759-4.087a.208.208,0,0,1,.369,0Z" transform="translate(-63.576 -72.718)" fill="#1c2a54"/>
          </g>
          <g id="グループ_9312" data-name="グループ 9312" transform="translate(0 5.961)">
            <path id="パス_11136" data-name="パス 11136" d="M68.242,74.911h-3.35l0-.007h-.444l0,.007-.173.4L62.921,78.46h.444l1.354-3.148h3.7Z" transform="translate(-62.72 -74.703)" fill="#1c2a54"/>
            <path id="パス_11137" data-name="パス 11137" d="M63.5,78.79h-.445a.2.2,0,0,1-.166-.09.189.189,0,0,1-.017-.189l1.525-3.548a.216.216,0,0,1,.189-.13h.443l.054.008h3.295a.2.2,0,0,1,.183.121l.172.4a.194.194,0,0,1-.017.192.2.2,0,0,1-.166.09H64.981l-1.3,3.024A.2.2,0,0,1,63.5,78.79Zm-.141-.4h.008l1.3-3.027a.2.2,0,0,1,.183-.121h.172l-.051-.006h-.256Z" transform="translate(-62.85 -74.833)" fill="#1c2a54"/>
          </g>
        </g>
        <g id="グループ_9316" data-name="グループ 9316" transform="translate(24.154)">
          <g id="グループ_9314" data-name="グループ 9314" transform="translate(6.547)">
            <path id="パス_11138" data-name="パス 11138" d="M56,80.157V72.78h-.4v6.788Z" transform="translate(-55.399 -72.58)" fill="#1c2a54"/>
            <path id="パス_11139" data-name="パス 11139" d="M56.128,80.488a.2.2,0,0,1-.166-.087l-.4-.589a.2.2,0,0,1-.034-.113v-6.79a.2.2,0,0,1,.2-.2h.4a.2.2,0,0,1,.2.2v7.379a.2.2,0,0,1-.141.192A.215.215,0,0,1,56.128,80.488Z" transform="translate(-55.528 -72.709)" fill="#1c2a54"/>
          </g>
          <g id="グループ_9315" data-name="グループ 9315">
            <path id="パス_11140" data-name="パス 11140" d="M58.9,80.351l-5.18-7.571h-.443v9.569h.4v-8.92L59.746,82.3h.479v0Z" transform="translate(-53.076 -72.58)" fill="#1c2a54"/>
            <path id="パス_11141" data-name="パス 11141" d="M53.805,82.678h-.4a.2.2,0,0,1-.2-.2V72.909a.2.2,0,0,1,.2-.2h.442a.2.2,0,0,1,.166.087l5.18,7.57h0l1.325,1.945a.2.2,0,0,1,.034.113.2.2,0,0,1-.2.2h-.479a.194.194,0,0,1-.163-.087l-5.7-8.334v8.272A.2.2,0,0,1,53.805,82.678Zm-.2-.4v-8.72a.2.2,0,0,1,.141-.192.205.205,0,0,1,.223.073l-.225-.33h-.138Z" transform="translate(-53.205 -72.709)" fill="#1c2a54"/>
          </g>
        </g>
        <g id="グループ_9317" data-name="グループ 9317" transform="translate(11.807 0.025)">
          <path id="パス_11142" data-name="パス 11142" d="M58.5,78.1l-.341-.31,0-.107,0-.11.341-.31a.4.4,0,0,0,.124-.358h0a4.967,4.967,0,0,0-.479-1.474.4.4,0,0,0-.31-.217l-.459-.051c-.039-.062-.082-.118-.127-.178l.093-.451a.4.4,0,0,0-.11-.361,4.946,4.946,0,0,0-1.254-.91.4.4,0,0,0-.378.006l-.4.228c-.07-.025-.138-.048-.209-.068l-.189-.417a.4.4,0,0,0-.3-.231,5.1,5.1,0,0,0-1.55,0,.406.406,0,0,0-.3.228l-.192.42c-.068.02-.138.042-.206.068l-.4-.225a.391.391,0,0,0-.378-.008,4.946,4.946,0,0,0-1.254.91.389.389,0,0,0-.11.361l.09.451-.127.178-.457.051a.4.4,0,0,0-.31.217A4.809,4.809,0,0,0,48.83,76.9a.4.4,0,0,0,.124.358l.338.31v.217l-.338.31a.4.4,0,0,0-.124.358,4.81,4.81,0,0,0,.479,1.474.4.4,0,0,0,.31.217l.457.051c.042.059.085.118.127.175l-.09.454a.393.393,0,0,0,.11.361,4.849,4.849,0,0,0,1.254.91.391.391,0,0,0,.378-.008l.4-.225c.068.025.138.048.206.068l.192.42a.406.406,0,0,0,.3.228,5.085,5.085,0,0,0,1.547,0,.4.4,0,0,0,.3-.228l.192-.42c.07-.02.138-.042.209-.068l.4.225a.391.391,0,0,0,.378.008,4.946,4.946,0,0,0,1.254-.91.4.4,0,0,0,.11-.361l-.093-.451q.068-.089.127-.178l.457-.051a.4.4,0,0,0,.313-.217,4.967,4.967,0,0,0,.479-1.474A.4.4,0,0,0,58.5,78.1Zm-4.775,3.486a3.905,3.905,0,1,1,3.9-3.906A3.906,3.906,0,0,1,53.728,81.582Z" transform="translate(-48.824 -72.718)" fill="#1c2a54"/>
          <circle id="楕円形_1233" data-name="楕円形 1233" cx="0.687" cy="0.687" r="0.687" transform="translate(4.217 4.272)" fill="#1c2a54"/>
        </g>
      </g>
    </g>
  </g>
</svg>
