<svg xmlns="http://www.w3.org/2000/svg" xmlns:xlink="http://www.w3.org/1999/xlink" width="530.443" height="87.646" viewBox="0 0 530.443 87.646">
  <defs>
    <clipPath id="clip-path">
      <rect id="長方形_1648" data-name="長方形 1648" width="530.443" height="87.646" fill="none"/>
    </clipPath>
  </defs>
  <g id="グループ_29" data-name="グループ 29" transform="translate(0 0)">
    <g id="グループ_1367" data-name="グループ 1367" transform="translate(0 0)" clip-path="url(#clip-path)">
      <path id="パス_1148" data-name="パス 1148" d="M37.206,69.457a38.108,38.108,0,0,1-9.961-1.36L25.836,71.38A41.616,41.616,0,0,0,72.81,53.036l-3.034-1.82a38.28,38.28,0,0,1-32.57,18.241" transform="translate(6.395 12.677)" fill="#0e2044"/>
      <path id="パス_1149" data-name="パス 1149" d="M37.556,75.1a43.715,43.715,0,0,1-11.849-1.672,1.766,1.766,0,0,1-1.143-2.394l1.41-3.282a1.763,1.763,0,0,1,2.081-1.008A36.091,36.091,0,0,0,68.625,50.637a1.769,1.769,0,0,1,2.406-.584l3.034,1.819a1.761,1.761,0,0,1,.6,2.438A43.336,43.336,0,0,1,37.556,75.1m0-3.528h0ZM70.68,53.955A39.81,39.81,0,0,1,37.556,71.571,39.791,39.791,0,0,0,70.689,53.96ZM37.52,71.571h0Zm-8.9-1.037a39.812,39.812,0,0,0,8.9,1.037,39.482,39.482,0,0,1-8.895-1.049Z" transform="translate(6.045 12.327)" fill="#0e2044"/>
      <path id="パス_1150" data-name="パス 1150" d="M23.556,76.228A38.272,38.272,0,1,1,76.3,24.154l3.034-1.819a41.81,41.81,0,1,0-57.19,57.176Z" transform="translate(0.35 0.394)" fill="#0e2044"/>
      <path id="パス_1151" data-name="パス 1151" d="M22.5,81.624a1.775,1.775,0,0,1-.892-.242,43.573,43.573,0,1,1,59.6-59.589,1.761,1.761,0,0,1-.614,2.4l-3.035,1.819a1.748,1.748,0,0,1-1.344.2,1.77,1.77,0,0,1-1.085-.817A36.51,36.51,0,0,0,7.055,43.78,36.286,36.286,0,0,0,24.817,75.066a1.764,1.764,0,0,1,.71,2.207l-1.408,3.283A1.759,1.759,0,0,1,22.5,81.624m-4.6-7.157a40.408,40.408,0,0,0,3.786,2.816l.006-.015a41.263,41.263,0,0,1-3.792-2.8M3.528,43.78h0ZM43.6,3.707A40.248,40.248,0,0,1,77.24,22.1l.01-.007A40.242,40.242,0,0,0,43.6,3.707" transform="translate(0 0.044)" fill="#0e2044"/>
      <rect id="長方形_1646" data-name="長方形 1646" width="4.219" height="69.846" transform="translate(411.481 15.955)" fill="#0e2044"/>
      <path id="パス_1152" data-name="パス 1152" d="M334.408,84.749h-4.22a1.762,1.762,0,0,1-1.763-1.764V13.138a1.762,1.762,0,0,1,1.763-1.763h4.22a1.763,1.763,0,0,1,1.764,1.763V82.985a1.763,1.763,0,0,1-1.764,1.764m-2.456-3.527h.692V14.9h-.692Z" transform="translate(81.292 2.815)" fill="#0e2044"/>
      <rect id="長方形_1647" data-name="長方形 1647" width="57.553" height="3.527" transform="translate(384.814 1.845)" fill="#0e2044"/>
      <path id="パス_1153" data-name="パス 1153" d="M366.366,7.12H308.813a1.762,1.762,0,0,1-1.764-1.764V1.829A1.762,1.762,0,0,1,308.813.065h57.553a1.763,1.763,0,0,1,1.764,1.764V5.356a1.763,1.763,0,0,1-1.764,1.764" transform="translate(76.001 0.016)" fill="#0e2044"/>
      <path id="パス_1154" data-name="パス 1154" d="M273.705,1.593l-18,41.837h3.9L275.529,6.418l33.918,78.847h3.9L277.354,1.593Z" transform="translate(63.293 0.394)" fill="#0e2044"/>
      <path id="パス_1155" data-name="パス 1155" d="M313.7,87.38h-3.9a1.767,1.767,0,0,1-1.621-1.065l-32.3-75.083-14.3,33.246a1.768,1.768,0,0,1-1.621,1.065h-3.9a1.765,1.765,0,0,1-1.621-2.461l18-41.837A1.767,1.767,0,0,1,274.055.179H277.7a1.764,1.764,0,0,1,1.621,1.065l36,83.675a1.765,1.765,0,0,1-1.621,2.46m-2.741-3.527h.062L276.543,3.706h-1.326l-16.481,38.31h.061L274.258,6.071a1.839,1.839,0,0,1,3.241,0Z" transform="translate(62.943 0.044)" fill="#0e2044"/>
      <path id="パス_1156" data-name="パス 1156" d="M288.052,43.669H258.6l.025-.059h-3.9l-.025.059L253.184,47.2l-11.9,27.67h3.9l11.9-27.67h32.482Z" transform="translate(59.722 10.794)" fill="#0e2044"/>
      <path id="パス_1157" data-name="パス 1157" d="M245.535,76.979h-3.9a1.765,1.765,0,0,1-1.621-2.46l13.421-31.2a1.854,1.854,0,0,1,1.644-1.125h3.9a1.82,1.82,0,0,1,.45.059H288.4a1.768,1.768,0,0,1,1.622,1.068l1.514,3.528a1.763,1.763,0,0,1-1.621,2.459H258.6l-11.441,26.6a1.767,1.767,0,0,1-1.621,1.065m-1.225-3.527h.064l11.441-26.6a1.767,1.767,0,0,1,1.622-1.065h1.517a1.83,1.83,0,0,1-.452-.059h-2.264Z" transform="translate(59.372 10.445)" fill="#0e2044"/>
      <path id="パス_1158" data-name="パス 1158" d="M395.577,1.593l-18,41.837h3.9L397.4,6.418l33.918,78.847h3.9L399.226,1.593Z" transform="translate(93.459 0.394)" fill="#0e2044"/>
      <path id="パス_1159" data-name="パス 1159" d="M435.569,87.38h-3.9a1.767,1.767,0,0,1-1.621-1.065l-32.3-75.083-14.3,33.246a1.766,1.766,0,0,1-1.621,1.065h-3.9a1.765,1.765,0,0,1-1.621-2.461l18-41.837A1.767,1.767,0,0,1,395.926.179h3.65A1.767,1.767,0,0,1,401.2,1.244L437.19,84.919a1.765,1.765,0,0,1-1.621,2.46m-2.741-3.527h.062L398.415,3.706h-1.327l-16.48,38.31h.062L396.129,6.071a1.839,1.839,0,0,1,3.241,0Z" transform="translate(93.109 0.044)" fill="#0e2044"/>
      <path id="パス_1160" data-name="パス 1160" d="M409.923,43.669H380.474l.025-.059h-3.9l-.025.059L375.055,47.2l-11.9,27.67h3.9l11.9-27.67h32.482Z" transform="translate(89.888 10.794)" fill="#0e2044"/>
      <path id="パス_1161" data-name="パス 1161" d="M367.406,76.979h-3.9a1.765,1.765,0,0,1-1.621-2.46l13.421-31.2a1.858,1.858,0,0,1,1.647-1.125h3.9a1.821,1.821,0,0,1,.45.059h28.974a1.764,1.764,0,0,1,1.62,1.068l1.515,3.528a1.764,1.764,0,0,1-1.622,2.459h-31.32l-11.441,26.6a1.767,1.767,0,0,1-1.62,1.065m-1.225-3.527h.064l11.441-26.6a1.767,1.767,0,0,1,1.622-1.065h1.517a1.831,1.831,0,0,1-.452-.059h-2.263Z" transform="translate(89.538 10.445)" fill="#0e2044"/>
      <path id="パス_1162" data-name="パス 1162" d="M221.26,66.267V1.418h-3.527v59.67Z" transform="translate(53.894 0.351)" fill="#0e2044"/>
      <path id="パス_1163" data-name="パス 1163" d="M221.611,68.381a1.761,1.761,0,0,1-1.457-.772l-3.527-5.178a1.751,1.751,0,0,1-.307-.992V1.768A1.762,1.762,0,0,1,218.084,0h3.527a1.763,1.763,0,0,1,1.764,1.764V66.617a1.768,1.768,0,0,1-1.244,1.687,1.832,1.832,0,0,1-.52.077" transform="translate(53.544 0.001)" fill="#0e2044"/>
      <path id="パス_1164" data-name="パス 1164" d="M221.033,67.966,175.5,1.413h-3.9V85.533h3.527V7.121l53.348,77.966h4.207v-.021Z" transform="translate(42.475 0.35)" fill="#0e2044"/>
      <path id="パス_1165" data-name="パス 1165" d="M175.477,87.646h-3.528a1.762,1.762,0,0,1-1.763-1.763V1.764A1.763,1.763,0,0,1,171.949,0h3.9A1.766,1.766,0,0,1,177.3.768l45.538,66.553v0l11.647,17.1a1.761,1.761,0,0,1,.307.993A1.781,1.781,0,0,1,233.03,87.2h-4.205a1.766,1.766,0,0,1-1.456-.768L177.24,13.171V85.883a1.762,1.762,0,0,1-1.763,1.763m-1.764-3.527V7.47A1.763,1.763,0,0,1,176.9,6.428l-1.984-2.9h-1.2Z" transform="translate(42.125 0)" fill="#0e2044"/>
      <path id="パス_1166" data-name="パス 1166" d="M168.258,47.468l-2.98-2.737q.015-.475.015-.952t-.015-.957l2.978-2.733a3.5,3.5,0,0,0,1.1-3.136h0a43.308,43.308,0,0,0-4.218-12.965,3.5,3.5,0,0,0-2.728-1.892l-4.02-.464c-.362-.523-.736-1.038-1.118-1.541l.8-3.968a3.5,3.5,0,0,0-.958-3.18,43.647,43.647,0,0,0-11.024-8.007A3.521,3.521,0,0,0,142.766,5L139.249,6.99c-.606-.216-1.216-.413-1.823-.6L135.75,2.725A3.509,3.509,0,0,0,133.1.709a44.162,44.162,0,0,0-13.619,0,3.494,3.494,0,0,0-2.645,2.01L115.151,6.4q-.908.271-1.821.594l-3.517-1.985a3.466,3.466,0,0,0-3.322-.07,43.637,43.637,0,0,0-11.027,8.007,3.507,3.507,0,0,0-.959,3.177l.8,3.968q-.578.76-1.119,1.546l-4.016.459a3.5,3.5,0,0,0-2.731,1.895,43.249,43.249,0,0,0-4.22,12.97,3.526,3.526,0,0,0,1.1,3.13L87.3,42.823q-.013.475-.014.957t.014.951l-2.982,2.738a3.516,3.516,0,0,0-1.1,3.133,43.269,43.269,0,0,0,4.22,12.964,3.494,3.494,0,0,0,2.726,1.892l4.021.464c.359.523.735,1.037,1.119,1.541l-.8,3.973a3.5,3.5,0,0,0,.959,3.176,43.66,43.66,0,0,0,11.027,8.007,3.5,3.5,0,0,0,3.321-.069l3.521-1.986q.909.322,1.819.6l1.682,3.675a3.508,3.508,0,0,0,2.647,2.013,43.946,43.946,0,0,0,13.612,0,3.5,3.5,0,0,0,2.655-2.012l1.68-3.676c.606-.183,1.216-.38,1.823-.6l3.517,1.986a3.5,3.5,0,0,0,3.325.069,43.669,43.669,0,0,0,11.024-8.007,3.5,3.5,0,0,0,.959-3.18l-.8-3.967q.578-.76,1.118-1.543l4.015-.462a3.512,3.512,0,0,0,2.733-1.895A43.331,43.331,0,0,0,169.356,50.6a3.491,3.491,0,0,0-1.1-3.131M126.29,78.095a34.32,34.32,0,1,1,34.321-34.321A34.32,34.32,0,0,1,126.29,78.095" transform="translate(20.589 0.045)" fill="#0e2044"/>
      <path id="パス_1167" data-name="パス 1167" d="M124.973,36.323a6.037,6.037,0,1,1-6.037-6.037,6.037,6.037,0,0,1,6.037,6.037" transform="translate(27.945 7.496)" fill="#0e2044"/>
    </g>
  </g>
</svg>
