<svg xmlns="http://www.w3.org/2000/svg" width="98" height="86.42" viewBox="0 0 98 86.42">
  <g id="グループ_7372" data-name="グループ 7372" transform="translate(-574 -2510)">
    <g id="グループ_7371" data-name="グループ 7371" transform="translate(574 2510)">
      <path id="パス_8939" data-name="パス 8939" d="M664,346.308a31.51,31.51,0,0,0-.648-8.068h0a31.881,31.881,0,0,0-29.86-25.15c-.071-.007-.143-.012-.215-.014h0a3.254,3.254,0,0,0-3.345,3.142h0a3.254,3.254,0,0,0,3.142,3.345l0,0A25.366,25.366,0,0,1,657,339.584h0a25.077,25.077,0,0,1,.508,6.576h0a3.254,3.254,0,0,0,3.068,3.413h0a3.254,3.254,0,0,0,3.413-3.068h0c0-.066,0-.132,0-.2Zm-2.612-35.586a5.686,5.686,0,1,1-4.385,6.74,5.686,5.686,0,0,1,4.385-6.74Z" transform="translate(-591.926 -310.597)" fill="#fff" fill-rule="evenodd"/>
      <path id="パス_8940" data-name="パス 8940" d="M696.435,392.562a31.511,31.511,0,0,0,6.663-4.6h0a31.881,31.881,0,0,0,6.851-38.435c-.029-.065-.061-.129-.095-.193h0a3.254,3.254,0,0,0-4.393-1.326h0a3.254,3.254,0,0,0-1.326,4.393l0,0a25.366,25.366,0,0,1-5.373,30.73h0a25.081,25.081,0,0,1-5.441,3.728l0,0a3.254,3.254,0,0,0-1.422,4.363h0a3.254,3.254,0,0,0,4.363,1.422h0q.089-.045.173-.095Zm29.513-20.055a5.685,5.685,0,1,1-8.029-.427,5.686,5.686,0,0,1,8.029.427Z" transform="translate(-629.405 -333.122)" fill="#fff" fill-rule="evenodd"/>
      <path id="パス_8941" data-name="パス 8941" d="M642.585,458.263a31.515,31.515,0,0,0,7.311,3.473h0a31.882,31.882,0,0,0,36.711-13.284c.041-.058.081-.117.12-.179h0a3.254,3.254,0,0,0-1.048-4.467h0a3.255,3.255,0,0,0-4.468,1.048h0a25.366,25.366,0,0,1-29.3,10.712h0a25.078,25.078,0,0,1-5.949-2.848l0,0a3.254,3.254,0,0,0-4.489.95h0a3.255,3.255,0,0,0,.95,4.49h0c.056.036.112.07.169.1Zm32.125,15.531a5.685,5.685,0,1,1-3.644-7.167,5.686,5.686,0,0,1,3.644,7.167Z" transform="translate(-598.626 -391.323)" fill="#fff" fill-rule="evenodd"/>
      <path id="パス_8942" data-name="パス 8942" d="M592.51,434.955a31.512,31.512,0,0,0,.648,8.068h0a31.881,31.881,0,0,0,29.86,25.15c.071.007.143.012.215.014h0a3.255,3.255,0,0,0,3.345-3.142h0a3.255,3.255,0,0,0-3.142-3.345l0,0a25.366,25.366,0,0,1-23.927-20.018h0A25.091,25.091,0,0,1,599,435.1h0a3.255,3.255,0,0,0-3.068-3.413h0a3.255,3.255,0,0,0-3.413,3.068h0c0,.066,0,.132,0,.2Zm2.612,35.586a5.685,5.685,0,1,1,4.385-6.74,5.685,5.685,0,0,1-4.385,6.74Z" transform="translate(-566.581 -384.246)" fill="#fff" fill-rule="evenodd"/>
      <path id="パス_8943" data-name="パス 8943" d="M563.9,378.77a31.515,31.515,0,0,0-6.663,4.6h0a31.882,31.882,0,0,0-6.851,38.435c.029.065.061.129.1.193h0a3.255,3.255,0,0,0,4.393,1.326h0a3.255,3.255,0,0,0,1.326-4.393l0,0a25.366,25.366,0,0,1,5.373-30.73h0a25.065,25.065,0,0,1,5.441-3.728l0,0a3.254,3.254,0,0,0,1.422-4.363h0a3.255,3.255,0,0,0-4.363-1.422h0q-.089.045-.173.095Zm-29.513,20.055a5.685,5.685,0,1,1,8.029.427,5.685,5.685,0,0,1-8.029-.427Z" transform="translate(-532.928 -351.791)" fill="#fff" fill-rule="evenodd"/>
      <path id="パス_8944" data-name="パス 8944" d="M601.587,330.114a31.516,31.516,0,0,0-7.311-3.473h0a31.881,31.881,0,0,0-36.711,13.284c-.041.058-.081.117-.12.179h0a3.255,3.255,0,0,0,1.048,4.468h0a3.255,3.255,0,0,0,4.468-1.048h0a25.366,25.366,0,0,1,29.3-10.712h0a25.1,25.1,0,0,1,5.949,2.849l0,0a3.255,3.255,0,0,0,4.49-.95h0a3.255,3.255,0,0,0-.951-4.49h0c-.055-.036-.111-.07-.168-.1Zm-32.125-15.531a5.685,5.685,0,1,1,3.644,7.167,5.685,5.685,0,0,1-3.644-7.167Z" transform="translate(-547.546 -310.634)" fill="#fff" fill-rule="evenodd"/>
    </g>
  </g>
</svg>
