<svg xmlns="http://www.w3.org/2000/svg" width="97.558" height="97.558" viewBox="0 0 97.558 97.558">
  <g id="グループ_7376" data-name="グループ 7376" transform="translate(-2971.643 -707.985)">
    <rect id="長方形_3143" data-name="長方形 3143" width="2.667" height="14.802" transform="translate(3019.089 707.985)" fill="#fff"/>
    <rect id="長方形_3144" data-name="長方形 3144" width="2.667" height="14.801" transform="translate(2984.987 723.215) rotate(-45)" fill="#fff"/>
    <rect id="長方形_3145" data-name="長方形 3145" width="14.802" height="2.667" transform="translate(2971.643 755.431)" fill="#fff"/>
    <rect id="長方形_3146" data-name="長方形 3146" width="14.802" height="2.667" transform="translate(2984.987 790.313) rotate(-45)" fill="#fff"/>
    <rect id="長方形_3147" data-name="長方形 3147" width="2.667" height="14.802" transform="translate(3019.089 790.742)" fill="#fff"/>
    <rect id="長方形_3148" data-name="長方形 3148" width="2.667" height="14.802" transform="translate(3043.505 781.733) rotate(-45)" fill="#fff"/>
    <rect id="長方形_3149" data-name="長方形 3149" width="14.802" height="2.667" transform="translate(3054.399 755.431)" fill="#fff"/>
    <rect id="長方形_3150" data-name="長方形 3150" width="14.802" height="2.667" transform="translate(3043.505 731.796) rotate(-45.001)" fill="#fff"/>
    <path id="パス_8953" data-name="パス 8953" d="M3050.451,826a9.053,9.053,0,0,1-8.037-4.9,1.029,1.029,0,0,0-.883-.557c-.232-.008-.375-.026-.382-.027-.118-.012-.205-.024-.293-.035l-.147-.02c-.066-.009-.141-.023-.216-.037l-.165-.029c-.089-.018-.172-.037-.254-.056l-.151-.035c-.08-.019-.156-.041-.233-.062l-.153-.044c-.08-.024-.154-.048-.229-.073l-.157-.053c-.076-.026-.149-.054-.222-.082-.047-.018-.1-.038-.149-.059-.074-.03-.142-.059-.21-.089l-.162-.073c-.065-.031-.133-.063-.2-.1l-.155-.079c-.063-.033-.13-.069-.2-.106l-.145-.083c-.067-.039-.129-.076-.191-.114l-.129-.083c-.079-.051-.14-.091-.2-.133-.043-.03-.15-.106-.152-.108-.057-.041-.114-.082-.17-.124-.032-.024-.267-.21-.31-.245,0,0-.257-.223-.292-.256l-.145-.138c-.115-.106-.206-.2-.3-.3l-.107-.113c-.027-.03-.226-.259-.256-.295l-.245-.309c-.029-.038-.137-.19-.137-.19-.036-.049-.066-.091-.1-.134s-.12-.183-.12-.183c-.031-.048-.064-.1-.1-.148s-.057-.1-.084-.141c-.047-.08-.082-.139-.114-.2s-.062-.113-.09-.168-.066-.127-.1-.189-.054-.112-.08-.169-.059-.129-.088-.193-.048-.113-.072-.171-.054-.136-.08-.2-.043-.116-.065-.176-.047-.136-.069-.2-.039-.12-.057-.178-.041-.142-.061-.213l-.048-.179c-.018-.071-.034-.145-.05-.218l-.006-.031c-.012-.054-.023-.1-.032-.148-.015-.071-.027-.142-.039-.213l-.033-.2c-.008-.051-.051-.409-.051-.409-.008-.086-.014-.179-.021-.273l-.01-.141c-.007-.138-.01-.279-.01-.421s0-.258.01-.386l.006-.108c.006-.108.014-.221.025-.333l0-.057c.012-.111.028-.231.045-.351l.019-.122c.015-.09.027-.17.044-.249l.027-.138c.02-.094.045-.2.071-.307.014-.054.027-.1.04-.151.019-.071.039-.138.058-.2l.051-.169c.027-.086.058-.176.09-.265.021-.059.045-.122.069-.186l.054-.135c.069-.171.146-.344.227-.514a1.144,1.144,0,0,0-.126-1.147c-.075-.1-.129-.17-.155-.209l-.027-.038a7.3,7.3,0,0,1-1.463-4.4,7.4,7.4,0,0,1,2.964-5.9l.022-.016a1.042,1.042,0,0,0,.348-1.26l-.014-.033a5.768,5.768,0,0,1-.278-.769l-.026-.09c-.029-.106-.06-.22-.085-.336l-.026-.116c-.024-.117-.048-.253-.068-.391l-.009-.069c-.018-.131-.034-.3-.042-.407l-.006-.085c-.008-.128-.014-.271-.014-.415s.005-.272.014-.407l.01-.138c.006-.09.016-.179.027-.267l.016-.127c.016-.109.033-.215.053-.321l.016-.088c.023-.115.054-.245.087-.372l.016-.058c.033-.116.064-.219.1-.321l.04-.116c.033-.1.073-.2.114-.3l.025-.064a5.3,5.3,0,0,1,.325-.673l.052-.091c.058-.1.116-.2.177-.291l.038-.058a6.106,6.106,0,0,1,.727-.922l.041-.043a6.841,6.841,0,0,1,.926-.806c.126-.09.241-.168.358-.242a6.711,6.711,0,0,1,1.333-.644,1.051,1.051,0,0,0,.694-1.123c-.013-.1-.027-.191-.035-.286l-.011-.141c0-.032-.005-.083-.008-.135,0-.078-.005-.155-.005-.232,0-.137.006-.272.016-.406l0-.045c.006-.071.019-.193.029-.283l.021-.15a5.653,5.653,0,0,1,.548-1.689l.014-.027c.03-.058.064-.123.1-.186a5.655,5.655,0,0,1,.5-.746c.05-.062.093-.113.136-.163l.036-.041c.036-.041.079-.088.122-.134l.131-.136a1.189,1.189,0,0,0,.088-.1.829.829,0,0,1,.256-.24,1,1,0,0,0,.146-.1l.085-.067c.032-.025.2-.147.2-.147l.11-.074s.178-.114.211-.134l.11-.064c.058-.033.115-.064.172-.094s.1-.051.14-.072l.239-.109.1-.043.133-.052.107-.04.255-.084c.054-.016.124-.036.2-.055l.053-.014c.069-.017.15-.036.233-.053l.065-.013c.074-.014.134-.025.194-.035l.2-.028a1.03,1.03,0,0,0,.858-.723,6.732,6.732,0,0,1,.786-1.7l.02-.031c.043-.066.09-.135.139-.2l.03-.042q.069-.1.142-.19l.024-.031c.059-.074.11-.137.162-.2,0,0,.049-.058.063-.077a2.581,2.581,0,0,1,.642-.656,1.026,1.026,0,0,0,.116-.086c.057-.048.109-.089.162-.13l.093-.072c.039-.03.25-.18.25-.18l.135-.091.119-.076c.039-.025.086-.054.135-.082l.15-.087.119-.066.271-.137c.051-.024.1-.047.152-.069l.131-.058c.093-.039.186-.076.279-.111l.1-.036c.073-.025.134-.047.2-.066,0,0,.241-.071.3-.087l.133-.033c.056-.014.116-.028.177-.041l.134-.028.184-.032.134-.021.191-.024.126-.014c.074-.007.147-.012.219-.017l.122-.008c.1,0,.208-.007.319-.007a6.757,6.757,0,0,1,6.738,6.7v.011l-12.493,19.527a1.374,1.374,0,0,0,.929,2.095l12.256,2.062-5.8,21.359-.015.007a8.8,8.8,0,0,1-3.787.9Z" transform="translate(-40.008 -42.903)" fill="#fff"/>
    <path id="パス_8954" data-name="パス 8954" d="M3121.272,826a9.13,9.13,0,0,1-8.9-8.588V817.4l11.073-17.646a1.373,1.373,0,0,0-.936-2.085l-12.276-2.065,5.861-21.566.015-.007a6.677,6.677,0,0,1,2.987-.7c.11,0,.22,0,.329.008l.1.007c.076,0,.148.01.219.016l.093.01.23.029.127.02c.064.011.125.021.186.033l.135.027.179.041.126.032c.064.017.124.034.182.052l.143.042.275.094c.1.037.193.073.284.112,0,0,.234.1.285.128,0,0,.232.117.274.139l.264.149c.048.029.1.058.143.088l.12.076.135.092.109.077c.043.031.093.068.142.105l.067.052c.069.055.122.1.174.141a1.218,1.218,0,0,0,.119.088,2.6,2.6,0,0,1,.643.657c.013.017.064.078.064.078.051.059.1.122.151.185l.037.048c.045.058.092.122.139.187l.025.034c.053.076.1.146.147.216a6.792,6.792,0,0,1,.8,1.723,1.03,1.03,0,0,0,.854.723l.214.031c.045.007.261.048.261.048.069.014.15.033.231.054l.035.01c.076.02.147.04.218.062,0,0,.19.062.24.08l.105.039.134.053.11.046.231.106.115.058c.085.045.143.076.2.109l.1.06.217.137c.037.024.077.052.117.08l.086.062.114.084.081.063a.978.978,0,0,0,.145.094.822.822,0,0,1,.255.238,1.029,1.029,0,0,0,.091.1l.135.14c.039.041.081.088.123.136l.035.041c.037.042.078.092.119.143l.016.02a5.655,5.655,0,0,1,.494.731c.049.087.08.144.109.2a5.708,5.708,0,0,1,.421,1.073,5.559,5.559,0,0,1,.139.644c0,.009.021.152.021.152.01.08.022.2.028.261l0,.043c.01.146.017.282.017.42,0,.077,0,.154-.006.23,0,.056-.006.108-.009.159l-.01.12c-.008.092-.021.188-.035.283a1.03,1.03,0,0,0,.667,1.113l.041.015a6.6,6.6,0,0,1,1.319.639q.176.111.345.232a6.861,6.861,0,0,1,.934.811l.045.047a6.148,6.148,0,0,1,.728.923l.027.042c.07.109.129.2.185.3l.039.069a6.712,6.712,0,0,1,.344.712l.02.048c.042.108.082.21.118.314l.039.116c.031.092.061.193.089.3l.027.1c.028.107.058.237.084.367l.009.051c.024.125.041.232.056.339l.016.124c.011.093.021.182.028.272l.012.156c.007.12.012.255.012.391s-.006.286-.015.428l-.006.081c-.007.094-.023.261-.037.364l-.016.121c-.017.12-.042.256-.07.392l-.013.06c-.032.148-.063.265-.1.382l-.025.089a5.689,5.689,0,0,1-.271.75l-.021.047a1.031,1.031,0,0,0,.357,1.265l.029.02a7.4,7.4,0,0,1,2.949,5.891,7.3,7.3,0,0,1-1.45,4.385c-.018.023-.034.047-.049.072-.038.062-.094.145-.159.234a1.127,1.127,0,0,0-.113,1.106c.082.169.158.343.229.518l.055.14c.02.052.043.114.066.178.031.089.062.178.09.268l.047.154c.023.078.042.146.06.214l.04.151c.026.106.052.215.075.325l.02.108c.02.093.032.17.044.248l.023.145c.017.113.032.231.045.352l0,.04c.012.12.02.234.026.348l.005.109c.006.121.01.249.01.379s0,.282-.01.422l-.009.126c-.007.109-.013.2-.022.292,0,0-.042.352-.051.414-.006.037-.03.176-.03.176-.016.092-.027.16-.04.227-.01.048-.039.178-.04.18-.016.073-.032.146-.05.216l-.045.17c-.022.08-.042.153-.063.224s-.037.117-.056.176-.045.137-.07.205l-.065.178c-.025.065-.051.132-.078.2s-.048.116-.073.173-.057.129-.087.192-.053.113-.08.168-.064.127-.1.189-.06.114-.09.17-.067.117-.1.176-.069.119-.1.164-.187.291-.215.331-.2.287-.23.321l-.249.315c-.027.033-.227.262-.255.294l-.1.107c-.1.1-.187.2-.285.289l-.16.152c-.038.034-.074.066-.11.1l-.183.159c-.046.038-.311.246-.311.246-.055.042-.112.083-.169.124l-.153.109c-.056.038-.118.079-.18.119l-.145.093c-.065.041-.128.078-.191.114l-.154.089c-.06.033-.126.069-.193.1l-.149.076c-.071.035-.139.068-.207.1l-.156.071c-.069.03-.139.06-.211.089-.053.022-.1.042-.155.062-.07.026-.143.054-.217.081l-.148.05c-.083.027-.159.052-.236.075l-.164.046c-.073.021-.147.042-.221.059l-.158.037c-.079.018-.162.037-.245.054l-.165.029c-.083.015-.158.029-.235.04l-.121.015c-.108.014-.2.027-.294.036h-.021c-.012,0-.163.009-.358.013a1.03,1.03,0,0,0-.893.559,9.053,9.053,0,0,1-8.043,4.916Z" transform="translate(-90.99 -42.902)" fill="#fff"/>
  </g>
</svg>
