<svg xmlns="http://www.w3.org/2000/svg" width="73.328" height="80" viewBox="0 0 73.328 80">
  <path id="パス_8931" data-name="パス 8931" d="M1452.663,2343.728a33.845,33.845,0,0,0-33.764,31.513,16.634,16.634,0,0,1-1.078,4.9l-4.543,11.688a1.455,1.455,0,0,0,1.236,1.978l8.176.682a1.461,1.461,0,0,1,1.327,1.263l.339,1.284-.734,2.665a5.7,5.7,0,0,1,1.192,1.341c.745,1.043.669,6.659.669,6.659l.322,1.5a2.425,2.425,0,0,0,2.425,2.106l11.342-.368a1.947,1.947,0,0,1,2.01,1.946V2422a1.732,1.732,0,0,0,1.732,1.732h26.541a1.732,1.732,0,0,0,1.732-1.732v-11.664a9.935,9.935,0,0,1,3.218-7.266c7.168-6.663,11.7-17.661,11.7-27.886C1486.507,2356.489,1471.354,2343.728,1452.663,2343.728Zm12.916,36.865a2.668,2.668,0,0,1-2.555-1.9l-4.518-.526a1.055,1.055,0,0,1-.219-.05,5.023,5.023,0,0,1-2.448,2.681,1.037,1.037,0,0,1,.11.256l1.76,6.665a3.125,3.125,0,1,1-2.041.538l-1.759-6.664a1.043,1.043,0,0,1-.031-.283c-.088,0-.175.013-.264.013a4.993,4.993,0,0,1-3.2-1.154c-.024.023-.044.049-.07.07l-3.389,2.744a5.011,5.011,0,1,1-1.327-1.642l3.388-2.743a1.065,1.065,0,0,1,.107-.07,4.984,4.984,0,0,1-.523-2.22,5.035,5.035,0,0,1,.082-.879,1,1,0,0,1-.15-.05l-6.709-3.058a3.124,3.124,0,1,1,.888-2.18c0,.087-.006.173-.013.259l6.709,3.058c.021.009.038.023.058.034a5.043,5.043,0,0,1,1.307-1.314,1.011,1.011,0,0,1-.056-.114l-2.649-6.654a2.664,2.664,0,1,1,1.962-.778l2.648,6.651c.013.032.018.064.028.1a4.9,4.9,0,0,1,2.523.184c0-.011.007-.022.012-.032l2.2-4.413a5.085,5.085,0,1,1,1.891.939l-2.2,4.415a1.025,1.025,0,0,1-.106.166,4.993,4.993,0,0,1,1.593,3.428,1.028,1.028,0,0,1,.134,0l4.519.526a2.667,2.667,0,1,1,2.31,4Z" transform="translate(-1413.178 -2343.728)" fill="#fff"/>
</svg>
