<svg xmlns="http://www.w3.org/2000/svg" width="108.613" height="108.6" viewBox="0 0 108.613 108.6">
  <g id="グループ_5244" data-name="グループ 5244" transform="translate(-21.096 -205.204)">
    <path id="パス_6465" data-name="パス 6465" d="M43.281,209.24A22.886,22.886,0,0,0,29.538,219.3a2.2,2.2,0,0,0,.7,3.04,2.168,2.168,0,0,0,1.169.34,2.191,2.191,0,0,0,1.871-1.042,18.513,18.513,0,0,1,11.088-8.112,2.21,2.21,0,0,0-1.088-4.283Z" transform="translate(38.311 16.596)" fill="#202360"/>
    <path id="パス_6466" data-name="パス 6466" d="M30.8,211.8a2.208,2.208,0,1,0,2.2,2.2A2.21,2.21,0,0,0,30.8,211.8Z" transform="translate(36.298 27.893)" fill="#202360"/>
    <path id="パス_6467" data-name="パス 6467" d="M117.206,217.707a42.768,42.768,0,0,0-67.755,50.765,4.4,4.4,0,0,0-.535.457c-1.327,1.322-5.551,5.551-6.879,6.874s-5.551,5.551-6.874,6.879-5.551,5.551-6.879,6.879-5.551,5.551-6.879,6.874c-2.812,2.818,14.343,19.81,17.074,17.074,0,0,26.183-26.183,27.51-27.5a4.89,4.89,0,0,0,.451-.535,42.768,42.768,0,0,0,50.765-67.76Zm-11.381,49.086a26.645,26.645,0,1,1,0-37.705A26.485,26.485,0,0,1,105.826,266.792Z" transform="translate(0 0)" fill="#202360"/>
  </g>
</svg>
