<svg xmlns="http://www.w3.org/2000/svg" width="168.892" height="133.715" viewBox="0 0 168.892 133.715">
  <g id="グループ_5246" data-name="グループ 5246" transform="translate(-117.576 -207.382)">
    <g id="グループ_5236" data-name="グループ 5236" transform="translate(117.576 207.382)">
      <path id="パス_6476" data-name="パス 6476" d="M182.309,244.692a28.958,28.958,0,0,0-.218-3.473l6.583-9.58-6.47-11.212-11.575.921a29.13,29.13,0,0,0-6.042-3.489L159.6,207.382h-12.94l-4.992,10.476a29.132,29.132,0,0,0-6.042,3.489l-11.575-.921-6.47,11.212,6.583,9.58a28.9,28.9,0,0,0,0,6.955l-6.583,9.572,6.47,11.212,11.575-.913a29.5,29.5,0,0,0,6.042,3.49l4.992,10.477H159.6l4.992-10.477a29.5,29.5,0,0,0,6.042-3.49l11.575.913,6.47-11.212-6.583-9.572A29.1,29.1,0,0,0,182.309,244.692ZM153.125,261.34a16.644,16.644,0,1,1,16.648-16.648A16.644,16.644,0,0,1,153.125,261.34Z" transform="translate(-117.576 -207.382)" fill="#202360"/>
    </g>
    <g id="グループ_5237" data-name="グループ 5237" transform="translate(215.362 231.946)">
      <path id="パス_6477" data-name="パス 6477" d="M194.415,247.733a29.053,29.053,0,0,0-.218-3.473l6.591-9.572-6.47-11.212-11.575.913A29.344,29.344,0,0,0,176.7,220.9l-4.992-10.476H158.761L153.769,220.9a29.066,29.066,0,0,0-6.034,3.489l-11.575-.913-6.478,11.212,6.591,9.572a27.83,27.83,0,0,0,0,6.955l-6.591,9.572L136.16,272l11.575-.913a29.053,29.053,0,0,0,6.034,3.49l4.992,10.477h12.948l4.992-10.477a29.33,29.33,0,0,0,6.042-3.49l11.575.913,6.47-11.212-6.591-9.572A29.082,29.082,0,0,0,194.415,247.733Zm-29.184,16.648a16.644,16.644,0,1,1,16.648-16.648A16.644,16.644,0,0,1,165.231,264.381Z" transform="translate(-129.682 -210.423)" fill="#202360"/>
    </g>
    <g id="グループ_5238" data-name="グループ 5238" transform="translate(151.881 269.7)">
      <path id="パス_6478" data-name="パス 6478" d="M184.311,235.921a30.1,30.1,0,0,0-1.955-2.884l.783-11.591L171.855,215.1l-9.491,6.688a29.181,29.181,0,0,0-6.971.081l-9.645-6.47L134.618,222l1.042,11.559a29.074,29.074,0,0,0-3.409,6.082l-10.428,5.113.145,12.94,10.549,4.879a28.76,28.76,0,0,0,1.583,3.1,29.157,29.157,0,0,0,1.963,2.884l-.784,11.591,11.284,6.349,9.491-6.688a29.176,29.176,0,0,0,6.971-.073l9.636,6.462,11.139-6.6-1.05-11.559a28.913,28.913,0,0,0,3.417-6.082l10.428-5.113-.154-12.94L185.9,239.023A30.41,30.41,0,0,0,184.311,235.921ZM167.7,265.113a16.643,16.643,0,1,1,5.832-22.8A16.654,16.654,0,0,1,167.7,265.113Z" transform="translate(-121.823 -215.097)" fill="#202360"/>
    </g>
  </g>
</svg>
