<svg xmlns="http://www.w3.org/2000/svg" width="111.861" height="29.886" viewBox="0 0 111.861 29.886">
  <g id="グループ_4119" data-name="グループ 4119" transform="translate(-1.185 -0.897)">
    <path id="パス_5211" data-name="パス 5211" d="M85.722,1.384A13.049,13.049,0,1,0,98.771,14.433,13.049,13.049,0,0,0,85.722,1.384m0,19.138a6.088,6.088,0,1,1,6.089-6.089,6.088,6.088,0,0,1-6.089,6.089" transform="translate(-47.803 -0.326)" fill="#e01f0f"/>
    <path id="パス_5212" data-name="パス 5212" d="M195.721,1.384a13.049,13.049,0,1,0,13.049,13.049A13.05,13.05,0,0,0,195.721,1.384m0,19.138a6.088,6.088,0,1,1,6.088-6.089,6.088,6.088,0,0,1-6.088,6.089" transform="translate(-121.358 -0.326)" fill="#e01f0f"/>
    <path id="パス_5213" data-name="パス 5213" d="M20.062,16.212a6.125,6.125,0,1,1,.043-4.343l5.141-5.114a13.128,13.128,0,1,0-.086,14.668Z" transform="translate(0)" fill="#e01f0f"/>
    <path id="パス_5214" data-name="パス 5214" d="M163.4,34.244a3.494,3.494,0,1,1-3.495-3.494,3.495,3.495,0,0,1,3.495,3.494" transform="translate(-103.799 -19.962)" fill="#e01f0f"/>
    <path id="パス_5215" data-name="パス 5215" d="M275.678,23.443A13.072,13.072,0,0,0,278,23.65c6.668,0,12.074-5,12.074-11.167S284.67,1.316,278,1.316s-12.074,5-12.074,11.167V31.063h7.1V16.554ZM278,17.369a4.928,4.928,0,1,1,4.928-4.928A4.928,4.928,0,0,1,278,17.369" transform="translate(-177.03 -0.28)" fill="#e01f0f"/>
  </g>
</svg>
