<svg id="レイヤー_1-2" data-name="レイヤー 1-2" xmlns="http://www.w3.org/2000/svg" width="141.902" height="28.788" viewBox="0 0 141.902 28.788">
  <path id="パス_1111" data-name="パス 1111" d="M100.43,51.961c0,5.509,3.976,9.8,10.262,9.8h5.8v-5.18h-5.278c-3.374,0-5.236-2-5.236-4.62s1.862-4.613,5.236-4.613h5.278V42.14h-5.8C104.406,42.14,100.43,46.459,100.43,51.961Z" transform="translate(-53.584 -33.25)" fill="#c03"/>
  <path id="パス_1112" data-name="パス 1112" d="M182.141,41.79a11,11,0,0,0-6.671,2.156A11,11,0,0,0,168.8,41.79a7.628,7.628,0,0,0-8.029,7.924v11.97h5.544V49.994c0-2,1.218-3,3.22-3s3.164,1.057,3.164,2.744V61.684h5.537V49.742c0-1.687,1.05-2.744,3.164-2.744,2,0,3.22.994,3.22,3v11.69h5.544V49.714A7.626,7.626,0,0,0,182.141,41.79Z" transform="translate(-71.686 -33.145)" fill="#c03"/>
  <path id="パス_1113" data-name="パス 1113" d="M217.612,41.79a9.926,9.926,0,1,0,.357,0Zm0,14.931a4.662,4.662,0,0,1-4.753-4.564,2.159,2.159,0,0,1,0-.3,4.76,4.76,0,0,1,9.52,0,4.662,4.662,0,0,1-4.452,4.858h-.308Z" transform="translate(-85.815 -33.145)" fill="#c03"/>
  <path id="パス_1114" data-name="パス 1114" d="M48.5,29.44v9.884a9.478,9.478,0,0,0-4.809-1.239,9.877,9.877,0,0,0-10.178,9.576v.5a9.891,9.891,0,0,0,9.7,10.066h.476c5,0,6.867-2.415,10.353-4.018V29.44Zm-9.45,18.711a4.669,4.669,0,0,1,4.459-4.858h.3a4.6,4.6,0,0,1,4.746,4.445v.539a4.613,4.613,0,0,1-4.48,4.739h-.28a4.662,4.662,0,0,1-4.76-4.564,2.163,2.163,0,0,1,.014-.3Z" transform="translate(-33.508 -29.44)" fill="#c03"/>
  <path id="パス_1115" data-name="パス 1115" d="M84.054,29.44v1.344H82.1v4.9H80.7v-4.9H78.72V29.44Z" transform="translate(-47.071 -29.44)" fill="#c03"/>
  <path id="パス_1116" data-name="パス 1116" d="M93.205,29.44v1.344h-1.96v4.9H89.8v-4.9H87.85V29.44Z" transform="translate(-49.81 -29.44)" fill="#c03"/>
  <path id="パス_1117" data-name="パス 1117" d="M70.346,29.44l2.8,3.99V29.44h1.4v6.223H73.02l-2.8-3.976v3.976h-1.4V29.44Z" transform="translate(-44.101 -29.44)" fill="#c03"/>
  <path id="パス_1118" data-name="パス 1118" d="M77.569,41.788a10.073,10.073,0,0,0-.532,20.139h.532A10.073,10.073,0,1,0,78.1,41.788Zm0,14.931a4.662,4.662,0,0,1-4.76-4.564,2.161,2.161,0,0,1,0-.3,4.76,4.76,0,0,1,9.52,0,4.662,4.662,0,0,1-4.452,4.858Z" transform="translate(-43.624 -33.143)" fill="#c03"/>
  <path id="パス_1119" data-name="パス 1119" d="M137.586,41.79a9.94,9.94,0,1,0,.357,0Zm0,14.931a4.662,4.662,0,0,1-4.739-4.564,2.163,2.163,0,0,1,0-.3,4.76,4.76,0,1,1,9.52,0h0a4.662,4.662,0,0,1-4.452,4.858h-.308Z" transform="translate(-61.803 -33.145)" fill="#c03"/>
</svg>
