<svg id="layer1" xmlns="http://www.w3.org/2000/svg" width="27.344" height="27.358" viewBox="0 0 27.344 27.358">
  <path id="path3007" d="M3.488,829.72a4.079,4.079,0,0,1-2.951-2.945c-.093-.368-.1-1.648-.087-10.784l.018-10.366.18-.462a4.088,4.088,0,0,1,2.517-2.511l.453-.177,10.236-.02c7.183-.014,10.369,0,10.681.055a4.361,4.361,0,0,1,2,1.021,4.185,4.185,0,0,1,1.071,1.632l.18.462v21.02l-.158.458a4.132,4.132,0,0,1-2.546,2.532l-.445.16-10.373.012c-8.809.01-10.434,0-10.777-.086Zm16.7-7.69a1.586,1.586,0,1,0-.622.127A1.8,1.8,0,0,0,20.193,822.03Zm-6.51-.132a3.055,3.055,0,0,0,2.567-3.227,2.686,2.686,0,0,0-1.887-2.835,2.107,2.107,0,0,0-.521-.112c-.247,0-.25-.108,0-.169a3.4,3.4,0,0,0,1.292-.74,2.151,2.151,0,0,0,.556-1.456,2.687,2.687,0,0,0-2.3-2.992c-.486-.134-.739-.146-3.52-.173l-3-.029V822.1L10,822.075c2.953-.027,3.164-.037,3.68-.177Zm-3.738-1.971c0-.033-.012-.626-.017-1.317l-.01-1.256,1.13.024c1.042.022,1.156.037,1.472.195a.939.939,0,0,1,.5.477,1.191,1.191,0,0,1-.7,1.757,9.239,9.239,0,0,1-2.372.121ZM9.9,814l.019-1.188.377-.022a5.621,5.621,0,0,1,1.878.249,1.271,1.271,0,0,1,.356,1.576c-.208.392-.6.517-1.7.547l-.943.025Zm11.076.148v-4.04H18.167v8.079h2.807Z" transform="translate(-0.444 -802.451)" fill="#202360"/>
</svg>
