<svg xmlns="http://www.w3.org/2000/svg" width="233.711" height="17.864" viewBox="0 0 233.711 17.864">
  <g id="グループ_1402" data-name="グループ 1402" transform="translate(-401.976 -5315.359)">
    <path id="パス_1515" data-name="パス 1515" d="M9.1,9.655,11,12.891,8.98,16.369,5.5,10.464,0,1H17.92L15.9,4.519H6.108L7.119,6.258h7.726l-1.982,3.4Z" transform="translate(401.976 5314.437)" fill="#171c61"/>
    <path id="パス_1516" data-name="パス 1516" d="M42.7,16.369l-2.023-3.478L47.637,1h4.045l-5.5,9.464Z" transform="translate(374.322 5314.437)" fill="#171c61"/>
    <path id="パス_1517" data-name="パス 1517" d="M65.257,10.464l-3.479,5.905-2.023-3.478L66.713,1h4.045Z" transform="translate(361.354 5314.437)" fill="#171c61"/>
    <path id="パス_1518" data-name="パス 1518" d="M429.273,5.973V9.4h5.7v2.273h-5.7v5.7H427V3.7h9.126V5.973Z" transform="translate(111.7 5312.601)" fill="#171c61"/>
    <path id="パス_1519" data-name="パス 1519" d="M469.733,15v2.273H462.4V3.6h2.273V15Z" transform="translate(87.635 5312.669)" fill="#171c61"/>
    <path id="パス_1520" data-name="パス 1520" d="M497.652,3.6l-5.123,7.2v6.468h-2.273V10.8L485.1,3.6h2.786l3.49,4.9,3.49-4.9Z" transform="translate(72.203 5312.669)" fill="#171c61"/>
    <path id="パス_1521" data-name="パス 1521" d="M541.593,17.817,537.3,6.546l-4.259,11.271L527.6,3.6h2.466l2.978,8.069,3.01-8.069h2.53l3.01,8.069L544.6,3.6h2.466Z" transform="translate(43.312 5312.669)" fill="#171c61"/>
    <path id="パス_1522" data-name="パス 1522" d="M603.746,3.6V17.272h-2.273v-5.7h-5.7v5.7H593.5V3.6h2.273V9.267h5.7V3.6Z" transform="translate(-1.487 5312.669)" fill="#171c61"/>
    <path id="パス_1523" data-name="パス 1523" d="M637.573,5.905V9.332h5.7V11.6h-5.7V15h6.852v2.273H635.3V3.6h9.126V5.873h-6.852Z" transform="translate(-29.903 5312.669)" fill="#171c61"/>
    <path id="パス_1524" data-name="パス 1524" d="M673.373,5.905V9.332h5.7V11.6h-5.7V15h6.852v2.273H671.1V3.6h9.126V5.873h-6.852Z" transform="translate(-54.24 5312.669)" fill="#171c61"/>
    <path id="パス_1525" data-name="パス 1525" d="M714.333,15v2.273H707V3.6h2.273V15Z" transform="translate(-78.645 5312.669)" fill="#171c61"/>
    <path id="パス_1526" data-name="パス 1526" d="M117.8,17.3V3.776h3.844a8.612,8.612,0,0,1,3.436.613A6.007,6.007,0,0,1,127.364,6a6.23,6.23,0,0,1,1.263,2.247,7.764,7.764,0,0,1,.409,2.47,6.634,6.634,0,0,1-.539,2.73,6.4,6.4,0,0,1-1.467,2.08,6.6,6.6,0,0,1-2.154,1.319,7.393,7.393,0,0,1-2.581.446Zm2.173-2.08H121.9a6.2,6.2,0,0,0,1.969-.3,4.622,4.622,0,0,0,1.541-.891,3.873,3.873,0,0,0,1.021-1.467,5.034,5.034,0,0,0,.371-1.987,4.953,4.953,0,0,0-.427-2.154,3.911,3.911,0,0,0-1.1-1.467,4.249,4.249,0,0,0-1.467-.836,5.079,5.079,0,0,0-1.579-.26h-2.266Z" transform="translate(321.895 5312.549)" fill="#171c61"/>
    <path id="パス_1527" data-name="パス 1527" d="M160.195,28.777a4.389,4.389,0,0,1-2.024-.464,3.427,3.427,0,0,1-1.411-1.374,4.615,4.615,0,0,1-.52-2.284,4.553,4.553,0,0,1,.539-2.284,3.978,3.978,0,0,1,1.449-1.486,3.9,3.9,0,0,1,1.969-.52,3.3,3.3,0,0,1,1.82.446,3.457,3.457,0,0,1,1.1,1.059l-.111.3.2-1.449h1.913v7.856h-2.08V26.66l.2.5a4.667,4.667,0,0,1-.3.371,4.821,4.821,0,0,1-.613.539,3.67,3.67,0,0,1-.929.5A3.288,3.288,0,0,1,160.195,28.777Zm.576-1.709a2.38,2.38,0,0,0,1-.2,2.136,2.136,0,0,0,.78-.576,2.222,2.222,0,0,0,.483-.891V23.688a2.089,2.089,0,0,0-.483-.836,2.276,2.276,0,0,0-.817-.576,2.556,2.556,0,0,0-1.04-.2,2.272,2.272,0,0,0-1.17.316,2.457,2.457,0,0,0-.873.873,2.555,2.555,0,0,0-.316,1.281,2.527,2.527,0,0,0,1.226,2.191A2.3,2.3,0,0,0,160.77,27.068Z" transform="translate(295.764 5301.272)" fill="#171c61"/>
    <path id="パス_1528" data-name="パス 1528" d="M191.254,10.678h2.1v3.454H195.4v1.634h-2.043v6.221h-2.1V15.767h-1.337V14.132h1.337Z" transform="translate(272.87 5307.857)" fill="#171c61"/>
    <path id="パス_1529" data-name="パス 1529" d="M214.756,28.777a4.388,4.388,0,0,1-2.024-.464,3.425,3.425,0,0,1-1.411-1.374,4.616,4.616,0,0,1-.52-2.284,4.549,4.549,0,0,1,.539-2.284,3.978,3.978,0,0,1,1.449-1.486,3.9,3.9,0,0,1,1.969-.52,3.3,3.3,0,0,1,1.82.446,3.457,3.457,0,0,1,1.1,1.059l-.111.3.2-1.449h1.913v7.856H217.6V26.66l.2.5a4.669,4.669,0,0,1-.3.371,4.819,4.819,0,0,1-.613.539,3.67,3.67,0,0,1-.929.5A3.289,3.289,0,0,1,214.756,28.777Zm.576-1.709a2.38,2.38,0,0,0,1-.2,2.141,2.141,0,0,0,.78-.576,2.227,2.227,0,0,0,.483-.891V23.688a2.093,2.093,0,0,0-.483-.836,2.277,2.277,0,0,0-.817-.576,2.557,2.557,0,0,0-1.04-.2,2.273,2.273,0,0,0-1.17.316,2.455,2.455,0,0,0-.873.873,2.552,2.552,0,0,0-.316,1.281,2.527,2.527,0,0,0,1.226,2.191A2.3,2.3,0,0,0,215.331,27.068Z" transform="translate(258.674 5301.272)" fill="#171c61"/>
    <path id="パス_1530" data-name="パス 1530" d="M246.508,3.776h2.173v11.44h6.667V17.3h-8.84Z" transform="translate(234.399 5312.549)" fill="#171c61"/>
    <path id="パス_1531" data-name="パス 1531" d="M281.313,28.777a4.389,4.389,0,0,1-2.024-.464,3.427,3.427,0,0,1-1.411-1.374,4.615,4.615,0,0,1-.52-2.284,4.553,4.553,0,0,1,.539-2.284,3.978,3.978,0,0,1,1.449-1.486,3.9,3.9,0,0,1,1.969-.52,3.3,3.3,0,0,1,1.82.446,3.457,3.457,0,0,1,1.1,1.059l-.111.3.2-1.449h1.913v7.856h-2.08V26.66l.2.5a4.665,4.665,0,0,1-.3.371,4.825,4.825,0,0,1-.613.539,3.671,3.671,0,0,1-.929.5A3.288,3.288,0,0,1,281.313,28.777Zm.576-1.709a2.38,2.38,0,0,0,1-.2,2.136,2.136,0,0,0,.78-.576,2.223,2.223,0,0,0,.483-.891V23.688a2.09,2.09,0,0,0-.483-.836,2.277,2.277,0,0,0-.817-.576,2.556,2.556,0,0,0-1.04-.2,2.273,2.273,0,0,0-1.17.316,2.457,2.457,0,0,0-.873.873,2.555,2.555,0,0,0-.316,1.281,2.527,2.527,0,0,0,1.226,2.191A2.3,2.3,0,0,0,281.888,27.068Z" transform="translate(213.428 5301.272)" fill="#171c61"/>
    <path id="パス_1532" data-name="パス 1532" d="M317.27,15.45a3.8,3.8,0,0,1-1.82-.409,3.9,3.9,0,0,1-1.244-1.077l.186-.539v1.82h-2.08V.76h2.08V9.006l-.037-.743a3.291,3.291,0,0,1,1.3-.873,4.83,4.83,0,0,1,1.894-.353,3.674,3.674,0,0,1,1.894.5,3.556,3.556,0,0,1,1.393,1.411,4.493,4.493,0,0,1,.52,2.229,4.377,4.377,0,0,1-.576,2.284,3.855,3.855,0,0,1-1.5,1.486A4.155,4.155,0,0,1,317.27,15.45Zm-.446-1.764a2.342,2.342,0,0,0,1.207-.316,2.371,2.371,0,0,0,.873-.91,2.541,2.541,0,0,0,.334-1.3A2.407,2.407,0,0,0,318.9,9.9a2.273,2.273,0,0,0-.873-.873,2.242,2.242,0,0,0-1.207-.334,2.877,2.877,0,0,0-1.1.2,2.464,2.464,0,0,0-.836.576,2.284,2.284,0,0,0-.5.836v1.746a2.728,2.728,0,0,0,.52.854,2.276,2.276,0,0,0,.817.576A2.877,2.877,0,0,0,316.824,13.686Z" transform="translate(189.666 5314.599)" fill="#171c61"/>
    <path id="パス_1533" data-name="パス 1533" d="M366.155,21.9a3.087,3.087,0,0,1-1.552-.384,3.224,3.224,0,0,1-1.061-.968l.169-.446v1.645h-1.429V9.848H363.7v6.993l-.046-.538a2.717,2.717,0,0,1,1.091-.845,3.724,3.724,0,0,1,1.6-.338,3.04,3.04,0,0,1,1.568.415,3,3,0,0,1,1.122,1.168,3.449,3.449,0,0,1,.43,1.767A3.52,3.52,0,0,1,369,20.315a3.093,3.093,0,0,1-1.2,1.183A3.454,3.454,0,0,1,366.155,21.9Zm-.292-1.214a2.126,2.126,0,0,0,1.107-.292,2.089,2.089,0,0,0,.768-.784,2.368,2.368,0,0,0,.277-1.153,2.126,2.126,0,0,0-.292-1.107,2.085,2.085,0,0,0-1.86-1.091,2.34,2.34,0,0,0-.968.2,2.148,2.148,0,0,0-.753.553,1.894,1.894,0,0,0-.43.8v1.276a2.261,2.261,0,0,0,.415.83,2.158,2.158,0,0,0,.738.569A2.416,2.416,0,0,0,365.863,20.683Z" transform="translate(155.695 5308.421)" fill="#171c61"/>
    <path id="パス_1534" data-name="パス 1534" d="M388.29,36.549l4.2-9.421h1.322l-4.1,9.421Zm1.568-3.012L386.8,27.128h1.614l2.567,5.687Z" transform="translate(139.029 5296.674)" fill="#171c61"/>
  </g>
</svg>
