<svg xmlns="http://www.w3.org/2000/svg" width="312.72" height="350.48" viewBox="0 0 312.72 350.48">
  <g id="グループ_11565" data-name="グループ 11565" transform="translate(-939.438 -3822)">
    <path id="パス_10982" data-name="パス 10982" d="M148.662,299.585h-.079l-1.454-.008.034-2.8,1.421.008h.076c4.755,0,9.563-.242,14.3-.719l.279,2.779A145.491,145.491,0,0,1,148.662,299.585Zm-5.558-.1a145.922,145.922,0,0,1-16.051-1.494l.414-2.765a142.419,142.419,0,0,0,15.741,1.463Zm24.135-1.094-.358-2.773a141.929,141.929,0,0,0,15.544-2.9l.665,2.714A143.946,143.946,0,0,1,167.239,298.39Zm-44.169-1.054a144.061,144.061,0,0,1-15.688-3.72l.8-2.68a140.691,140.691,0,0,0,15.38,3.65Zm63.923-2.92-.744-2.7a141.349,141.349,0,0,0,14.983-5.048l1.04,2.593A143.549,143.549,0,0,1,186.994,294.416Zm-83.455-2a144.752,144.752,0,0,1-15.023-5.885l1.167-2.542a141.656,141.656,0,0,0,14.724,5.769Zm102.444-4.7-1.11-2.565a142.038,142.038,0,0,0,14.115-7.094l1.4,2.424A145.007,145.007,0,0,1,205.982,287.717ZM84.869,284.794a144.131,144.131,0,0,1-14.047-7.926l1.508-2.356A142.166,142.166,0,0,0,86.1,282.285Zm138.974-6.367-1.457-2.382a143.069,143.069,0,0,0,13-9l1.716,2.207A144.876,144.876,0,0,1,223.843,278.427ZM67.456,274.639a145.419,145.419,0,0,1-12.8-9.808l1.821-2.119a141.678,141.678,0,0,0,12.554,9.614Zm172.785-7.9-1.776-2.159A143.577,143.577,0,0,0,250.1,253.869l2,1.95A146.251,146.251,0,0,1,240.241,266.741ZM51.633,262.164a144.007,144.007,0,0,1-11.319-11.48l2.1-1.852a142.283,142.283,0,0,0,11.1,11.26Zm203.235-9.276-2.06-1.894a142.229,142.229,0,0,0,10.037-12.221l2.258,1.652A146.368,146.368,0,0,1,254.869,252.889ZM37.687,247.624a145.839,145.839,0,0,1-9.617-12.934l2.334-1.542a143.688,143.688,0,0,0,9.431,12.686Zm229.757-10.49-2.3-1.587a142.047,142.047,0,0,0,8.238-13.5l2.466,1.322A144.248,144.248,0,0,1,267.445,237.133ZM25.9,231.3a145.141,145.141,0,0,1-7.723-14.146l2.528-1.2a141.928,141.928,0,0,0,7.57,13.87Zm251.8-11.516-2.5-1.251a141.583,141.583,0,0,0,6.268-14.518l2.627.964A143.586,143.586,0,0,1,277.7,219.783ZM16.5,213.495A144.376,144.376,0,0,1,10.83,198.4l2.669-.837a141.6,141.6,0,0,0,5.564,14.8Zm268.94-12.337-2.655-.885a141.428,141.428,0,0,0,4.174-15.259l2.734.583A144.329,144.329,0,0,1,285.444,201.158ZM9.68,194.535a144.81,144.81,0,0,1-3.5-15.736l2.756-.457a142.548,142.548,0,0,0,3.433,15.431Zm280.806-12.892-2.754-.5a141.727,141.727,0,0,0,2-15.685l2.79.2A145.3,145.3,0,0,1,290.486,181.643ZM5.59,174.811a145.083,145.083,0,0,1-1.274-16.068l2.8-.065a142.947,142.947,0,0,0,1.243,15.758Zm287.156-13.185-2.79-.121q.131-3.1.135-6.226c0-3.2-.1-6.418-.316-9.583l2.79-.189c.217,3.23.324,6.516.321,9.772Q292.887,158.466,292.746,161.626ZM7.073,155.279h-2.8a146.3,146.3,0,0,1,.885-16.094l2.782.307A142.8,142.8,0,0,0,7.073,155.279ZM289.451,141.75a141.894,141.894,0,0,0-2.365-15.631l2.734-.572a144.7,144.7,0,0,1,2.418,15.939ZM8.434,135.569l-2.768-.386a144.556,144.556,0,0,1,3.114-15.817l2.709.693A141.611,141.611,0,0,0,8.434,135.569Zm277.787-13.306a141.972,141.972,0,0,0-4.535-15.144l2.63-.953a144.037,144.037,0,0,1,4.625,15.448Zm-273.7-6.02-2.689-.769a144.934,144.934,0,0,1,5.3-15.231l2.587,1.068A140.792,140.792,0,0,0,12.524,116.243Zm267.759-12.821a140.317,140.317,0,0,0-6.609-14.36l2.472-1.311a144.421,144.421,0,0,1,6.742,14.645ZM19.3,97.663l-2.554-1.141A145.516,145.516,0,0,1,24.13,82.187l2.41,1.421A141.386,141.386,0,0,0,19.3,97.663ZM271.774,85.6a142.405,142.405,0,0,0-8.548-13.292l2.26-1.643a143.945,143.945,0,0,1,8.72,13.56ZM28.6,80.222,26.23,78.737a144.721,144.721,0,0,1,9.312-13.162l2.19,1.739A141.621,141.621,0,0,0,28.6,80.222ZM260.861,69.137a142.266,142.266,0,0,0-10.313-11.981l2.015-1.939a144.974,144.974,0,0,1,10.516,12.218ZM40.235,64.25l-2.142-1.8A145.6,145.6,0,0,1,49.142,50.707l1.925,2.026A142.4,142.4,0,0,0,40.235,64.25ZM247.76,54.343a143.644,143.644,0,0,0-11.874-10.437l1.728-2.2A146.848,146.848,0,0,1,249.722,52.35Zm-193.788-4.3L52.1,47.968a144.717,144.717,0,0,1,12.565-10.1l1.629,2.272A141.721,141.721,0,0,0,53.973,50.048Zm178.768-8.54a141.118,141.118,0,0,0-13.207-8.692l1.4-2.418a144.337,144.337,0,0,1,13.472,8.864Zm-163.2-3.619-1.564-2.32a144.573,144.573,0,0,1,13.844-8.253l1.294,2.477A141.983,141.983,0,0,0,69.536,37.889Zm146.539-7.018a141.393,141.393,0,0,0-14.293-6.759l1.051-2.593a143.759,143.759,0,0,1,14.58,6.9ZM86.63,28.018,85.4,25.5a145.233,145.233,0,0,1,14.865-6.243L101.2,21.9A140.49,140.49,0,0,0,86.63,28.018Zm111.457-5.347a140.311,140.311,0,0,0-15.1-4.69l.676-2.714a143.859,143.859,0,0,1,15.409,4.783Zm-93.134-2.046-.862-2.661a143.539,143.539,0,0,1,15.6-4.1l.555,2.742A140.166,140.166,0,0,0,104.953,20.626Zm74.18-3.548a142.377,142.377,0,0,0-15.606-2.528l.29-2.779a143.767,143.767,0,0,1,15.916,2.576Zm-55.006-1.2-.479-2.754a143.943,143.943,0,0,1,16.012-1.874l.169,2.793A141.787,141.787,0,0,0,124.128,15.874Zm35.459-1.683a147.023,147.023,0,0,0-15.809-.341l-.087-2.8a148.38,148.38,0,0,1,16.11.352Z" transform="translate(947.215 3841.961)" fill="#20245c"/>
    <g id="グループ_9184" data-name="グループ 9184" transform="matrix(1, 0.017, -0.017, 1, 1011.766, 3911.16)">
      <g id="グループ_9181" data-name="グループ 9181" transform="translate(110.003 0.886)">
        <path id="パス_10983" data-name="パス 10983" d="M45.894,194.018A87.885,87.885,0,0,0,26.02,32.488l-.879,3.261A84.627,84.627,0,0,1,87.514,117.3a84.656,84.656,0,0,1-43.272,73.771Z" transform="translate(-25.141 -32.488)" fill="#202360"/>
        <g id="グループ_9180" data-name="グループ 9180" transform="translate(11.209 153.052)">
          <path id="パス_10984" data-name="パス 10984" d="M53.172,98.829l-13.452-.775,7.4-11.263Z" transform="translate(-39.721 -86.791)" fill="#202360"/>
        </g>
      </g>
      <g id="グループ_9183" data-name="グループ 9183" transform="translate(0)">
        <path id="パス_10985" data-name="パス 10985" d="M121.26,196.342l1.311-3.114A84.517,84.517,0,0,1,124.1,36.734L122.852,33.6a87.892,87.892,0,0,0-1.592,162.745Z" transform="translate(-67.373 -29.586)" fill="#202360"/>
        <g id="グループ_9182" data-name="グループ 9182" transform="translate(52.073)">
          <path id="パス_10986" data-name="パス 10986" d="M64.327,32.174l13.237,2.516L68.769,44.9Z" transform="translate(-64.327 -32.174)" fill="#202360"/>
        </g>
      </g>
    </g>
    <g id="グループ_9205" data-name="グループ 9205" transform="translate(1066.385 3960.016)">
      <g id="グループ_9187" data-name="グループ 9187" transform="translate(1.708)">
        <g id="グループ_9185" data-name="グループ 9185">
          <path id="パス_10987" data-name="パス 10987" d="M86.743,65.308,84.679,64.07a1.2,1.2,0,0,0-1.635.4A24.539,24.539,0,0,1,55.463,75.415a1.2,1.2,0,0,0-1.412.685l-.958,2.232a1.2,1.2,0,0,0,.775,1.626,29.49,29.49,0,0,0,33.281-13,1.2,1.2,0,0,0,.144-.913A1.191,1.191,0,0,0,86.743,65.308Z" transform="translate(-32.284 -21.815)" fill="#1c2a54"/>
          <path id="パス_10988" data-name="パス 10988" d="M75.286,48.968a29.62,29.62,0,0,0-14.952,55.2,1.2,1.2,0,0,0,.606.166,1.212,1.212,0,0,0,.375-.059,1.193,1.193,0,0,0,.727-.668L63,101.375a1.2,1.2,0,0,0-.482-1.5,24.816,24.816,0,0,1,12.768-46.11A24.956,24.956,0,0,1,96.721,66.11a1.2,1.2,0,0,0,1.649.423l2.063-1.237a1.2,1.2,0,0,0,.42-1.635A29.767,29.767,0,0,0,75.286,48.968Z" transform="translate(-45.647 -48.968)" fill="#1c2a54"/>
        </g>
        <g id="グループ_9186" data-name="グループ 9186" transform="translate(13.281 12.648)">
          <path id="パス_10989" data-name="パス 10989" d="M82.357,70.819c0-.124.006-.248.006-.372s0-.248-.006-.372l1.158-1.065a1.357,1.357,0,0,0,.428-1.223h0A16.9,16.9,0,0,0,82.3,62.733,1.365,1.365,0,0,0,81.238,62l-1.567-.18c-.141-.206-.285-.406-.434-.6l.31-1.547a1.358,1.358,0,0,0-.372-1.24,17.023,17.023,0,0,0-4.3-3.12,1.367,1.367,0,0,0-1.294.025l-1.373.775c-.234-.085-.474-.161-.707-.231l-.654-1.432a1.378,1.378,0,0,0-1.034-.786,17.2,17.2,0,0,0-5.31,0,1.35,1.35,0,0,0-1.029.784l-.657,1.432c-.237.07-.474.147-.71.231l-1.37-.772a1.345,1.345,0,0,0-1.294-.028,16.924,16.924,0,0,0-4.3,3.12,1.37,1.37,0,0,0-.375,1.24l.313,1.545c-.149.2-.3.4-.434.6l-1.567.178a1.37,1.37,0,0,0-1.063.738,16.888,16.888,0,0,0-1.646,5.056,1.374,1.374,0,0,0,.428,1.22l1.161,1.065c0,.124-.006.248-.006.372s0,.248.006.372L50.8,71.884a1.371,1.371,0,0,0-.428,1.223,16.854,16.854,0,0,0,1.646,5.051,1.357,1.357,0,0,0,1.063.738l1.567.18c.138.206.285.406.434.6l-.313,1.55a1.367,1.367,0,0,0,.375,1.237,16.98,16.98,0,0,0,4.3,3.12,1.359,1.359,0,0,0,1.294-.025l1.373-.775c.234.085.471.161.707.231l.657,1.432a1.372,1.372,0,0,0,1.032.786,17.2,17.2,0,0,0,5.3,0,1.362,1.362,0,0,0,1.034-.784l.657-1.435c.234-.07.474-.147.707-.231l1.373.775a1.359,1.359,0,0,0,1.294.025,17.03,17.03,0,0,0,4.3-3.12,1.367,1.367,0,0,0,.375-1.24l-.313-1.545c.149-.2.293-.4.434-.6l1.564-.18a1.361,1.361,0,0,0,1.065-.738A16.845,16.845,0,0,0,83.947,73.1a1.363,1.363,0,0,0-.428-1.22Zm-15.2,13A13.377,13.377,0,1,1,80.536,70.447,13.375,13.375,0,0,1,67.16,83.824Z" transform="translate(-50.359 -53.455)" fill="#1c2a54"/>
          <path id="パス_10990" data-name="パス 10990" d="M57.837,58.649A2.353,2.353,0,1,0,60.19,61,2.352,2.352,0,0,0,57.837,58.649Z" transform="translate(-41.036 -44.011)" fill="#1c2a54"/>
        </g>
      </g>
      <g id="グループ_9204" data-name="グループ 9204" transform="translate(0 65.504)">
        <g id="グループ_9190" data-name="グループ 9190" transform="translate(0 0.025)">
          <g id="グループ_9188" data-name="グループ 9188" transform="translate(3.377 6.86)">
            <path id="パス_10991" data-name="パス 10991" d="M47.571,76.745a4.2,4.2,0,0,1-1.1-.152l-.158.364a4.618,4.618,0,0,0,5.209-2.032l-.338-.2A4.236,4.236,0,0,1,47.571,76.745Z" transform="translate(-46.114 -74.526)" fill="#1c2a54"/>
            <path id="パス_10992" data-name="パス 10992" d="M47.7,77.456a4.785,4.785,0,0,1-1.313-.186.193.193,0,0,1-.124-.1.189.189,0,0,1,0-.161l.155-.364a.2.2,0,0,1,.231-.113,4,4,0,0,0,4.5-1.784.2.2,0,0,1,.268-.065l.335.2a.206.206,0,0,1,.09.121.212.212,0,0,1-.023.149A4.806,4.806,0,0,1,47.7,77.456Zm0-.392h0Zm3.67-1.953a4.414,4.414,0,0,1-3.67,1.953,4.406,4.406,0,0,0,3.67-1.953ZM47.69,77.065h0Zm-.986-.116a4.383,4.383,0,0,0,.986.116,4.421,4.421,0,0,1-.986-.116Z" transform="translate(-46.239 -74.652)" fill="#1c2a54"/>
          </g>
          <g id="グループ_9189" data-name="グループ 9189">
            <path id="パス_10993" data-name="パス 10993" d="M47.565,80.559a4.242,4.242,0,1,1,5.846-5.772l.335-.2a4.633,4.633,0,1,0-6.336,6.336Z" transform="translate(-44.916 -72.093)" fill="#1c2a54"/>
            <path id="パス_10994" data-name="パス 10994" d="M47.535,81.243a.2.2,0,0,1-.1-.025,4.829,4.829,0,1,1,6.6-6.6.193.193,0,0,1-.068.265l-.335.2a.2.2,0,0,1-.149.02.2.2,0,0,1-.121-.09,4.045,4.045,0,0,0-7.542,2.038,4.019,4.019,0,0,0,1.967,3.467.194.194,0,0,1,.079.245l-.158.364a.184.184,0,0,1-.118.11A.215.215,0,0,1,47.535,81.243Zm-.51-.792c.132.11.273.214.42.313v0A4.61,4.61,0,0,1,47.025,80.451Zm-1.592-3.4h0Zm4.442-4.439A4.455,4.455,0,0,1,53.6,74.648l0,0A4.464,4.464,0,0,0,49.875,72.61Z" transform="translate(-45.041 -72.218)" fill="#1c2a54"/>
          </g>
        </g>
        <g id="グループ_9193" data-name="グループ 9193" transform="translate(42.451 0.009)">
          <g id="グループ_9191" data-name="グループ 9191" transform="translate(2.955 1.564)">
            <rect id="長方形_3442" data-name="長方形 3442" width="0.468" height="7.741" transform="translate(0.196 0.196)" fill="#1c2a54"/>
            <path id="パス_10995" data-name="パス 10995" d="M61.816,80.9h-.468a.2.2,0,0,1-.2-.194V72.961a.2.2,0,0,1,.2-.194h.468a.2.2,0,0,1,.194.194V80.7A.2.2,0,0,1,61.816,80.9Zm-.273-.392h.076V73.159h-.076Z" transform="translate(-61.151 -72.767)" fill="#1c2a54"/>
          </g>
          <g id="グループ_9192" data-name="グループ 9192">
            <rect id="長方形_3443" data-name="長方形 3443" width="6.378" height="0.391" transform="translate(0.195 0.196)" fill="#1c2a54"/>
            <rect id="長方形_3444" data-name="長方形 3444" width="6.769" height="0.782" rx="0.195" fill="#1c2a54"/>
          </g>
        </g>
        <g id="グループ_9196" data-name="グループ 9196" transform="translate(33.164 0.025)">
          <g id="グループ_9194" data-name="グループ 9194" transform="translate(1.994)">
            <path id="パス_10996" data-name="パス 10996" d="M59.579,72.287l-1.995,4.636h.432l1.764-4.1L63.54,81.56h.432l-3.989-9.273Z" transform="translate(-57.389 -72.092)" fill="#1c2a54"/>
            <path id="パス_10997" data-name="パス 10997" d="M64.1,81.883h-.434a.2.2,0,0,1-.178-.118l-3.579-8.323-1.587,3.687a.2.2,0,0,1-.178.118h-.434a.2.2,0,0,1-.163-.09.192.192,0,0,1-.014-.183l1.993-4.636a.194.194,0,0,1,.18-.118h.4a.194.194,0,0,1,.18.118l3.988,9.273a.185.185,0,0,1-.014.183A.2.2,0,0,1,64.1,81.883Zm-.3-.392H63.8l-3.819-8.884h-.147l-1.826,4.247h.006l1.714-3.985a.2.2,0,0,1,.358,0Z" transform="translate(-57.515 -72.218)" fill="#1c2a54"/>
          </g>
          <g id="グループ_9195" data-name="グループ 9195" transform="translate(0 5.809)">
            <path id="パス_10998" data-name="パス 10998" d="M62.06,74.355H58.8l0-.007h-.432l0,.007-.168.391-1.319,3.066h.432l1.319-3.066h3.6Z" transform="translate(-56.682 -74.153)" fill="#1c2a54"/>
            <path id="パス_10999" data-name="パス 10999" d="M57.435,78.135H57a.2.2,0,0,1-.18-.273L58.311,74.4a.207.207,0,0,1,.18-.124h.434l.048.006h3.213a.2.2,0,0,1,.178.118l.169.392a.2.2,0,0,1-.18.273h-3.47l-1.268,2.948A.2.2,0,0,1,57.435,78.135Zm-.135-.392h.006l1.268-2.948a.194.194,0,0,1,.18-.118h.169l-.051-.006h-.251Z" transform="translate(-56.807 -74.279)" fill="#1c2a54"/>
          </g>
        </g>
        <g id="グループ_9199" data-name="グループ 9199" transform="translate(50.013 0.025)">
          <g id="グループ_9197" data-name="グループ 9197" transform="translate(1.995)">
            <path id="パス_11000" data-name="パス 11000" d="M65.557,72.287l-1.995,4.636h.432l1.764-4.1,3.759,8.738h.432l-3.989-9.273Z" transform="translate(-63.368 -72.092)" fill="#1c2a54"/>
            <path id="パス_11001" data-name="パス 11001" d="M70.076,81.883h-.434a.2.2,0,0,1-.178-.118l-3.579-8.323L64.3,77.128a.2.2,0,0,1-.18.118h-.434a.188.188,0,0,1-.161-.09.193.193,0,0,1-.017-.183L65.5,72.336a.194.194,0,0,1,.18-.118h.406a.193.193,0,0,1,.178.118l3.991,9.273a.193.193,0,0,1-.017.183A.2.2,0,0,1,70.076,81.883Zm-.3-.392h.008l-3.822-8.884h-.147l-1.826,4.247h.006L65.7,72.869a.207.207,0,0,1,.361,0Z" transform="translate(-63.493 -72.218)" fill="#1c2a54"/>
          </g>
          <g id="グループ_9198" data-name="グループ 9198" transform="translate(0 5.809)">
            <path id="パス_11002" data-name="パス 11002" d="M68.038,74.355H64.774l0-.007h-.432l0,.007-.168.391-1.319,3.066h.432l1.319-3.066h3.6Z" transform="translate(-62.659 -74.153)" fill="#1c2a54"/>
            <path id="パス_11003" data-name="パス 11003" d="M63.413,78.135h-.431a.2.2,0,0,1-.18-.273L64.289,74.4a.207.207,0,0,1,.18-.124H64.9l.051.006h3.21a.2.2,0,0,1,.18.118l.166.392a.2.2,0,0,1-.18.273h-3.47l-1.268,2.948A.2.2,0,0,1,63.413,78.135Zm-.135-.392h.008l1.265-2.948a.194.194,0,0,1,.18-.118H64.9l-.051-.006H64.6Z" transform="translate(-62.785 -74.279)" fill="#1c2a54"/>
          </g>
        </g>
        <g id="グループ_9202" data-name="グループ 9202" transform="translate(23.529)">
          <g id="グループ_9200" data-name="グループ 9200" transform="translate(6.378)">
            <path id="パス_11004" data-name="パス 11004" d="M56.112,79.465V72.279h-.391v6.613Z" transform="translate(-55.526 -72.082)" fill="#1c2a54"/>
            <path id="パス_11005" data-name="パス 11005" d="M56.238,79.788a.2.2,0,0,1-.161-.085l-.392-.575a.194.194,0,0,1-.034-.11V72.406a.2.2,0,0,1,.2-.2h.389a.2.2,0,0,1,.2.2v7.184a.2.2,0,0,1-.138.189A.214.214,0,0,1,56.238,79.788Z" transform="translate(-55.652 -72.209)" fill="#1c2a54"/>
          </g>
          <g id="グループ_9201" data-name="グループ 9201">
            <path id="パス_11006" data-name="パス 11006" d="M58.937,79.654,53.89,72.278h-.432V81.6h.391v-8.69l5.912,8.64h.466v0Z" transform="translate(-53.263 -72.083)" fill="#1c2a54"/>
            <path id="パス_11007" data-name="パス 11007" d="M53.975,81.921h-.389a.2.2,0,0,1-.2-.194V72.4a.2.2,0,0,1,.2-.194h.431a.193.193,0,0,1,.161.085l5.048,7.376h0l1.291,1.9a.21.21,0,0,1,.034.11.2.2,0,0,1-.2.2h-.465a.2.2,0,0,1-.161-.085l-5.555-8.12v8.058A.2.2,0,0,1,53.975,81.921Zm-.194-.389V73.038a.2.2,0,0,1,.352-.116l-.22-.321h-.132Z" transform="translate(-53.389 -72.209)" fill="#1c2a54"/>
          </g>
        </g>
        <g id="グループ_9203" data-name="グループ 9203" transform="translate(11.501 0.025)">
          <path id="パス_11008" data-name="パス 11008" d="M58.551,77.458l-.333-.3,0-.107,0-.1.333-.3a.388.388,0,0,0,.121-.347h0a4.8,4.8,0,0,0-.468-1.437.386.386,0,0,0-.3-.209l-.445-.054c-.042-.056-.082-.113-.124-.169l.087-.44a.394.394,0,0,0-.1-.352,4.821,4.821,0,0,0-1.223-.888.39.39,0,0,0-.369.008l-.389.22q-.1-.038-.2-.068l-.186-.406a.386.386,0,0,0-.293-.223,4.831,4.831,0,0,0-1.508,0,.386.386,0,0,0-.293.223l-.189.406c-.065.02-.132.042-.2.068l-.389-.22a.382.382,0,0,0-.369-.008,4.821,4.821,0,0,0-1.223.888.392.392,0,0,0-.1.352l.087.44c-.042.056-.085.113-.124.169l-.445.051a.4.4,0,0,0-.3.211,4.83,4.83,0,0,0-.468,1.437.388.388,0,0,0,.121.347l.33.3v.211l-.33.3a.388.388,0,0,0-.121.347,4.8,4.8,0,0,0,.468,1.437.389.389,0,0,0,.3.211l.445.051c.039.056.082.116.124.169l-.087.442a.4.4,0,0,0,.1.352,4.88,4.88,0,0,0,1.223.885.39.39,0,0,0,.369-.006l.389-.22c.068.023.135.045.2.065l.189.406a.389.389,0,0,0,.293.225,4.831,4.831,0,0,0,1.508,0,.386.386,0,0,0,.293-.223l.186-.409c.068-.02.135-.042.2-.065l.389.22a.39.39,0,0,0,.369.006,4.879,4.879,0,0,0,1.223-.885.4.4,0,0,0,.1-.352l-.087-.44c.042-.056.082-.116.124-.172l.445-.051a.389.389,0,0,0,.3-.211,4.8,4.8,0,0,0,.468-1.437A.388.388,0,0,0,58.551,77.458Zm-4.653,3.4a3.8,3.8,0,1,1,3.8-3.8A3.8,3.8,0,0,1,53.9,80.854Z" transform="translate(-49.121 -72.218)" fill="#1c2a54"/>
          <ellipse id="楕円形_1220" data-name="楕円形 1220" cx="0.669" cy="0.669" rx="0.669" ry="0.669" transform="translate(4.109 4.162)" fill="#1c2a54"/>
        </g>
      </g>
    </g>
    <g id="AI" transform="translate(1089.234 3908.846)">
      <g id="グループ_9206" data-name="グループ 9206" style="isolation: isolate">
        <path id="パス_11009" data-name="パス 11009" d="M57.525,41.489a.465.465,0,0,0-.513.369c-.124.335-.265.674-.53,1.466-.158.426-.248.493-.7.493H53.554c-.285,0-.406-.034-.406-.175a.818.818,0,0,1,.1-.3c.654-1.463,1.006-2.258,1.3-2.962l2.6-6.091c.335-.812.758-1.781,1.218-2.982.178-.423.265-.493.722-.493h1.4c.459,0,.55.07.724.493.459,1.2.882,2.207,1.2,2.931l2.593,6.068c.335.778.688,1.573,1.342,3.036a.785.785,0,0,1,.107.3c0,.141-.124.175-.406.175h-2.4c-.459,0-.547-.068-.7-.493-.268-.792-.406-1.13-.53-1.466-.107-.3-.194-.369-.513-.369Zm.792-2.895a.833.833,0,0,0-.07.3c0,.158.124.192.406.192h2.117c.285,0,.406-.034.406-.192a.819.819,0,0,0-.068-.3l-1.2-3c-.054-.144-.124-.211-.194-.211s-.144.068-.194.211Z" transform="translate(-53.148 -30.813)" fill="#20245c"/>
        <path id="パス_11010" data-name="パス 11010" d="M58.9,43.817c-.406,0-.513-.068-.513-.44,0-.124.054-2.153.054-3.089V34.342c0-.933-.054-2.965-.054-3.086,0-.372.107-.443.513-.443h2.08c.409,0,.513.07.513.443,0,.121-.054,2.153-.054,3.086v5.947c0,.936.054,2.965.054,3.089,0,.372-.1.44-.513.44Z" transform="translate(-43.614 -30.813)" fill="#20245c"/>
      </g>
    </g>
    <g id="AI-2" data-name="AI" transform="translate(1074.508 4070.965)">
      <g id="グループ_9207" data-name="グループ 9207" style="isolation: isolate">
        <path id="パス_11011" data-name="パス 11011" d="M50.908,101.374c-.815,0-2.365.037-2.492.037-.366,0-.493-.127-.493-.5,0-.124.054-2.083.054-3.019V91.845c0-.936-.054-2.895-.054-3.019,0-.369.127-.493.493-.493.127,0,1.677.034,2.492.034H53.87c3.25,0,5.541,1.979,5.541,6.161,0,4.693-2.875,6.846-6.246,6.846Zm.07-3.16c0,.44.087.53.527.53h1.59c1.959,0,3.264-1.342,3.264-4.042,0-2.083-.916-3.563-2.771-3.563H51.505c-.44,0-.527.087-.527.527Z" transform="translate(-47.923 -88.333)" fill="#20245c"/>
        <path id="パス_11012" data-name="パス 11012" d="M56.505,99.024a.463.463,0,0,0-.513.369c-.124.335-.265.671-.527,1.466-.161.423-.248.493-.707.493H52.534c-.282,0-.406-.037-.406-.178a.809.809,0,0,1,.1-.3c.654-1.466,1.006-2.26,1.308-2.965l2.593-6.088c.335-.815.761-1.784,1.22-2.985.175-.42.262-.493.722-.493h1.392c.459,0,.55.073.724.493.459,1.2.882,2.207,1.2,2.931l2.593,6.071c.338.775.691,1.57,1.342,3.036a.777.777,0,0,1,.107.3c0,.141-.124.178-.406.178h-2.4c-.459,0-.55-.07-.707-.493-.265-.795-.406-1.13-.53-1.466-.1-.3-.192-.369-.513-.369ZM57.3,96.13a.821.821,0,0,0-.07.3c0,.161.127.194.409.194h2.117c.282,0,.406-.034.406-.194a.821.821,0,0,0-.07-.3l-1.2-3c-.054-.141-.124-.211-.194-.211s-.141.07-.194.211Z" transform="translate(-40.276 -88.311)" fill="#20245c"/>
        <path id="パス_11013" data-name="パス 11013" d="M63.288,97.845c0,.936.054,2.962.054,3.089,0,.369-.107.44-.513.44H60.746c-.406,0-.51-.07-.51-.44,0-.127.051-2.153.051-3.089V91.684c0-.44-.087-.527-.527-.527h-.372c-.637,0-2.258.034-2.384.034-.369,0-.44-.1-.44-.51V88.843c0-.4.07-.51.44-.51.127,0,1.908.034,2.74.034h4.092c.829,0,2.613-.034,2.734-.034.372,0,.443.107.443.51v1.838c0,.406-.07.51-.443.51-.121,0-1.745-.034-2.382-.034h-.369c-.443,0-.53.087-.53.527Z" transform="translate(-32.211 -88.333)" fill="#20245c"/>
        <path id="パス_11014" data-name="パス 11014" d="M64.373,99.024a.464.464,0,0,0-.513.369c-.121.335-.265.671-.527,1.466-.161.423-.248.493-.707.493H60.4c-.285,0-.409-.037-.409-.178a.777.777,0,0,1,.107-.3c.651-1.466,1.006-2.26,1.3-2.965L64,91.823c.333-.815.758-1.784,1.218-2.985.178-.42.265-.493.722-.493h1.4c.459,0,.547.073.724.493.459,1.2.882,2.207,1.2,2.931l2.593,6.071c.335.775.688,1.57,1.339,3.036a.748.748,0,0,1,.11.3c0,.141-.127.178-.409.178H70.5c-.459,0-.547-.07-.707-.493-.265-.795-.406-1.13-.527-1.466-.107-.3-.194-.369-.513-.369Zm.795-2.895a.766.766,0,0,0-.07.3c0,.161.124.194.406.194H67.62c.282,0,.406-.034.406-.194a.766.766,0,0,0-.07-.3l-1.2-3c-.054-.141-.121-.211-.192-.211s-.144.07-.194.211Z" transform="translate(-25.968 -88.311)" fill="#20245c"/>
      </g>
    </g>
    <g id="グループ_9210" data-name="グループ 9210" transform="translate(1061.482 4103.849)">
      <ellipse id="楕円形_1221" data-name="楕円形 1221" cx="34.316" cy="34.316" rx="34.316" ry="34.316" fill="#202360"/>
      <g id="グループ_9209" data-name="グループ 9209" transform="translate(18.365 18.362)">
        <path id="パス_11015" data-name="パス 11015" d="M57.334,108.811a1.14,1.14,0,0,0-1.437,1.77,6.314,6.314,0,0,1,.482.434,1.14,1.14,0,1,0,1.612-1.612C57.78,109.194,57.56,109,57.334,108.811Z" transform="translate(-39.524 -102.802)" fill="#fff"/>
        <path id="パス_11016" data-name="パス 11016" d="M60.992,108.088a8.392,8.392,0,0,0-7.249,14.222,1.139,1.139,0,1,0,1.609-1.612,6.112,6.112,0,0,1,5.285-10.358,1.14,1.14,0,0,0,.355-2.252Z" transform="translate(-47.142 -103.841)" fill="#fff"/>
        <path id="パス_11017" data-name="パス 11017" d="M81.339,136.43l-9.887-8.788a12.6,12.6,0,1,0-1.722,1.516l10.1,8.974a1.139,1.139,0,0,0,1.514-1.7ZM52.094,119.049a10.255,10.255,0,1,1,10.256,10.256A10.266,10.266,0,0,1,52.094,119.049Z" transform="translate(-49.817 -106.515)" fill="#fff"/>
      </g>
    </g>
    <g id="グループ_9212" data-name="グループ 9212" transform="translate(939.438 3892.462)">
      <ellipse id="楕円形_1222" data-name="楕円形 1222" cx="34.316" cy="34.316" rx="34.316" ry="34.316" transform="translate(0 0)" fill="#202360"/>
      <g id="グループ_9211" data-name="グループ 9211" transform="translate(16.229 16.229)">
        <path id="パス_11018" data-name="パス 11018" d="M23.844,30.758A18.086,18.086,0,1,0,41.93,48.844,18.108,18.108,0,0,0,23.844,30.758Zm0,33.591a15.5,15.5,0,1,1,15.5-15.5A15.521,15.521,0,0,1,23.844,64.349Z" transform="translate(-5.758 -30.758)" fill="#fff"/>
        <path id="パス_11019" data-name="パス 11019" d="M17.176,32.133a1.291,1.291,0,0,0-1.291,1.294V45.876L9.724,53.269a1.293,1.293,0,0,0,1.987,1.654l6.46-7.751a1.3,1.3,0,0,0,.3-.829V33.427A1.292,1.292,0,0,0,17.176,32.133Z" transform="translate(0.91 -28.258)" fill="#fff"/>
      </g>
    </g>
    <g id="グループ_9214" data-name="グループ 9214" transform="translate(1183.525 3892.462)">
      <ellipse id="楕円形_1223" data-name="楕円形 1223" cx="34.316" cy="34.316" rx="34.316" ry="34.316" transform="translate(0 0)" fill="#202360"/>
      <g id="グループ_9213" data-name="グループ 9213" transform="translate(18.933 18.536)">
        <path id="パス_11020" data-name="パス 11020" d="M100.158,37.922h-5.7a1.14,1.14,0,0,0-1.139,1.141V50.456A1.14,1.14,0,0,0,94.459,51.6h5.7a1.14,1.14,0,0,0,1.139-1.141V39.063A1.14,1.14,0,0,0,100.158,37.922Zm-1.139,11.4H95.6V40.2h3.419Z" transform="translate(-93.32 -20.037)" fill="#fff"/>
        <path id="パス_11021" data-name="パス 11021" d="M104.2,35.9H98.5a1.139,1.139,0,0,0-1.139,1.139V54.131A1.14,1.14,0,0,0,98.5,55.272h5.7a1.14,1.14,0,0,0,1.139-1.141V37.04A1.139,1.139,0,0,0,104.2,35.9Zm-1.141,17.091H99.64V38.181h3.419Z" transform="translate(-85.968 -23.712)" fill="#fff"/>
        <path id="パス_11022" data-name="パス 11022" d="M108.241,33.88h-5.7a1.136,1.136,0,0,0-1.139,1.139V57.806a1.138,1.138,0,0,0,1.139,1.141h5.7a1.14,1.14,0,0,0,1.142-1.141V35.019A1.138,1.138,0,0,0,108.241,33.88ZM107.1,56.667h-3.419V36.157H107.1Z" transform="translate(-78.616 -27.388)" fill="#fff"/>
        <path id="パス_11023" data-name="パス 11023" d="M113.3,33.311a1.112,1.112,0,0,0-.161-.347c-.011-.017-.011-.039-.025-.056s-.037-.028-.054-.048a1.16,1.16,0,0,0-.273-.251,1.143,1.143,0,0,0-.42-.152l-5.629-.868a1.141,1.141,0,0,0-.347,2.255l2.911.448L94.629,45.053a1.14,1.14,0,0,0,1.35,1.838L110.652,36.13l-.448,2.911a1.142,1.142,0,0,0,.953,1.3,1.25,1.25,0,0,0,.175.014,1.138,1.138,0,0,0,1.125-.967l.865-5.631A1.081,1.081,0,0,0,113.3,33.311Z" transform="translate(-91.785 -31.576)" fill="#fff"/>
      </g>
    </g>
    <g id="グループ_9216" data-name="グループ 9216" transform="translate(1061.482 3822)">
      <ellipse id="楕円形_1224" data-name="楕円形 1224" cx="34.316" cy="34.316" rx="34.316" ry="34.316" fill="#202360"/>
      <g id="グループ_9215" data-name="グループ 9215" transform="translate(19.503 18.362)">
        <path id="パス_11024" data-name="パス 11024" d="M76.081,15.8a1.136,1.136,0,0,0-.6,1.494,11.952,11.952,0,1,1-6.333-6.333,1.139,1.139,0,0,0,.891-2.1A14.235,14.235,0,1,0,77.574,16.4,1.135,1.135,0,0,0,76.081,15.8Z" transform="translate(-50.221 -4.309)" fill="#fff"/>
        <path id="パス_11025" data-name="パス 11025" d="M60.788,12.027a6.294,6.294,0,0,1,1.97.316,1.14,1.14,0,1,0,.716-2.165A8.534,8.534,0,1,0,68.9,15.612a1.138,1.138,0,0,0-2.162.713,6.361,6.361,0,0,1,.313,1.97,6.267,6.267,0,1,1-6.268-6.268Z" transform="translate(-46.546 -0.632)" fill="#fff"/>
        <path id="パス_11026" data-name="パス 11026" d="M72.53,11.075H69.114V7.656a1.14,1.14,0,1,0-2.28,0V11.74L55.2,23.372a1.139,1.139,0,0,0,1.609,1.612L68.446,13.353H72.53a1.139,1.139,0,1,0,0-2.277Z" transform="translate(-41.766 -6.515)" fill="#fff"/>
      </g>
    </g>
    <g id="グループ_9265" data-name="グループ 9265" transform="translate(1183.525 4036.321)">
      <ellipse id="楕円形_1225" data-name="楕円形 1225" cx="34.316" cy="34.316" rx="34.316" ry="34.316" transform="translate(0)" fill="#202360"/>
      <g id="グループ_9264" data-name="グループ 9264" transform="translate(16.315 16.299)">
        <g id="グループ_9263" data-name="グループ 9263">
          <g id="グループ_9262" data-name="グループ 9262">
            <g id="グループ_9219" data-name="グループ 9219" transform="translate(0 10.279)">
              <g id="グループ_9217" data-name="グループ 9217" transform="translate(0.437 0.437)">
                <path id="パス_11027" data-name="パス 11027" d="M116.518,109.748l-23.6.034a.183.183,0,0,1-.183-.183L92.7,86a.183.183,0,0,1,.183-.183l23.6-.037a.183.183,0,0,1,.183.183l.034,23.6A.183.183,0,0,1,116.518,109.748Zm-23.416-.33,23.233-.037L116.3,86.148l-23.233.034Z" transform="translate(-92.262 -85.342)" fill="#fff"/>
                <path id="パス_11028" data-name="パス 11028" d="M93.2,110.5a.622.622,0,0,1-.62-.62l-.037-23.6a.623.623,0,0,1,.623-.623l23.6-.037a.623.623,0,0,1,.623.623l.034,23.6a.623.623,0,0,1-.623.623Zm.586-23.6.037,22.356,22.353-.037-.034-22.353Z" transform="translate(-92.546 -85.626)" fill="#fff"/>
              </g>
              <g id="グループ_9218" data-name="グループ 9218">
                <path id="パス_11029" data-name="パス 11029" d="M93.2,110.5a.623.623,0,0,1-.623-.623l-.034-23.6a.624.624,0,0,1,.617-.623l23.6-.034a.622.622,0,0,1,.623.62l.034,23.6a.62.62,0,0,1-.62.62Zm.583-23.6.034,22.359,22.359-.034-.034-22.356Z" transform="translate(-92.107 -85.187)" fill="#fff"/>
                <path id="パス_11030" data-name="パス 11030" d="M93.487,111.223h0a1.06,1.06,0,0,1-1.06-1.057l-.037-23.6a1.063,1.063,0,0,1,1.054-1.06l23.6-.037a1.062,1.062,0,0,1,1.06,1.06l.031,23.6a1.058,1.058,0,0,1-1.057,1.06ZM117.05,86.35l-23.6.034a.186.186,0,0,0-.178.183l.037,23.6a.176.176,0,0,0,.18.18l23.6-.037a.182.182,0,0,0,.18-.18l-.034-23.6A.182.182,0,0,0,117.05,86.35ZM93.665,109.983l-.031-23.238,23.236-.034.034,23.238Zm.846-22.359.034,21.483,21.48-.034-.031-21.48Z" transform="translate(-92.391 -85.471)" fill="#fff"/>
              </g>
            </g>
            <g id="グループ_9222" data-name="グループ 9222" transform="translate(0.002 0.037)">
              <g id="グループ_9220" data-name="グループ 9220" transform="translate(0.435 0.434)">
                <path id="パス_11031" data-name="パス 11031" d="M92.886,92.795a.191.191,0,0,1-.13-.054.18.18,0,0,1,0-.259L103,82.2a.183.183,0,0,1,.259,0,.185.185,0,0,1,0,.259L93.016,92.741A.205.205,0,0,1,92.886,92.795Z" transform="translate(-92.263 -81.707)" fill="#fff"/>
                <path id="パス_11032" data-name="パス 11032" d="M93.169,93.516a.634.634,0,0,1-.434-.172.626.626,0,0,1-.006-.891l10.245-10.279a.624.624,0,0,1,.888.877L93.611,93.335A.64.64,0,0,1,93.169,93.516Zm.186-.445,0,.006Z" transform="translate(-92.546 -81.991)" fill="#fff"/>
              </g>
              <g id="グループ_9221" data-name="グループ 9221">
                <path id="パス_11033" data-name="パス 11033" d="M93.17,93.512h0a.622.622,0,0,1-.442-1.057l10.251-10.282a.621.621,0,1,1,.879.877L93.607,93.329a.62.62,0,0,1-.434.183Z" transform="translate(-92.109 -81.554)" fill="#fff"/>
                <path id="パス_11034" data-name="パス 11034" d="M93.458,94.233H93.45a1.058,1.058,0,0,1-.755-1.8l10.254-10.285a1.059,1.059,0,0,1,1.5,1.494L94.2,93.923a1.041,1.041,0,0,1-.741.31ZM103.7,82.716a.183.183,0,0,0-.13.051L93.32,93.049a.176.176,0,0,0,0,.254.192.192,0,0,0,.127.054h.006a.193.193,0,0,0,.124-.056l10.245-10.276a.185.185,0,0,0,0-.259A.175.175,0,0,0,103.7,82.716Z" transform="translate(-92.392 -81.837)" fill="#fff"/>
              </g>
            </g>
            <g id="グループ_9225" data-name="グループ 9225" transform="translate(23.633 23.599)">
              <g id="グループ_9223" data-name="グループ 9223" transform="translate(0.437 0.438)">
                <path id="パス_11035" data-name="パス 11035" d="M101.27,101.153a.184.184,0,0,1-.13-.054.185.185,0,0,1,0-.259l10.248-10.279a.185.185,0,0,1,.259,0,.183.183,0,0,1,0,.259L101.4,101.1A.179.179,0,0,1,101.27,101.153Z" transform="translate(-100.647 -90.068)" fill="#fff"/>
                <path id="パス_11036" data-name="パス 11036" d="M101.554,101.877a.62.62,0,0,1-.431-1.068l10.24-10.271a.6.6,0,0,1,.431-.186h.011a.64.64,0,0,1,.443.183.631.631,0,0,1,.006.871L102,101.691A.63.63,0,0,1,101.554,101.877Zm.189-.448-.006.006ZM111.991,91.15l-.008.008Z" transform="translate(-100.931 -90.352)" fill="#fff"/>
              </g>
              <g id="グループ_9224" data-name="グループ 9224">
                <path id="パス_11037" data-name="パス 11037" d="M101.552,101.871a.621.621,0,0,1-.62-.62.624.624,0,0,1,.18-.437l10.251-10.279a.618.618,0,0,1,.874,0,.608.608,0,0,1,.186.44.616.616,0,0,1-.183.44l-10.248,10.276A.607.607,0,0,1,101.552,101.871Zm-.18-.8v0Z" transform="translate(-100.492 -89.912)" fill="#fff"/>
                <path id="パス_11038" data-name="パス 11038" d="M101.836,102.6a1.044,1.044,0,0,1-.755-.318,1.025,1.025,0,0,1-.3-.741,1.054,1.054,0,0,1,.3-.744L111.334,90.51a1.06,1.06,0,1,1,1.5,1.5l-10.248,10.276A1.045,1.045,0,0,1,101.836,102.6Zm-.082-1.237-.048.051a.185.185,0,0,0-.006.248.166.166,0,0,0,.259.011l10.254-10.282a.175.175,0,0,0,.054-.13.158.158,0,0,0-.056-.127.18.18,0,0,0-.251,0l-10.2,10.225.335,0Z" transform="translate(-100.776 -90.197)" fill="#fff"/>
              </g>
            </g>
            <g id="グループ_9235" data-name="グループ 9235" transform="translate(0.038 22.644)">
              <g id="グループ_9228" data-name="グループ 9228" transform="translate(0 11.012)">
                <g id="グループ_9226" data-name="グループ 9226" transform="translate(0.432 0.435)">
                  <path id="パス_11039" data-name="パス 11039" d="M92.9,94.7a.193.193,0,0,1-.13-.051.185.185,0,0,1,0-.259l.259-.259a.182.182,0,0,1,.259.256l-.259.259A.174.174,0,0,1,92.9,94.7Z" transform="translate(-92.274 -93.636)" fill="#fff"/>
                  <path id="パス_11040" data-name="パス 11040" d="M93.181,95.423a.611.611,0,0,1-.451-.194.619.619,0,0,1,.011-.868L93,94.1a.624.624,0,0,1,.891.874l-.265.268A.627.627,0,0,1,93.181,95.423Zm0-.879a.273.273,0,0,0,.076.183.259.259,0,0,0,.178.07.25.25,0,0,0-.073-.178A.254.254,0,0,0,93.184,94.544Z" transform="translate(-92.558 -93.919)" fill="#fff"/>
                </g>
                <g id="グループ_9227" data-name="グループ 9227">
                  <path id="パス_11041" data-name="パス 11041" d="M93.178,95.421a.612.612,0,0,1-.434-.18.62.62,0,0,1,0-.879L93,94.1a.62.62,0,1,1,.877.877l-.259.259A.616.616,0,0,1,93.178,95.421Zm.006-.877a.248.248,0,0,0,.076.175.1.1,0,1,0,.1-.1A.261.261,0,0,0,93.184,94.544Z" transform="translate(-92.123 -93.482)" fill="#fff"/>
                  <path id="パス_11042" data-name="パス 11042" d="M93.46,96.141a1.044,1.044,0,0,1-.741-.3,1.069,1.069,0,0,1-.008-1.505l.262-.259a1.058,1.058,0,0,1,1.5,1.494l-.262.265A1.048,1.048,0,0,1,93.46,96.141Zm-.178-1.065a.205.205,0,0,0,.054.141.245.245,0,0,0,.13.048v-.189Zm.431-.431v.172l.186-.008a.174.174,0,0,0-.056-.113.17.17,0,0,0-.124-.051Z" transform="translate(-92.405 -93.765)" fill="#fff"/>
                </g>
              </g>
              <g id="グループ_9231" data-name="グループ 9231" transform="translate(1.233 2.235)">
                <g id="グループ_9229" data-name="グループ 9229" transform="translate(0.431 0.428)">
                  <path id="パス_11043" data-name="パス 11043" d="M93.334,99.134a.183.183,0,0,1-.13-.313l.488-.488a.183.183,0,0,1,.259.259l-.488.488A.174.174,0,0,1,93.334,99.134Zm1.46-1.463a.184.184,0,0,1-.13-.054.185.185,0,0,1,0-.259l.488-.488a.182.182,0,0,1,.259.256l-.488.49A.191.191,0,0,1,94.794,97.671Zm1.46-1.466a.184.184,0,0,1-.13-.054.185.185,0,0,1,0-.259l.488-.488a.183.183,0,0,1,.259.259l-.488.488A.174.174,0,0,1,96.254,96.205Zm1.46-1.463a.183.183,0,0,1-.13-.313l.488-.488a.18.18,0,0,1,.259,0,.185.185,0,0,1,0,.259l-.488.488A.191.191,0,0,1,97.714,94.742Zm1.46-1.466a.179.179,0,0,1-.13-.054.186.186,0,0,1,0-.259l.488-.488a.183.183,0,0,1,.259.259l-.488.488A.179.179,0,0,1,99.174,93.277Zm1.46-1.463a.179.179,0,0,1-.13-.054.185.185,0,0,1,0-.259l.485-.488a.18.18,0,0,1,.259,0,.183.183,0,0,1,0,.259l-.488.488A.179.179,0,0,1,100.634,91.814Z" transform="translate(-92.711 -90.52)" fill="#fff"/>
                  <path id="パス_11044" data-name="パス 11044" d="M93.618,99.853A.617.617,0,0,1,93.17,98.8l.493-.5a.625.625,0,0,1,.885.882l-.488.488A.615.615,0,0,1,93.618,99.853Zm.307-1.288Zm1.153-.172a.618.618,0,0,1-.451-.2.591.591,0,0,1-.169-.423.613.613,0,0,1,.178-.442l.488-.488a.624.624,0,1,1,.885.879l-.488.488A.623.623,0,0,1,95.078,98.393Zm.18-.443Zm1.282-1.023a.638.638,0,0,1-.428-.166.631.631,0,0,1-.014-.9l.485-.485a.623.623,0,0,1,1.065.445.6.6,0,0,1-.192.437l-.479.482A.617.617,0,0,1,96.541,96.928Zm.18-.442Zm.121-.848-.006.006ZM98,95.465a.625.625,0,0,1-.626-.623.611.611,0,0,1,.192-.445l.479-.482a.622.622,0,1,1,.879.879l-.488.488A.6.6,0,0,1,98,95.465Zm.186-.448-.006.006Zm-.366-.361-.017.017ZM99.458,94a.623.623,0,0,1-.443-.183.609.609,0,0,1-.18-.431.633.633,0,0,1,.18-.448l.488-.488a.612.612,0,0,1,.434-.183h.006a.624.624,0,0,1,.434,1.071l-.479.479A.607.607,0,0,1,99.458,94Zm-.178-.809-.02.02Zm.854-.127-.008.008Zm-.372-.358-.006.008Zm1.156-.169a.65.65,0,0,1-.442-.18.629.629,0,0,1,0-.885l.488-.488a.625.625,0,0,1,.882.885l-.485.485A.64.64,0,0,1,100.918,92.537Z" transform="translate(-92.995 -90.803)" fill="#fff"/>
                </g>
                <g id="グループ_9230" data-name="グループ 9230">
                  <path id="パス_11045" data-name="パス 11045" d="M93.618,99.847a.611.611,0,0,1-.437-.178.62.62,0,0,1,0-.879l.485-.488a.62.62,0,1,1,.879.874l-.488.49A.619.619,0,0,1,93.618,99.847Zm1.457-1.463a.6.6,0,0,1-.437-.183.611.611,0,0,1-.183-.44.605.605,0,0,1,.183-.437l.485-.488a.62.62,0,1,1,.874.879l-.482.485A.628.628,0,0,1,95.075,98.384Zm.183-.443h0Zm.124-.846,0,0Zm1.153-.178a.619.619,0,0,1-.437-1.057l.485-.488a.638.638,0,0,1,.877,0,.625.625,0,0,1,0,.879l-.488.488A.625.625,0,0,1,96.535,96.919Zm.668-.93v0Zm.792-.533a.619.619,0,0,1-.44-1.057l.488-.49a.619.619,0,0,1,.437-.18h0a.607.607,0,0,1,.437.18.622.622,0,0,1,0,.877l-.488.488A.633.633,0,0,1,97.995,95.456Zm1.46-1.463a.61.61,0,0,1-.437-.183.624.624,0,0,1-.006-.874l.49-.49a.6.6,0,0,1,.437-.183h0a.615.615,0,0,1,.437.183.6.6,0,0,1,.183.437.611.611,0,0,1-.183.44l-.488.488A.618.618,0,0,1,99.455,93.993Zm-.18-.8-.006.008Zm.848-.127h0Zm-.361-.358h0Zm1.153-.178a.616.616,0,0,1-.62-.62.619.619,0,0,1,.18-.437l.488-.488a.635.635,0,0,1,.877,0,.616.616,0,0,1,0,.877l-.485.488A.611.611,0,0,1,100.915,92.528Zm-.18-.8v0Z" transform="translate(-92.561 -90.369)" fill="#fff"/>
                  <path id="パス_11046" data-name="パス 11046" d="M93.9,100.569a1.044,1.044,0,0,1-.741-.3,1.072,1.072,0,0,1-.008-1.505l.488-.49a1.054,1.054,0,0,1,.665-.307,1.049,1.049,0,0,1,.31-.671l.482-.485a1.108,1.108,0,0,1,.671-.31,1.074,1.074,0,0,1,.3-.668l.485-.485a1.036,1.036,0,0,1,.668-.3,1.046,1.046,0,0,1,.3-.674l.488-.49a1.033,1.033,0,0,1,.668-.307,1.05,1.05,0,0,1,.3-.665l.488-.49a1.11,1.11,0,0,1,.2-.161l.321-.64v.513a.833.833,0,0,1,.147-.02,1.074,1.074,0,0,1,.307-.671l.488-.488a1.079,1.079,0,0,1,1.494,0,1.062,1.062,0,0,1,.008,1.5l-.49.493a1.054,1.054,0,0,1-.668.307,1.043,1.043,0,0,1-.3.671l-.49.485a1.053,1.053,0,0,1-.665.31,1.053,1.053,0,0,1-.3.665l-.49.49a1.087,1.087,0,0,1-.665.3,1.058,1.058,0,0,1-.31.671l-.482.485a1.049,1.049,0,0,1-.668.31,1.07,1.07,0,0,1-.31.674l-.485.485a1.065,1.065,0,0,1-.668.3,1.068,1.068,0,0,1-.3.671l-.482.488A1.1,1.1,0,0,1,93.9,100.569Zm.488-1.728h0a.176.176,0,0,0-.127.051l-.488.49a.186.186,0,0,0,0,.262.2.2,0,0,0,.259-.011l.479-.485a.183.183,0,0,0,0-.259A.174.174,0,0,0,94.384,98.842Zm.941-1.02-.093.1a.169.169,0,0,0-.059.127.172.172,0,0,0,.056.127.163.163,0,0,0,.116.056h.023a.181.181,0,0,0,.116-.056l.355-.35Zm1.979-1.9a.2.2,0,0,0-.13.045l-.482.488a.18.18,0,1,0,.254.256l.431-.434h-.333l.386-.051a.182.182,0,0,0,.054-.127.2.2,0,0,0-.056-.132A.18.18,0,0,0,97.3,95.919Zm1.158-1.243-.316.318a.2.2,0,0,0,0,.251l.023.017ZM100,93.137v.513l.355-.355a.19.19,0,0,0,.051-.093v-.068a.177.177,0,0,0-.048-.09.164.164,0,0,0-.256-.011l-.054.059,0,.335v-.335Zm.406,0v.054l0-.025Zm.617-.927a.167.167,0,0,0,.051.1.181.181,0,0,0,.254,0l.488-.488a.164.164,0,0,0,.051-.121.174.174,0,0,0-.048-.13.193.193,0,0,0-.256,0l-.488.488a.147.147,0,0,0-.051.1Z" transform="translate(-92.842 -90.651)" fill="#fff"/>
                </g>
              </g>
              <g id="グループ_9234" data-name="グループ 9234" transform="translate(9.987)">
                <g id="グループ_9232" data-name="グループ 9232" transform="translate(0.438 1.429)">
                  <path id="パス_11047" data-name="パス 11047" d="M96.442,91.148a.182.182,0,0,1-.13-.056.179.179,0,0,1,0-.256l.259-.259a.18.18,0,0,1,.256,0,.183.183,0,0,1,0,.259l-.259.259A.194.194,0,0,1,96.442,91.148Z" transform="translate(-95.821 -90.082)" fill="#fff"/>
                  <path id="パス_11048" data-name="パス 11048" d="M96.725,91.867a.637.637,0,0,1-.442-.18.629.629,0,0,1-.006-.874l.265-.268a.624.624,0,0,1,.882.882l-.256.259A.62.62,0,0,1,96.725,91.867Zm0-.877a.25.25,0,0,0,.073.178.293.293,0,0,0,.18.076.273.273,0,0,0-.076-.183A.257.257,0,0,0,96.728,90.991Z" transform="translate(-96.103 -90.365)" fill="#fff"/>
                </g>
                <g id="グループ_9233" data-name="グループ 9233">
                  <path id="パス_11049" data-name="パス 11049" d="M96.727,91.865h0a.625.625,0,0,1-.442-.186.623.623,0,0,1,0-.874l.259-.259a.6.6,0,0,1,.434-.18h.006a.612.612,0,0,1,.437.18.627.627,0,0,1,.183.434.62.62,0,0,1-.18.442l-.262.259a.615.615,0,0,1-.431.183Zm0-.877a.275.275,0,0,0,.076.178.265.265,0,0,0,.175.073.262.262,0,0,0-.076-.178A.268.268,0,0,0,96.727,90.989Zm.44.172-.006.006Z" transform="translate(-95.664 -88.934)" fill="#fff"/>
                  <path id="パス_11050" data-name="パス 11050" d="M97.008,93.953v-.724a1.062,1.062,0,0,1-.753-1.809l.262-.262a1.094,1.094,0,0,1,1.356-.118l1.181-1.181-.815,1.629a1.1,1.1,0,0,1,.085.417,1.036,1.036,0,0,1-.3.753l-.262.259a.978.978,0,0,1-.349.234Zm-.183-1.77a.2.2,0,0,0,.183.166v-.175Z" transform="translate(-95.948 -89.858)" fill="#fff"/>
                </g>
              </g>
            </g>
            <g id="グループ_9238" data-name="グループ 9238" transform="translate(23.6 0.012)">
              <g id="グループ_9236" data-name="グループ 9236" transform="translate(0.436 0.426)">
                <path id="パス_11051" data-name="パス 11051" d="M101.259,92.78a.183.183,0,0,1-.13-.313l10.248-10.279a.183.183,0,0,1,.259.259L101.389,92.726A.184.184,0,0,1,101.259,92.78Z" transform="translate(-100.636 -81.696)" fill="#fff"/>
                <path id="パス_11052" data-name="パス 11052" d="M101.542,93.5a.625.625,0,0,1-.623-.62.627.627,0,0,1,.186-.445l10.242-10.276a.629.629,0,0,1,.882,0,.626.626,0,0,1,0,.885L101.982,93.32A.616.616,0,0,1,101.542,93.5Zm.186-.445,0,.006Zm9.879-10.637,0,0Z" transform="translate(-100.919 -81.979)" fill="#fff"/>
              </g>
              <g id="グループ_9237" data-name="グループ 9237">
                <path id="パス_11053" data-name="パス 11053" d="M101.54,93.5a.619.619,0,0,1-.44-1.057l10.248-10.279a.611.611,0,0,1,.44-.183h0a.619.619,0,0,1,.44,1.057L101.979,93.316A.616.616,0,0,1,101.54,93.5Z" transform="translate(-100.481 -81.553)" fill="#fff"/>
                <path id="パス_11054" data-name="パス 11054" d="M101.826,94.215a1.058,1.058,0,0,1-.755-1.807l10.248-10.279a1.093,1.093,0,0,1,1.5,0,1.061,1.061,0,0,1,0,1.5L102.573,93.9A1.066,1.066,0,0,1,101.826,94.215ZM112.071,82.7a.161.161,0,0,0-.124.051L101.693,93.028a.181.181,0,0,0,.256.256L112.2,83a.179.179,0,0,0,0-.254A.174.174,0,0,0,112.071,82.7Z" transform="translate(-100.764 -81.828)" fill="#fff"/>
              </g>
            </g>
            <g id="グループ_9241" data-name="グループ 9241" transform="translate(10.248)">
              <g id="グループ_9239" data-name="グループ 9239" transform="translate(0.437 0.437)">
                <path id="パス_11055" data-name="パス 11055" d="M120.154,106.1a.182.182,0,0,1-.18-.183L119.937,82.5l-23.416.034a.182.182,0,1,1,0-.364l23.6-.037a.183.183,0,0,1,.183.183l.034,23.6A.183.183,0,0,1,120.154,106.1Z" transform="translate(-95.898 -81.695)" fill="#fff"/>
                <path id="パス_11056" data-name="パス 11056" d="M120.441,106.824a.624.624,0,0,1-.626-.623l-.031-22.976L96.8,83.259a.621.621,0,1,1,0-1.243l23.6-.037a.623.623,0,0,1,.623.623l.034,23.6A.622.622,0,0,1,120.441,106.824Z" transform="translate(-96.182 -81.979)" fill="#fff"/>
              </g>
              <g id="グループ_9240" data-name="グループ 9240">
                <path id="パス_11057" data-name="パス 11057" d="M120.436,106.819a.619.619,0,0,1-.617-.62l-.037-22.979-22.976.037a.621.621,0,0,1,0-1.243l23.6-.034a.622.622,0,0,1,.623.62l.034,23.6A.62.62,0,0,1,120.436,106.819ZM96.8,82.89h0Z" transform="translate(-95.743 -81.54)" fill="#fff"/>
                <path id="パス_11058" data-name="パス 11058" d="M120.723,107.543a1.058,1.058,0,0,1-1.06-1.057l-.037-22.539-22.539.034a1.06,1.06,0,0,1,0-2.12l23.6-.037a1.062,1.062,0,0,1,1.06,1.06l.034,23.6A1.06,1.06,0,0,1,120.723,107.543Zm-.22-24.479.037,23.422c0,.192.361.2.361,0l-.034-23.6a.182.182,0,0,0-.18-.18l-23.6.034a.182.182,0,0,0,0,.364Z" transform="translate(-96.027 -81.824)" fill="#fff"/>
              </g>
            </g>
            <g id="グループ_9251" data-name="グループ 9251" transform="translate(10.248 0.037)">
              <g id="グループ_9244" data-name="グループ 9244">
                <g id="グループ_9242" data-name="グループ 9242" transform="translate(0.437 0.437)">
                  <path id="パス_11059" data-name="パス 11059" d="M96.524,82.878a.185.185,0,0,1-.186-.18v-.366a.183.183,0,0,1,.366,0v.364A.18.18,0,0,1,96.524,82.878Z" transform="translate(-95.898 -81.708)" fill="#fff"/>
                  <path id="パス_11060" data-name="パス 11060" d="M96.8,83.6a.622.622,0,0,1-.62-.62l0-.364a.623.623,0,1,1,1.246,0l0,.361A.624.624,0,0,1,96.8,83.6Zm.259-.629v0Zm-.437-.175a.268.268,0,0,0,.358,0A.271.271,0,0,0,96.627,82.8Zm-.079-.18v0Z" transform="translate(-96.182 -81.992)" fill="#fff"/>
                </g>
                <g id="グループ_9243" data-name="グループ 9243">
                  <path id="パス_11061" data-name="パス 11061" d="M96.8,83.6a.617.617,0,0,1-.617-.617l0-.366a.62.62,0,1,1,1.24,0v.366a.612.612,0,0,1-.178.434A.63.63,0,0,1,96.8,83.6Zm-.254-.62v0Zm.507,0v0Zm-.428-.178a.27.27,0,0,0,.352,0A.266.266,0,0,0,96.628,82.8Z" transform="translate(-95.743 -81.555)" fill="#fff"/>
                  <path id="パス_11062" data-name="パス 11062" d="M97.087,84.32a1.06,1.06,0,0,1-1.06-1.057V82.9a1.06,1.06,0,0,1,2.12,0v.366a1.054,1.054,0,0,1-.3.741A1.071,1.071,0,0,1,97.087,84.32Zm-.127-.93a.192.192,0,0,0,.251,0l-.13-.124Zm.127-.127h0Zm-.127-.5.124.13.127-.132A.186.186,0,0,0,96.96,82.767Z" transform="translate(-96.027 -81.837)" fill="#fff"/>
                </g>
              </g>
              <g id="グループ_9247" data-name="グループ 9247" transform="translate(0.003 1.795)">
                <g id="グループ_9245" data-name="グループ 9245" transform="translate(0.437 0.437)">
                  <path id="パス_11063" data-name="パス 11063" d="M96.553,103.16a.183.183,0,0,1-.183-.183l0-.716a.183.183,0,0,1,.366,0l0,.713A.187.187,0,0,1,96.553,103.16Zm0-2.145a.187.187,0,0,1-.186-.183v-.716a.183.183,0,0,1,.366,0v.716A.18.18,0,0,1,96.55,101.015Zm0-2.145a.187.187,0,0,1-.186-.183v-.713a.183.183,0,1,1,.366,0v.713A.182.182,0,0,1,96.548,98.87Zm-.006-2.142a.183.183,0,0,1-.183-.183v-.716a.183.183,0,0,1,.366,0v.716A.185.185,0,0,1,96.542,96.728Zm0-2.145a.183.183,0,0,1-.183-.183v-.713a.183.183,0,0,1,.183-.183.18.18,0,0,1,.183.18V94.4A.183.183,0,0,1,96.539,94.583Zm0-2.145a.179.179,0,0,1-.183-.18v-.716a.183.183,0,0,1,.366,0v.713A.183.183,0,0,1,96.536,92.438Zm0-2.142a.183.183,0,0,1-.183-.183l0-.716a.183.183,0,0,1,.366,0l0,.716A.183.183,0,0,1,96.533,90.3Zm0-2.145a.183.183,0,0,1-.183-.183l0-.713a.183.183,0,1,1,.366,0l0,.713A.183.183,0,0,1,96.531,88.151Zm0-2.142a.183.183,0,0,1-.183-.183l0-.716a.183.183,0,0,1,.366,0l0,.716A.183.183,0,0,1,96.528,86.009Zm0-2.145a.183.183,0,0,1-.183-.183l0-.713a.183.183,0,0,1,.183-.183.179.179,0,0,1,.183.18v.716A.179.179,0,0,1,96.525,83.865Z" transform="translate(-95.899 -82.345)" fill="#fff"/>
                  <path id="パス_11064" data-name="パス 11064" d="M96.837,103.88a.622.622,0,0,1-.623-.62v-.716a.621.621,0,1,1,1.243,0v.716A.62.62,0,0,1,96.837,103.88Zm0-2.145a.622.622,0,0,1-.623-.62V100.4a.621.621,0,0,1,1.243,0v.716A.622.622,0,0,1,96.834,101.736Zm0-2.142a.623.623,0,0,1-.623-.623v-.713a.62.62,0,1,1,1.24,0l0,.716A.622.622,0,0,1,96.831,99.593Zm-.259-1.336v0Zm.256-.806a.621.621,0,0,1-.623-.623v-.716a.62.62,0,1,1,1.24,0l0,.713A.625.625,0,0,1,96.828,97.451Zm-.259-1.339v0Zm.254-.806a.621.621,0,0,1-.62-.623l-.006-.713a.623.623,0,0,1,1.246,0l0,.713A.624.624,0,0,1,96.823,95.307Zm.256-.626v0Zm-.516-.71v0Zm.254-.809a.614.614,0,0,1-.434-.178.625.625,0,0,1-.186-.443l0-.713a.623.623,0,1,1,1.246,0l0,.713a.623.623,0,0,1-.623.623Zm.259-.623Zm-.516-.713v0Zm.256-.809a.621.621,0,0,1-.623-.62l0-.713a.623.623,0,1,1,1.246,0l0,.713A.621.621,0,0,1,96.817,91.017Zm.256-.626v0Zm-.516-.707Zm.256-.809a.622.622,0,0,1-.623-.62l0-.716a.623.623,0,0,1,1.246,0l0,.713A.623.623,0,0,1,96.814,88.875Zm.256-.623Zm-.516-.713v0Zm.254-.809a.62.62,0,0,1-.62-.62l0-.713a.623.623,0,1,1,1.246,0l0,.713A.622.622,0,0,1,96.809,86.73Zm.259-.623Zm-.516-.71Zm.254-.809a.622.622,0,0,1-.62-.623l0-.713a.623.623,0,0,1,1.246,0l0,.713A.624.624,0,0,1,96.806,84.588Zm.259-.629v0Zm-.516-.707v0Z" transform="translate(-96.183 -82.629)" fill="#fff"/>
                </g>
                <g id="グループ_9246" data-name="グループ 9246">
                  <path id="パス_11065" data-name="パス 11065" d="M96.835,103.88h0a.627.627,0,0,1-.623-.614v-.722a.62.62,0,0,1,1.24,0v.713a.616.616,0,0,1-.175.437.631.631,0,0,1-.44.186Zm-.256-.623v0Zm.254-1.522a.62.62,0,0,1-.62-.62l0-.713a.622.622,0,0,1,.62-.623h.006a.621.621,0,0,1,.614.62v.716A.62.62,0,0,1,96.832,101.736Zm-.006-2.145h0a.623.623,0,0,1-.62-.614v-.719a.62.62,0,0,1,1.24,0v.713A.618.618,0,0,1,96.827,99.591Zm0-2.142a.622.622,0,0,1-.62-.62v-.716a.62.62,0,0,1,1.24,0v.713A.621.621,0,0,1,96.824,97.449Zm0-2.145a.622.622,0,0,1-.62-.62v-.713a.62.62,0,0,1,1.24,0v.716a.614.614,0,0,1-.178.437A.623.623,0,0,1,96.821,95.3Zm-.254-.62v0Zm.251-1.525h0a.6.6,0,0,1-.437-.18.61.61,0,0,1-.183-.437v-.716a.619.619,0,1,1,1.237,0l0,.713A.618.618,0,0,1,96.818,93.159Zm0-2.142h0a.62.62,0,0,1-.62-.62v-.713a.62.62,0,0,1,.617-.623h.006a.621.621,0,0,1,.617.62V90.4a.621.621,0,0,1-.617.62Zm-.254-.62v0Zm.251-1.525a.62.62,0,0,1-.62-.62l0-.713a.62.62,0,0,1,1.24,0l0,.713A.62.62,0,0,1,96.813,88.872Zm0-2.142a.62.62,0,0,1-.62-.62l0-.716a.62.62,0,1,1,1.24,0v.716a.6.6,0,0,1-.178.434A.614.614,0,0,1,96.81,86.73Zm-.256-.623v0Zm.256-1.522h0a.623.623,0,0,1-.62-.614l0-.719a.622.622,0,0,1,.62-.623h.006a.621.621,0,0,1,.614.62v.716A.619.619,0,0,1,96.81,84.585Z" transform="translate(-95.744 -82.192)" fill="#fff"/>
                  <path id="パス_11066" data-name="パス 11066" d="M97.119,104.6a1.064,1.064,0,0,1-1.06-1.051v-.724a1.058,1.058,0,0,1,.276-.71,1.074,1.074,0,0,1-.279-.719l0-.713a1.061,1.061,0,0,1,.279-.716,1.061,1.061,0,0,1-.282-.7v-.727a1.061,1.061,0,0,1,.279-.716,1.054,1.054,0,0,1-.279-.713l0-.713a1.048,1.048,0,0,1,.279-.716,1.048,1.048,0,0,1-.279-.716l0-.713a1.053,1.053,0,0,1,.279-.716,1.039,1.039,0,0,1-.279-.716l0-.71a1.043,1.043,0,0,1,.279-.716,1.053,1.053,0,0,1-.279-.716l0-.713a1.063,1.063,0,0,1,.273-.713,1.066,1.066,0,0,1-.276-.719v-.713a1.059,1.059,0,0,1,.276-.716,1.052,1.052,0,0,1-.276-.713l-.006-.713a1.061,1.061,0,0,1,.279-.716,1.061,1.061,0,0,1-.282-.7v-.727a1.06,1.06,0,0,1,1.06-1.06,1.054,1.054,0,0,1,1.057,1.06l0,.71a1.069,1.069,0,0,1-.276.716,1.048,1.048,0,0,1,.279.716v.716a1.059,1.059,0,0,1-.273.713,1.07,1.07,0,0,1,.273.716l.006.713a1.065,1.065,0,0,1-.276.713,1.061,1.061,0,0,1,.279.716v.716a1.024,1.024,0,0,1-.276.713,1.061,1.061,0,0,1,.279.716v.713a1.065,1.065,0,0,1-.276.713,1.066,1.066,0,0,1,.279.716v.716a1.012,1.012,0,0,1-.276.713,1.061,1.061,0,0,1,.279.716v.713a1.059,1.059,0,0,1-.276.716,1.054,1.054,0,0,1,.279.713v.716a1.071,1.071,0,0,1-.276.713,1.052,1.052,0,0,1,.279.716v.716a1.059,1.059,0,0,1-.276.716,1.049,1.049,0,0,1,.279.713v.716a1.024,1.024,0,0,1-.3.738A1.046,1.046,0,0,1,97.119,104.6Zm-.18-1.054a.186.186,0,0,0,.307.121.181.181,0,0,0,.054-.118v0Zm.175-.9a.183.183,0,0,0-.175.18v.719l.361,0v-.716A.183.183,0,0,0,97.113,102.646Zm.006-2.145a.183.183,0,0,0-.186.18l0,.713c0,.2.364.206.358,0v-.716a.175.175,0,0,0-.056-.13A.162.162,0,0,0,97.119,100.5Zm-.008-2.145a.183.183,0,0,0-.183.183v.722c.008.189.366.189.364-.008v-.716A.182.182,0,0,0,97.11,98.356Zm0-2.142a.182.182,0,0,0-.183.18l0,.713c0,.2.361.2.361,0v-.713A.182.182,0,0,0,97.107,96.214Zm-.183-1.243a.186.186,0,0,0,.31.121.167.167,0,0,0,.051-.118v0Zm.18-.9a.183.183,0,0,0-.183.183l0,.713v0l.361,0V94.25A.182.182,0,0,0,97.1,94.069Zm0-2.145a.187.187,0,0,0-.183.183l0,.713a.168.168,0,0,0,.056.13c.059.059.307.034.3-.13v-.713A.182.182,0,0,0,97.1,91.924Zm-.183-1.24a.179.179,0,0,0,.18.175h0a.182.182,0,0,0,.13-.056.166.166,0,0,0,.048-.118h-.361Zm.183-.9a.183.183,0,0,0-.186.183l0,.71v.006l.361,0v-.716a.162.162,0,0,0-.054-.124A.174.174,0,0,0,97.1,89.782ZM97.1,87.637a.183.183,0,0,0-.183.183v.713c0,.2.364.2.364,0l0-.713A.182.182,0,0,0,97.1,87.637Zm-.183-1.24a.185.185,0,0,0,.31.118.2.2,0,0,0,.051-.118Zm.175-.9a.182.182,0,0,0-.178.183l0,.71v.006l.361,0h0v-.716A.183.183,0,0,0,97.088,85.5Zm0-2.145a.183.183,0,0,0-.183.183v.719a.189.189,0,0,0,.18.178h0a.187.187,0,0,0,.183-.183l0-.713a.178.178,0,0,0-.051-.13A.184.184,0,0,0,97.091,83.351Z" transform="translate(-96.028 -82.474)" fill="#fff"/>
                </g>
              </g>
              <g id="グループ_9250" data-name="グループ 9250" transform="translate(0.034 23.233)">
                <g id="グループ_9248" data-name="グループ 9248" transform="translate(0.44 0.437)">
                  <path id="パス_11067" data-name="パス 11067" d="M96.536,91.121a.183.183,0,0,1-.183-.183l0-.364a.183.183,0,0,1,.366,0v.366A.18.18,0,0,1,96.536,91.121Z" transform="translate(-95.913 -89.951)" fill="#fff"/>
                  <path id="パス_11068" data-name="パス 11068" d="M96.815,91.844a.622.622,0,0,1-.62-.62v-.366a.621.621,0,1,1,1.243,0v.366A.621.621,0,0,1,96.815,91.844Zm-.178-.8a.274.274,0,0,0,.361,0A.262.262,0,0,0,96.637,91.041Z" transform="translate(-96.195 -90.235)" fill="#fff"/>
                </g>
                <g id="グループ_9249" data-name="グループ 9249">
                  <path id="パス_11069" data-name="パス 11069" d="M96.818,91.843a.621.621,0,0,1-.62-.623l0-.364a.62.62,0,0,1,1.24,0v.366a.6.6,0,0,1-.178.437A.614.614,0,0,1,96.818,91.843Zm-.256-.623v0Zm.51,0v0Zm-.431-.18a.263.263,0,0,0,.352,0A.269.269,0,0,0,96.64,91.036Z" transform="translate(-95.755 -89.796)" fill="#fff"/>
                  <path id="パス_11070" data-name="パス 11070" d="M97.1,92.566a1.06,1.06,0,0,1-1.057-1.06l0-.361a1.06,1.06,0,1,1,2.12-.006v.366a1.044,1.044,0,0,1-.3.747A1.057,1.057,0,0,1,97.1,92.566Zm-.118-.927a.184.184,0,0,0,.242,0l-.124-.127Zm0-.637.121.127L97.22,91A.2.2,0,0,0,96.98,91Z" transform="translate(-96.039 -90.08)" fill="#fff"/>
                </g>
              </g>
            </g>
            <g id="グループ_9261" data-name="グループ 9261" transform="translate(10.285 23.602)">
              <g id="グループ_9254" data-name="グループ 9254" transform="translate(0 0.034)">
                <g id="グループ_9252" data-name="グループ 9252" transform="translate(0.437 0.434)">
                  <path id="パス_11071" data-name="パス 11071" d="M96.9,90.886h-.366a.182.182,0,1,1,0-.364l.366,0a.183.183,0,0,1,.183.183A.179.179,0,0,1,96.9,90.886Z" transform="translate(-95.911 -90.08)" fill="#fff"/>
                  <path id="パス_11072" data-name="パス 11072" d="M97.181,91.61h-.366a.623.623,0,0,1,0-1.246h.366a.623.623,0,0,1,0,1.246Zm-.18-.8a.255.255,0,0,0,0,.358.263.263,0,0,0,0-.358Z" transform="translate(-96.195 -90.364)" fill="#fff"/>
                </g>
                <g id="グループ_9253" data-name="グループ 9253">
                  <path id="パス_11073" data-name="パス 11073" d="M96.816,91.608a.621.621,0,0,1,0-1.243h.366a.619.619,0,0,1,.617.62.6.6,0,0,1-.175.434.616.616,0,0,1-.443.186Zm.18-.8a.263.263,0,0,0-.07.18.256.256,0,0,0,.07.172.248.248,0,0,0,0-.352Z" transform="translate(-95.756 -89.928)" fill="#fff"/>
                  <path id="パス_11074" data-name="パス 11074" d="M97.1,92.329a1.06,1.06,0,0,1,0-2.119h.366a1.06,1.06,0,0,1,1.06,1.06,1.024,1.024,0,0,1-.3.738,1.1,1.1,0,0,1-.75.321Zm.358-1.06.13.13.008-.008a.166.166,0,0,0,.051-.113.186.186,0,0,0-.059-.141Zm-.493-.121a.178.178,0,0,0-.045.121.189.189,0,0,0,.045.121l.13-.121Z" transform="translate(-96.04 -90.21)" fill="#fff"/>
                </g>
              </g>
              <g id="グループ_9257" data-name="グループ 9257" transform="translate(1.795)">
                <g id="グループ_9255" data-name="グループ 9255" transform="translate(0.437 0.44)">
                  <path id="パス_11075" data-name="パス 11075" d="M117.18,90.875h-.716a.183.183,0,1,1,0-.366h.713a.187.187,0,0,1,.186.183A.183.183,0,0,1,117.18,90.875Zm-2.145,0-.716,0a.183.183,0,1,1,0-.366l.716,0a.183.183,0,1,1,0,.366Zm-2.145,0-.713,0a.183.183,0,1,1,0-.366l.713,0a.183.183,0,1,1,0,.366Zm-2.142,0-.716,0a.183.183,0,1,1,0-.366l.716,0a.183.183,0,1,1,0,.366Zm-2.145.006h-.713a.183.183,0,0,1-.183-.183.18.18,0,0,1,.18-.183h.716a.18.18,0,0,1,.183.18A.185.185,0,0,1,108.6,90.889Zm-2.142,0h-.716a.183.183,0,1,1,0-.366h.713a.183.183,0,0,1,0,.366Zm-2.145,0H103.6a.183.183,0,1,1,0-.366h.716a.183.183,0,1,1,0,.366Zm-2.145,0h-.713a.183.183,0,0,1,0-.366h.713a.183.183,0,0,1,0,.366Zm-2.142,0h-.716a.183.183,0,1,1,0-.366h.716a.183.183,0,1,1,0,.366Zm-2.145,0-.713,0a.183.183,0,0,1-.183-.183.18.18,0,0,1,.18-.183l.716,0a.183.183,0,1,1,0,.366Z" transform="translate(-96.548 -90.072)" fill="#fff"/>
                  <path id="パス_11076" data-name="パス 11076" d="M97.455,91.628a.623.623,0,0,1,0-1.246l.713,0a.623.623,0,1,1,.006,1.246Zm0-.366Zm.713-.516h0Zm2.145.877H99.6a.621.621,0,1,1,0-1.243l.71,0a.623.623,0,1,1,.006,1.246Zm-.713-.364Zm2.858.361h-.716a.621.621,0,1,1,0-1.243l.713,0a.623.623,0,0,1,.006,1.246Zm-.716-.364Zm2.858.358h-.713a.621.621,0,1,1,0-1.243h.713a.621.621,0,1,1,0,1.243Zm2.145,0h-.716a.621.621,0,1,1,0-1.243h.716a.621.621,0,0,1,0,1.243Zm2.142,0h-.713a.621.621,0,1,1,0-1.243h.713a.621.621,0,1,1,0,1.243Zm2.145,0h-.713a.621.621,0,1,1,0-1.243h.713a.621.621,0,0,1,0,1.243Zm2.145,0h-.716a.621.621,0,1,1,0-1.243h.716a.621.621,0,0,1,0,1.243Zm2.142,0h-.713a.621.621,0,1,1,0-1.243h.713a.621.621,0,0,1,0,1.243Zm2.145,0h-.716a.621.621,0,1,1,0-1.243h.716a.621.621,0,0,1,0,1.243Z" transform="translate(-96.832 -90.354)" fill="#fff"/>
                </g>
                <g id="グループ_9256" data-name="グループ 9256">
                  <path id="パス_11077" data-name="パス 11077" d="M97.453,91.625a.621.621,0,0,1,0-1.243h.716a.631.631,0,0,1,.437.18.62.62,0,0,1-.434,1.06Zm.713-.369h0Zm1.432.366a.621.621,0,1,1,0-1.243h.719a.62.62,0,0,1,0,1.24Zm.713-.369Zm1.429.364a.62.62,0,1,1,0-1.24h.713a.62.62,0,0,1,.62.62.616.616,0,0,1-.617.62Zm2.145,0a.62.62,0,1,1,0-1.24h.716a.62.62,0,1,1,0,1.24Zm2.145,0a.62.62,0,1,1,0-1.24h.713a.62.62,0,0,1,0,1.24Zm2.142,0a.62.62,0,0,1,0-1.24l.716,0a.572.572,0,0,1,.437.183.61.61,0,0,1,.183.437.624.624,0,0,1-.62.623Zm.713-.366Zm1.432.364a.62.62,0,1,1,0-1.24l.713,0a.621.621,0,0,1,.623.62.622.622,0,0,1-.62.62Zm.71-.366h0Zm0,0Zm1.429.364a.62.62,0,1,1,0-1.24l.713,0a.621.621,0,0,1,0,1.243Zm2.142,0a.62.62,0,0,1-.617-.623.6.6,0,0,1,.178-.434.611.611,0,0,1,.44-.183l.713,0a.62.62,0,1,1,.006,1.24Zm2.145,0a.621.621,0,0,1,0-1.243h.716a.621.621,0,0,1,.617.62.621.621,0,0,1-.617.62Zm.716-.369Z" transform="translate(-96.393 -89.914)" fill="#fff"/>
                  <path id="パス_11078" data-name="パス 11078" d="M97.737,92.346a1.06,1.06,0,0,1,0-2.119h.716a1.12,1.12,0,0,1,.713.276,1.066,1.066,0,0,1,.716-.279h.713a1.072,1.072,0,0,1,.716.276,1.049,1.049,0,0,1,.713-.279h.716a1.06,1.06,0,0,1,.713.276,1.061,1.061,0,0,1,.716-.279h.713a1.061,1.061,0,0,1,.716.279,1.055,1.055,0,0,1,.716-.282h.713a1.059,1.059,0,0,1,.713.276,1.061,1.061,0,0,1,.716-.279h.713a1.027,1.027,0,0,1,.719.276,1.061,1.061,0,0,1,.716-.279h.71a1.08,1.08,0,0,1,.719.276,1.049,1.049,0,0,1,.713-.279h.71a1.072,1.072,0,0,1,.716.276,1.051,1.051,0,0,1,.719-.279l.707,0a1.05,1.05,0,0,1,.719.279,1.048,1.048,0,0,1,.716-.279l.713,0a1.054,1.054,0,0,1,1.06,1.06,1.064,1.064,0,0,1-1.051,1.06l-.722,0a1.049,1.049,0,0,1-.713-.279,1.059,1.059,0,0,1-.713.279l-.716,0a1.061,1.061,0,0,1-.716-.279,1.059,1.059,0,0,1-.713.279l-.716,0a1.049,1.049,0,0,1-.713-.279,1.061,1.061,0,0,1-.716.279l-.713,0a1.061,1.061,0,0,1-.716-.279,1.061,1.061,0,0,1-.716.279l-.713,0a1.061,1.061,0,0,1-.716-.279,1.049,1.049,0,0,1-.713.279l-.716,0a1.041,1.041,0,0,1-.713-.279,1.053,1.053,0,0,1-.716.279l-.713,0a1.064,1.064,0,0,1-.716-.276,1.03,1.03,0,0,1-.713.276l-.716,0a1.053,1.053,0,0,1-.716-.279,1.049,1.049,0,0,1-.71.282h-.716a1.059,1.059,0,0,1-.716-.276,1.055,1.055,0,0,1-.71.279Zm.716-.877a.186.186,0,0,0,.178-.183.2.2,0,0,0-.056-.135.24.24,0,0,0-.1-.045h-.017Zm0-.364h-.716a.181.181,0,0,0-.178.18.179.179,0,0,0,.18.183h.713Zm2.145.361a.185.185,0,0,0,.18-.189.18.18,0,0,0-.178-.175h0Zm-.716-.364a.182.182,0,1,0,0,.364h.71V91.1Zm2.142,0a.182.182,0,0,0,0,.364l.713,0a.184.184,0,0,0,.127-.048.17.17,0,0,0,.054-.121.184.184,0,0,0-.18-.192Zm2.145,0a.182.182,0,1,0,0,.364l.71,0a.18.18,0,1,0,0-.361Zm2.145,0a.182.182,0,0,0,0,.364l.713,0a.18.18,0,1,0,0-.361Zm2.844,0h-.7a.182.182,0,0,0,0,.364l.71-.006h0v-.358Zm2.134,0H110.6a.185.185,0,0,0-.183.186.183.183,0,0,0,.183.175l.71,0h0v-.358Zm-2.12,0v.358a.184.184,0,0,0,.18-.18.179.179,0,0,0-.054-.127C109.262,91.106,109.247,91.094,109.169,91.091Zm3.574-.006a.18.18,0,0,0,0,.361l.71,0a.179.179,0,1,0,0-.358Zm-1.429,0v.358a.179.179,0,0,0,.178-.18.164.164,0,0,0-.054-.127C111.418,91.114,111.4,91.1,111.313,91.089Zm4.284-.011-.707,0a.188.188,0,0,0-.186.175.184.184,0,0,0,.183.189l.713,0a.177.177,0,0,0,.178-.18A.182.182,0,0,0,115.6,91.077Zm2.148,0-.713,0a.182.182,0,1,0,0,.364l.716,0h0Zm0,0v.364a.181.181,0,0,0,.175-.18.156.156,0,0,0-.054-.127A.164.164,0,0,0,117.748,91.075Z" transform="translate(-96.677 -90.198)" fill="#fff"/>
                </g>
              </g>
              <g id="グループ_9260" data-name="グループ 9260" transform="translate(23.233)">
                <g id="グループ_9258" data-name="グループ 9258" transform="translate(0.434 0.434)">
                  <path id="パス_11079" data-name="パス 11079" d="M105.141,90.874h-.364a.183.183,0,0,1-.183-.183.18.18,0,0,1,.18-.183h.366a.183.183,0,0,1,0,.366Z" transform="translate(-104.151 -90.068)" fill="#fff"/>
                  <path id="パス_11080" data-name="パス 11080" d="M105.429,91.6h-.366a.623.623,0,1,1,0-1.246h.366a.623.623,0,0,1,0,1.246Zm-.186-.8a.261.261,0,0,0-.073.18.266.266,0,0,0,.073.18.259.259,0,0,0,.073-.178A.268.268,0,0,0,105.243,90.794Z" transform="translate(-104.437 -90.352)" fill="#fff"/>
                </g>
                <g id="グループ_9259" data-name="グループ 9259">
                  <path id="パス_11081" data-name="パス 11081" d="M105.059,91.593a.62.62,0,0,1,0-1.24h.366a.62.62,0,0,1,0,1.24Zm.18-.795a.252.252,0,0,0,0,.352.27.27,0,0,0,.07-.178A.247.247,0,0,0,105.239,90.8Z" transform="translate(-103.999 -89.916)" fill="#fff"/>
                  <path id="パス_11082" data-name="パス 11082" d="M105.709,92.315h-.366a1.058,1.058,0,1,1,0-2.117h.364a1.058,1.058,0,1,1,0,2.117Zm-.49-1.187a.169.169,0,0,0,0,.256l.127-.127Zm.5.13.127.118a.189.189,0,0,0,.045-.121.176.176,0,0,0-.045-.118Z" transform="translate(-104.283 -90.198)" fill="#fff"/>
                </g>
              </g>
            </g>
          </g>
        </g>
      </g>
    </g>
    <g id="グループ_9266" data-name="グループ 9266" transform="translate(939.438 4036.321)">
      <ellipse id="楕円形_1226" data-name="楕円形 1226" cx="34.316" cy="34.316" rx="34.316" ry="34.316" fill="#202360"/>
      <path id="パス_11083" data-name="パス 11083" d="M32.2,96.9a5.127,5.127,0,1,0-6.866,0,6.907,6.907,0,0,0-1.948,1.7,8.6,8.6,0,0,0-4.332-4.208,6.268,6.268,0,1,0-6.781,0,8.558,8.558,0,0,0-5.155,7.841v9.687a1.139,1.139,0,0,0,1.139,1.139H34.467a1.14,1.14,0,0,0,1.141-1.139V102.8A6.835,6.835,0,0,0,32.2,96.9Zm-6.282-3.782a2.849,2.849,0,1,1,2.849,2.85A2.854,2.854,0,0,1,25.921,93.114ZM15.668,85.137a3.988,3.988,0,1,1-3.988,3.988A3.994,3.994,0,0,1,15.668,85.137ZM9.4,102.229a6.267,6.267,0,0,1,12.534,0v8.546H9.4Zm23.929,8.546H24.213V102.8a4.557,4.557,0,0,1,9.115,0Z" transform="translate(12.951 -63.641)" fill="#fff"/>
    </g>
  </g>
</svg>
