<svg xmlns="http://www.w3.org/2000/svg" width="96.336" height="30.112" viewBox="0 0 96.336 30.112">
  <g id="CCC_logo" transform="translate(0.016 0.013)">
    <path id="パス_5208" data-name="パス 5208" d="M36.1,47.444A8.431,8.431,0,1,1,43.717,35.4h7a15.055,15.055,0,1,0,0,7.225h-7A8.431,8.431,0,0,1,36.1,47.444" transform="translate(-21.06 -23.97)" fill="#231815"/>
    <path id="パス_5209" data-name="パス 5209" d="M134.191,47.444A8.431,8.431,0,1,1,141.807,35.4h7a15.055,15.055,0,1,0,0,7.225h-7a8.431,8.431,0,0,1-7.616,4.819" transform="translate(-85.815 -23.97)" fill="#231815"/>
    <path id="パス_5210" data-name="パス 5210" d="M232.274,47.444A8.431,8.431,0,1,1,239.89,35.4h6.994a15.055,15.055,0,1,0,0,7.225H239.89a8.431,8.431,0,0,1-7.616,4.819" transform="translate(-150.564 -23.97)" fill="#231815"/>
  </g>
</svg>
