<svg id="グループ_1449" data-name="グループ 1449" xmlns="http://www.w3.org/2000/svg" width="28" height="28" viewBox="0 0 28 28">
  <rect id="長方形_1589" data-name="長方形 1589" width="28" height="28" fill="none"/>
  <path id="パス_896" data-name="パス 896" d="M458.484,341H438.7a1.694,1.694,0,0,0-1.712,1.673v19.86a1.7,1.7,0,0,0,1.712,1.675h19.779a1.7,1.7,0,0,0,1.717-1.675v-19.86A1.7,1.7,0,0,0,458.484,341Zm-14.606,19.776h-3.445V349.7h3.445Zm-1.722-12.588a2,2,0,1,1,2-2A2,2,0,0,1,442.155,348.187Zm14.614,12.588h-3.441V355.39c0-1.284-.023-2.937-1.789-2.937-1.791,0-2.064,1.4-2.064,2.845v5.478h-3.438V349.7h3.3v1.514h.047a3.617,3.617,0,0,1,3.257-1.789c3.484,0,4.128,2.293,4.128,5.276Z" transform="translate(-434.671 -338.9)" fill="#202360"/>
</svg>
