<svg xmlns="http://www.w3.org/2000/svg" width="29" height="28" viewBox="0 0 29 28">
  <g id="グループ_1448" data-name="グループ 1448" transform="translate(-0.303)">
    <rect id="長方形_1097" data-name="長方形 1097" width="29" height="28" transform="translate(0.303)" fill="none"/>
    <path id="パス_2" data-name="パス 2" d="M45.349,20.824A13.417,13.417,0,0,0,58.887,7.286V6.642a10.48,10.48,0,0,0,2.321-2.45,10.7,10.7,0,0,1-2.708.774,5.016,5.016,0,0,0,2.063-2.579A11.826,11.826,0,0,1,57.6,3.547,4.6,4.6,0,0,0,54.116,2a4.844,4.844,0,0,0-4.77,4.77A2.514,2.514,0,0,0,49.475,7.8a13.33,13.33,0,0,1-9.8-5.028,4.938,4.938,0,0,0-.645,2.45,5.123,5.123,0,0,0,2.063,4A4.346,4.346,0,0,1,38.9,8.575h0a4.712,4.712,0,0,0,3.868,4.642,3.975,3.975,0,0,1-1.289.129,2.194,2.194,0,0,1-.9-.129,4.884,4.884,0,0,0,4.513,3.352,9.735,9.735,0,0,1-5.931,2.063A3.569,3.569,0,0,1,38,18.5a12.17,12.17,0,0,0,7.349,2.321" transform="translate(-35.319 2.421)" fill="#202360" fill-rule="evenodd"/>
  </g>
</svg>
