<svg xmlns="http://www.w3.org/2000/svg" width="107.322" height="107.322" viewBox="0 0 107.322 107.322">
  <g id="グループ_5241" data-name="グループ 5241" transform="translate(-68.788 -205.204)">
    <g id="グループ_5225" data-name="グループ 5225" transform="translate(124.53 205.204)">
      <path id="パス_6470" data-name="パス 6470" d="M79.648,205.2V234.44a24.4,24.4,0,0,1,13.966,5.923l20.644-20.654A53.462,53.462,0,0,0,79.648,205.2Z" transform="translate(-79.648 -205.204)" fill="#202360"/>
    </g>
    <g id="グループ_5226" data-name="グループ 5226" transform="translate(140.493 222.681)">
      <path id="パス_6471" data-name="パス 6471" d="M103.459,221.277a45.25,45.25,0,0,1-.755,48.2l-9.111-9.111a32.781,32.781,0,0,0,.662-29.878l9.2-9.208m.878-12.668-20.67,20.675a24.45,24.45,0,0,1-.908,32.029l20.629,20.639a53.6,53.6,0,0,0,.95-73.343Z" transform="translate(-82.758 -208.609)" fill="#202360"/>
    </g>
    <g id="グループ_5227" data-name="グループ 5227" transform="translate(68.788 205.204)">
      <path id="パス_6472" data-name="パス 6472" d="M137.419,278.208a24.484,24.484,0,1,1-17.056-43.767V205.2a53.68,53.68,0,1,0,37.757,93.709Z" transform="translate(-68.788 -205.204)" fill="#202360"/>
    </g>
  </g>
</svg>
