<svg xmlns="http://www.w3.org/2000/svg" width="657.952" height="274.321" viewBox="0 0 657.952 274.321">
  <g id="アートワーク_54" data-name="アートワーク 54" transform="translate(328.976 137.16)">
    <g id="グループ_8387" data-name="グループ 8387" transform="translate(-328.976 -137.16)">
      <g id="グループ_8375" data-name="グループ 8375">
        <g id="グループ_8373" data-name="グループ 8373" transform="translate(230.497)">
          <path id="パス_10114" data-name="パス 10114" d="M100.751,89.31h-29.2A7.474,7.474,0,0,1,65.1,85.582L50.5,60.294a7.471,7.471,0,0,1,0-7.45L65.1,27.556a7.474,7.474,0,0,1,6.451-3.728h29.2a7.474,7.474,0,0,1,6.451,3.728l14.6,25.288a7.471,7.471,0,0,1,0,7.45L107.2,85.582A7.474,7.474,0,0,1,100.751,89.31Zm-29.2-63.3a5.283,5.283,0,0,0-4.563,2.635l-14.6,25.288a5.285,5.285,0,0,0,0,5.276L66.984,84.5a5.283,5.283,0,0,0,4.563,2.635h29.2A5.3,5.3,0,0,0,105.32,84.5l14.6-25.288a5.314,5.314,0,0,0,0-5.276l-14.6-25.288a5.3,5.3,0,0,0-4.569-2.635Z" transform="translate(9.233 115.398)" fill="#8f91af"/>
          <path id="パス_10115" data-name="パス 10115" d="M90.693,83.347H61.5a7.469,7.469,0,0,1-6.451-3.722l-14.6-25.288a7.471,7.471,0,0,1,0-7.45L55.045,21.6A7.474,7.474,0,0,1,61.5,17.871h29.2A7.484,7.484,0,0,1,97.149,21.6l14.6,25.288a7.471,7.471,0,0,1,0,7.45l-14.6,25.288A7.479,7.479,0,0,1,90.693,83.347ZM61.5,20.05a5.293,5.293,0,0,0-4.569,2.635l-14.6,25.288a5.313,5.313,0,0,0,0,5.276l14.6,25.288A5.293,5.293,0,0,0,61.5,81.173h29.2a5.293,5.293,0,0,0,4.569-2.635l14.6-25.288a5.285,5.285,0,0,0,0-5.276l-14.6-25.288a5.293,5.293,0,0,0-4.569-2.635Z" transform="translate(-39.449 86.548)" fill="#8f91af"/>
          <path id="パス_10116" data-name="パス 10116" d="M100.751,77.39h-29.2A7.469,7.469,0,0,1,65.1,73.668L50.5,48.38a7.471,7.471,0,0,1,0-7.45L65.1,15.642a7.462,7.462,0,0,1,6.451-3.728h29.2a7.462,7.462,0,0,1,6.451,3.728L121.8,40.93a7.471,7.471,0,0,1,0,7.45L107.2,73.668A7.469,7.469,0,0,1,100.751,77.39Zm-29.2-63.3a5.276,5.276,0,0,0-4.563,2.641l-14.6,25.288a5.285,5.285,0,0,0,0,5.276l14.6,25.288a5.283,5.283,0,0,0,4.563,2.635h29.2a5.3,5.3,0,0,0,4.569-2.635l14.6-25.288a5.314,5.314,0,0,0,0-5.276l-14.6-25.288a5.293,5.293,0,0,0-4.569-2.641Z" transform="translate(9.233 57.699)" fill="#8f91af"/>
          <path id="パス_10117" data-name="パス 10117" d="M110.878,83.347h-29.2a7.469,7.469,0,0,1-6.451-3.722l-14.6-25.288a7.471,7.471,0,0,1,0-7.45L75.224,21.6a7.474,7.474,0,0,1,6.451-3.728h29.2a7.474,7.474,0,0,1,6.451,3.728l14.6,25.288a7.471,7.471,0,0,1,0,7.45l-14.6,25.288A7.469,7.469,0,0,1,110.878,83.347Zm-29.2-63.3a5.283,5.283,0,0,0-4.563,2.635L62.51,47.974a5.285,5.285,0,0,0,0,5.276l14.6,25.288a5.283,5.283,0,0,0,4.563,2.635h29.2a5.3,5.3,0,0,0,4.569-2.635l14.6-25.288a5.314,5.314,0,0,0,0-5.276l-14.6-25.288a5.3,5.3,0,0,0-4.569-2.635Z" transform="translate(58.277 86.548)" fill="#8f91af"/>
          <path id="パス_10118" data-name="パス 10118" d="M110.878,71.433h-29.2a7.469,7.469,0,0,1-6.451-3.722l-14.6-25.288a7.471,7.471,0,0,1,0-7.45l14.6-25.288a7.462,7.462,0,0,1,6.451-3.728h29.2a7.462,7.462,0,0,1,6.451,3.728l14.6,25.288a7.471,7.471,0,0,1,0,7.45l-14.6,25.288A7.469,7.469,0,0,1,110.878,71.433Zm-29.2-63.3a5.276,5.276,0,0,0-4.563,2.641L62.51,36.06a5.285,5.285,0,0,0,0,5.276l14.6,25.288a5.283,5.283,0,0,0,4.563,2.635h29.2a5.3,5.3,0,0,0,4.569-2.635l14.6-25.288a5.314,5.314,0,0,0,0-5.276l-14.6-25.288a5.293,5.293,0,0,0-4.569-2.641Z" transform="translate(58.277 28.849)" fill="#8f91af"/>
          <path id="パス_10119" data-name="パス 10119" d="M121,101.224h-29.2A7.477,7.477,0,0,1,85.351,97.5L70.75,72.208a7.471,7.471,0,0,1,0-7.45l14.6-25.288a7.477,7.477,0,0,1,6.456-3.728H121a7.474,7.474,0,0,1,6.451,3.728l14.6,25.288a7.471,7.471,0,0,1,0,7.45L127.455,97.5A7.474,7.474,0,0,1,121,101.224Zm-29.2-63.3a5.285,5.285,0,0,0-4.569,2.635l-14.6,25.288a5.285,5.285,0,0,0,0,5.276l14.6,25.288a5.285,5.285,0,0,0,4.569,2.635H121a5.292,5.292,0,0,0,4.569-2.635l14.6-25.288a5.313,5.313,0,0,0,0-5.276l-14.6-25.288A5.292,5.292,0,0,0,121,37.921Z" transform="translate(107.321 173.097)" fill="#8f91af"/>
          <path id="パス_10120" data-name="パス 10120" d="M121,89.31h-29.2a7.477,7.477,0,0,1-6.456-3.728L70.75,60.294a7.471,7.471,0,0,1,0-7.45l14.6-25.288a7.477,7.477,0,0,1,6.456-3.728H121a7.474,7.474,0,0,1,6.451,3.728l14.6,25.288a7.471,7.471,0,0,1,0,7.45l-14.6,25.288A7.474,7.474,0,0,1,121,89.31Zm-29.2-63.3a5.285,5.285,0,0,0-4.569,2.635l-14.6,25.288a5.285,5.285,0,0,0,0,5.276L87.238,84.5a5.285,5.285,0,0,0,4.569,2.635H121a5.292,5.292,0,0,0,4.569-2.635l14.6-25.288a5.313,5.313,0,0,0,0-5.276l-14.6-25.288A5.292,5.292,0,0,0,121,26.007Z" transform="translate(107.321 115.398)" fill="#8f91af"/>
          <path id="パス_10121" data-name="パス 10121" d="M121,77.39h-29.2a7.471,7.471,0,0,1-6.456-3.722L70.75,48.38a7.471,7.471,0,0,1,0-7.45l14.6-25.288a7.464,7.464,0,0,1,6.456-3.728H121a7.462,7.462,0,0,1,6.451,3.728l14.6,25.288a7.471,7.471,0,0,1,0,7.45l-14.6,25.288A7.469,7.469,0,0,1,121,77.39Zm-29.2-63.3a5.279,5.279,0,0,0-4.569,2.641l-14.6,25.288a5.285,5.285,0,0,0,0,5.276l14.6,25.288a5.285,5.285,0,0,0,4.569,2.635H121a5.292,5.292,0,0,0,4.569-2.635l14.6-25.288a5.313,5.313,0,0,0,0-5.276l-14.6-25.288A5.286,5.286,0,0,0,121,14.088Z" transform="translate(107.321 57.699)" fill="#8f91af"/>
          <path id="パス_10122" data-name="パス 10122" d="M121,65.476h-29.2a7.471,7.471,0,0,1-6.456-3.722L70.75,36.466a7.471,7.471,0,0,1,0-7.45l14.6-25.288A7.464,7.464,0,0,1,91.808,0H121a7.462,7.462,0,0,1,6.451,3.728l14.6,25.288a7.471,7.471,0,0,1,0,7.45l-14.6,25.288A7.469,7.469,0,0,1,121,65.476Zm-29.2-63.3a5.279,5.279,0,0,0-4.569,2.641L72.637,30.1a5.274,5.274,0,0,0,0,5.27l14.6,25.288A5.279,5.279,0,0,0,91.808,63.3H121a5.286,5.286,0,0,0,4.569-2.641l14.6-25.288a5.3,5.3,0,0,0,0-5.27l-14.6-25.288A5.286,5.286,0,0,0,121,2.174Z" transform="translate(107.321)" fill="#8f91af"/>
          <path id="パス_10123" data-name="パス 10123" d="M131.131,95.267h-29.2a7.477,7.477,0,0,1-6.456-3.728l-14.6-25.288a7.443,7.443,0,0,1,0-7.45l14.6-25.288a7.477,7.477,0,0,1,6.456-3.728h29.2a7.474,7.474,0,0,1,6.451,3.728l14.6,25.288a7.471,7.471,0,0,1,0,7.45l-14.6,25.288A7.474,7.474,0,0,1,131.131,95.267Zm-29.2-63.3A5.285,5.285,0,0,0,97.364,34.6l-14.6,25.288a5.285,5.285,0,0,0,0,5.276l14.6,25.288a5.285,5.285,0,0,0,4.569,2.635h29.2a5.292,5.292,0,0,0,4.569-2.635l14.6-25.288a5.313,5.313,0,0,0,0-5.276L135.7,34.6a5.292,5.292,0,0,0-4.569-2.635Z" transform="translate(156.367 144.247)" fill="#8f91af"/>
          <path id="パス_10124" data-name="パス 10124" d="M131.131,83.347h-29.2a7.471,7.471,0,0,1-6.456-3.722l-14.6-25.288a7.443,7.443,0,0,1,0-7.45L95.477,21.6a7.477,7.477,0,0,1,6.456-3.728h29.2a7.474,7.474,0,0,1,6.451,3.728l14.6,25.288a7.471,7.471,0,0,1,0,7.45l-14.6,25.288A7.469,7.469,0,0,1,131.131,83.347Zm-29.2-63.3a5.285,5.285,0,0,0-4.569,2.635l-14.6,25.288a5.285,5.285,0,0,0,0,5.276l14.6,25.288a5.285,5.285,0,0,0,4.569,2.635h29.2a5.292,5.292,0,0,0,4.569-2.635L150.3,53.25a5.313,5.313,0,0,0,0-5.276L135.7,22.686a5.292,5.292,0,0,0-4.569-2.635Z" transform="translate(156.367 86.548)" fill="#8f91af"/>
          <path id="パス_10125" data-name="パス 10125" d="M131.131,71.433h-29.2a7.471,7.471,0,0,1-6.456-3.722l-14.6-25.288a7.443,7.443,0,0,1,0-7.45l14.6-25.288a7.464,7.464,0,0,1,6.456-3.728h29.2a7.462,7.462,0,0,1,6.451,3.728l14.6,25.288a7.471,7.471,0,0,1,0,7.45l-14.6,25.288A7.469,7.469,0,0,1,131.131,71.433Zm-29.2-63.3a5.278,5.278,0,0,0-4.569,2.641L82.763,36.06a5.285,5.285,0,0,0,0,5.276l14.6,25.288a5.285,5.285,0,0,0,4.569,2.635h29.2a5.292,5.292,0,0,0,4.569-2.635l14.6-25.288a5.313,5.313,0,0,0,0-5.276L135.7,10.772a5.286,5.286,0,0,0-4.569-2.641Z" transform="translate(156.367 28.849)" fill="#8f91af"/>
          <path id="パス_10126" data-name="パス 10126" d="M141.254,101.224h-29.2A7.477,7.477,0,0,1,105.6,97.5L91,72.208a7.471,7.471,0,0,1,0-7.45L105.6,39.47a7.477,7.477,0,0,1,6.456-3.728h29.2A7.475,7.475,0,0,1,147.7,39.47l14.6,25.288a7.471,7.471,0,0,1,0,7.45L147.7,97.5A7.475,7.475,0,0,1,141.254,101.224Zm-29.2-63.3a5.292,5.292,0,0,0-4.569,2.635l-14.6,25.288a5.285,5.285,0,0,0,0,5.276l14.6,25.288a5.293,5.293,0,0,0,4.569,2.635h29.2a5.292,5.292,0,0,0,4.569-2.635l14.6-25.288a5.313,5.313,0,0,0,0-5.276l-14.6-25.288a5.292,5.292,0,0,0-4.569-2.635Z" transform="translate(205.415 173.097)" fill="#8f91af"/>
          <path id="パス_10127" data-name="パス 10127" d="M141.254,89.31h-29.2a7.477,7.477,0,0,1-6.456-3.728L91,60.294a7.471,7.471,0,0,1,0-7.45l14.6-25.288a7.477,7.477,0,0,1,6.456-3.728h29.2a7.475,7.475,0,0,1,6.451,3.728l14.6,25.288a7.471,7.471,0,0,1,0,7.45L147.7,85.582A7.475,7.475,0,0,1,141.254,89.31Zm-29.2-63.3a5.293,5.293,0,0,0-4.569,2.635l-14.6,25.288a5.285,5.285,0,0,0,0,5.276l14.6,25.288a5.293,5.293,0,0,0,4.569,2.635h29.2a5.292,5.292,0,0,0,4.569-2.635l14.6-25.288a5.313,5.313,0,0,0,0-5.276l-14.6-25.288a5.292,5.292,0,0,0-4.569-2.635Z" transform="translate(205.415 115.398)" fill="#8f91af"/>
          <path id="パス_10128" data-name="パス 10128" d="M151.312,83.347h-29.2a7.469,7.469,0,0,1-6.451-3.722l-14.6-25.288a7.471,7.471,0,0,1,0-7.45l14.6-25.288a7.474,7.474,0,0,1,6.451-3.728h29.2a7.474,7.474,0,0,1,6.451,3.728l14.6,25.288a7.471,7.471,0,0,1,0,7.45l-14.6,25.288A7.469,7.469,0,0,1,151.312,83.347Zm-29.2-63.3a5.3,5.3,0,0,0-4.569,2.635l-14.6,25.288a5.285,5.285,0,0,0,0,5.276l14.6,25.288a5.3,5.3,0,0,0,4.569,2.635h29.2a5.3,5.3,0,0,0,4.569-2.635l14.6-25.288a5.285,5.285,0,0,0,0-5.276l-14.6-25.288a5.3,5.3,0,0,0-4.569-2.635Z" transform="translate(254.097 86.548)" fill="#8f91af"/>
        </g>
        <g id="グループ_8374" data-name="グループ 8374" transform="translate(0 6.633)">
          <rect id="長方形_3299" data-name="長方形 3299" width="230.596" height="2.175" transform="translate(0.87 129.438)" fill="#8f91af"/>
          <rect id="長方形_3300" data-name="長方形 3300" width="239.733" height="2.175" transform="translate(58.737 79.838)" fill="#8f91af"/>
          <rect id="長方形_3301" data-name="長方形 3301" width="166.203" height="2.175" transform="translate(132.266 179.908)" fill="#8f91af"/>
          <path id="パス_10129" data-name="パス 10129" d="M175.473,90.042H36.04V87.867H174.192L206.948,28.82l1.9,1.055Z" transform="translate(174.541 132.94)" fill="#8f91af"/>
          <rect id="長方形_3302" data-name="長方形 3302" width="148.8" height="2.175" transform="translate(269.101 250.61)" fill="#8f91af"/>
          <rect id="長方形_3303" data-name="長方形 3303" width="167.073" height="2.175" transform="translate(192.091 40.028)" fill="#8f91af"/>
          <rect id="長方形_3304" data-name="長方形 3304" width="136.182" height="2.175" transform="translate(281.718 6.091)" fill="#8f91af"/>
          <circle id="楕円形_1143" data-name="楕円形 1143" cx="6.961" cy="6.961" r="6.961" transform="translate(0 123.565)" fill="#8f91af"/>
          <circle id="楕円形_1144" data-name="楕円形 1144" cx="6.961" cy="6.961" r="6.961" transform="translate(124 174.035)" fill="#8f91af"/>
          <circle id="楕円形_1145" data-name="楕円形 1145" cx="6.961" cy="6.961" r="6.961" transform="translate(264.097 244.519)" fill="#8f91af"/>
          <circle id="楕円形_1146" data-name="楕円形 1146" cx="6.961" cy="6.961" r="6.961" transform="translate(207.101 214.933)" fill="#8f91af"/>
          <circle id="楕円形_1147" data-name="楕円形 1147" cx="6.961" cy="6.961" r="6.961" transform="translate(48.73 73.965)" fill="#8f91af"/>
          <circle id="楕円形_1148" data-name="楕円形 1148" cx="6.961" cy="6.961" r="6.961" transform="translate(183.606 33.937)" fill="#8f91af"/>
          <circle id="楕円形_1149" data-name="楕円形 1149" cx="6.961" cy="6.961" r="6.961" transform="translate(276.28)" fill="#8f91af"/>
        </g>
      </g>
      <path id="パス_10130" data-name="パス 10130" d="M99.941,56.237h-.906V48.378a10.719,10.719,0,0,0-21.438,0v7.859h-.906a3.1,3.1,0,0,0-3.1,3.1v16.1a3.1,3.1,0,0,0,3.1,3.1H99.941a3.093,3.093,0,0,0,3.091-3.1v-16.1A3.1,3.1,0,0,0,99.941,56.237ZM89.459,64.832v4.557a1.145,1.145,0,0,1-2.29,0V64.832a2.571,2.571,0,1,1,2.29,0Zm5.574-8.595H81.6V48.378a6.716,6.716,0,0,1,13.433,0Z" transform="translate(356.417 182.395)" fill="#202360"/>
      <path id="パス_10131" data-name="パス 10131" d="M87.927,14.646a14.748,14.748,0,1,0,14.748,14.748A14.747,14.747,0,0,0,87.927,14.646Zm0,27.736a12.989,12.989,0,1,1,12.989-12.989A12.987,12.987,0,0,1,87.927,42.382Z" transform="translate(354.402 70.93)" fill="#8f91af" stroke="#8f91af" stroke-linecap="round" stroke-linejoin="round" stroke-width="0.497"/>
      <rect id="長方形_3305" data-name="長方形 3305" width="1.669" height="10.887" transform="translate(451.855 111.185) rotate(-45)" fill="#8f91af" stroke="#8f91af" stroke-linecap="round" stroke-linejoin="round" stroke-width="0.497"/>
      <path id="パス_10132" data-name="パス 10132" d="M88.971,20.968H70.594a7.486,7.486,0,0,0-7.461,7.479V40.822a7.476,7.476,0,0,0,7.461,7.467h.59V53.2a1.233,1.233,0,0,0,1.969.987l7.976-5.9h7.841a7.486,7.486,0,0,0,7.473-7.467V28.447A7.5,7.5,0,0,0,88.971,20.968Zm5.416,19.854a5.419,5.419,0,0,1-5.416,5.411h-8.8L76.718,49l-3.477,2.577V46.461l-2.057-.228c-3.57,0-5.995-2.431-5.995-5.411V28.447a5.425,5.425,0,0,1,5.416-5.422H88.971a5.425,5.425,0,0,1,5.416,5.422Z" transform="translate(305.75 101.547)" fill="#8f91af" stroke="#8f91af" stroke-miterlimit="10" stroke-width="0.166"/>
      <path id="パス_10133" data-name="パス 10133" d="M117.579,23.172,103.6,9.2a2.09,2.09,0,0,0-1.5-.619,2.046,2.046,0,0,0-.818.164A2.111,2.111,0,0,0,99.975,10.7v6.538l-.748.14c-2.366.432-8.285,1.975-12.153,6.941-3.173,4.073-4.242,9.489-3.167,16.1A2.09,2.09,0,0,0,85.724,42.2l.339.035a2.144,2.144,0,0,0,1.916-1.186c1.94-3.8,5.422-8.5,10.961-9.273l1.034-.146v7.012a2.117,2.117,0,0,0,1.315,1.963,2.046,2.046,0,0,0,.818.164,2.072,2.072,0,0,0,1.5-.625l13.976-13.97A2.123,2.123,0,0,0,117.579,23.172Zm-1.432,1.578-13.97,13.97a.107.107,0,0,1-.117.023.09.09,0,0,1-.064-.1v-7.83a1.168,1.168,0,0,0-1.169-1.169h-.3c-7.438,0-11.914,5.7-14.356,10.476a.124.124,0,0,1-.164.082c-.093-.012-.1-.053-.111-.1-.976-6.024-.047-10.909,2.758-14.52,4.359-5.621,11.925-6.369,12-6.375l.269-.023A1.17,1.17,0,0,0,102,18.018V10.7a.082.082,0,0,1,.064-.093l.053-.018a.089.089,0,0,1,.064.035l13.97,13.97A.109.109,0,0,1,116.148,24.749Z" transform="translate(404.394 41.533)" fill="#8f91af"/>
      <g id="グループ_8376" data-name="グループ 8376" transform="translate(486.425 120.78)">
        <path id="パス_10134" data-name="パス 10134" d="M93.984,39.544a9.436,9.436,0,1,1,9.442-9.436A9.451,9.451,0,0,1,93.984,39.544Zm0-17.2a7.759,7.759,0,1,0,7.759,7.759A7.77,7.77,0,0,0,93.984,22.348Z" transform="translate(-76.964 -20.671)" fill="#8f91af" stroke="#8f91af" stroke-linecap="round" stroke-linejoin="round" stroke-width="0.497"/>
        <path id="パス_10135" data-name="パス 10135" d="M84.927,32.466a6.407,6.407,0,0,1,6.4-6.4h17.9a6.406,6.406,0,0,1,6.392,6.4v2.869H117.3V32.466a8.084,8.084,0,0,0-8.075-8.075h-17.9a8.084,8.084,0,0,0-8.075,8.075v2.869h1.677Z" transform="translate(-83.25 -2.655)" fill="#8f91af" stroke="#8f91af" stroke-linecap="round" stroke-linejoin="round" stroke-width="0.497"/>
      </g>
      <g id="グループ_8378" data-name="グループ 8378" transform="translate(427.48 14.426)">
        <path id="パス_10136" data-name="パス 10136" d="M83.06,8.563l-.976-.275A15.32,15.32,0,0,0,79.431,7.8a15.32,15.32,0,0,0-2.653.485l-.976.275L75.482,7.6a3.7,3.7,0,0,1-.2-1.186,4.16,4.16,0,0,1,8.309,0,3.7,3.7,0,0,1-.2,1.186ZM79.431,5.671l.064.006a15.615,15.615,0,0,1,1.9.263,2.1,2.1,0,0,0-3.926,0,15.615,15.615,0,0,1,1.9-.263Z" transform="translate(-62.917 -2.469)" fill="#8f91af"/>
        <g id="グループ_8377" data-name="グループ 8377" transform="translate(0 3.202)">
          <path id="パス_10137" data-name="パス 10137" d="M81.7,13.577a6.7,6.7,0,0,1-6.5-4.709l-.392-1.356H88.6l-.391,1.356A6.7,6.7,0,0,1,81.7,13.577Zm-3.78-3.938a4.851,4.851,0,0,0,7.561,0Z" transform="translate(-65.188 18.752)" fill="#8f91af"/>
          <path id="パス_10138" data-name="パス 10138" d="M102.729,31.408H76.623a3.409,3.409,0,0,1-3.138-1.94c-.614-1.321-.742-4.517,3.237-6.965,3.184-1.963,3.149-4.616,3.085-9.442-.012-.707-.023-1.449-.023-2.232,0-3.465,2.366-6.036,6.667-7.239a16.569,16.569,0,0,1,3.161-.567l.064-.006.064.006A16.569,16.569,0,0,1,92.9,3.59c4.3,1.2,6.667,3.775,6.667,7.239,0,.783-.012,1.525-.023,2.232-.064,4.826-.1,7.479,3.085,9.442h0c3.979,2.448,3.851,5.644,3.225,6.988A3.4,3.4,0,0,1,102.729,31.408ZM89.676,5.15a15.32,15.32,0,0,0-2.653.485c-3.395.952-5.113,2.7-5.113,5.194,0,.771.012,1.507.018,2.2.07,5.042.123,8.688-4.1,11.283-3.383,2.08-2.419,4.26-2.407,4.283a1.275,1.275,0,0,0,1.2.684h26.106a1.284,1.284,0,0,0,1.186-.66c.105-.234.859-2.3-2.4-4.306-4.219-2.594-4.166-6.24-4.1-11.283.006-.7.018-1.432.018-2.2,0-2.495-1.718-4.242-5.113-5.194A15.32,15.32,0,0,0,89.676,5.15Z" transform="translate(-73.162 -3.017)" fill="#8f91af"/>
        </g>
      </g>
      <path id="パス_10139" data-name="パス 10139" d="M124.612,51.759a16.565,16.565,0,0,0,2.3-8.461,16.79,16.79,0,1,0-8.244,14.438l7.368,2.3a.6.6,0,0,0,.748-.736Zm-3.658,4.347-2.612-.812-.018-.006-.006.023a14.552,14.552,0,1,1,3.938-3.991l-.093.023.023.088.777,2.67.83,2.886Z" transform="translate(452.157 128.449)" fill="#8f91af"/>
      <path id="パス_10140" data-name="パス 10140" d="M98.255,9.247H63.724a1.086,1.086,0,0,0-.725,1.9L76.385,22.972,79.5,40.2a1.083,1.083,0,0,0,2,.362L99.19,10.889A1.087,1.087,0,0,0,98.255,9.247ZM66.762,11.485H94.031L77.554,21.021ZM81.153,36.773l-2.5-13.807,16.384-9.477Z" transform="translate(303.319 44.783)" fill="#8f91af"/>
      <g id="グループ_8379" data-name="グループ 8379" transform="translate(307.801 160.652)">
        <path id="パス_10141" data-name="パス 10141" d="M55.141,30.907H77.882a1.72,1.72,0,0,1,1.356.643V29.8a2.308,2.308,0,0,0-2.3-2.308H69.8A2.309,2.309,0,0,0,67.487,29.8H54.662A2.44,2.44,0,0,1,55.141,30.907Z" transform="translate(-43.075 -27.495)" fill="none" stroke="#8f91af" stroke-linecap="round" stroke-linejoin="round" stroke-width="1.988"/>
        <path id="パス_10142" data-name="パス 10142" d="M64.423,29.915H87.485a1.313,1.313,0,0,1,1.356,1.262V48.4a1.308,1.308,0,0,1-1.356,1.256H54.029a1.3,1.3,0,0,1-1.35-1.256V29.915a2.229,2.229,0,0,1,2.3-2.144h7.14A2.229,2.229,0,0,1,64.423,29.915Z" transform="translate(-52.679 -26.158)" fill="none" stroke="#8f91af" stroke-linecap="round" stroke-linejoin="round" stroke-width="1.988"/>
      </g>
      <g id="グループ_8380" data-name="グループ 8380" transform="translate(487.445 188.271)">
        <path id="パス_10143" data-name="パス 10143" d="M112.058,46.169a32.24,32.24,0,0,1-.555,3.243c-1.735,7.806-5.954,13.637-12.545,17.365-6.591-3.728-10.809-9.559-12.551-17.365a35.941,35.941,0,0,1-.754-9.822,27.866,27.866,0,0,0,13.3-4.686,28,28,0,0,0,11.721,4.517l1.969-1.969a25.37,25.37,0,0,1-13.69-5.229A25.354,25.354,0,0,1,83.69,37.5S80.144,59.538,98.958,69.225c12.416-6.4,15.092-18.166,15.478-25.429Z" transform="translate(-83.425 -32.222)" fill="#8f91af"/>
        <path id="パス_10144" data-name="パス 10144" d="M89.9,55.026a.9.9,0,0,1-.649-.263l-3.985-3.991a.917.917,0,0,1,0-1.3l.555-.555a.9.9,0,0,1,.649-.275.969.969,0,0,1,.66.269l1.227,1.233a2.194,2.194,0,0,0,3.091-.012l17.009-16.991a.9.9,0,0,1,.649-.28.949.949,0,0,1,.66.275l.555.555a.944.944,0,0,1,.269.654.922.922,0,0,1-.275.649L90.552,54.758A.909.909,0,0,1,89.9,55.026Z" transform="translate(-75.819 -29.113)" fill="#8f91af"/>
      </g>
      <path id="パス_10145" data-name="パス 10145" d="M66.968,51.5a.98.98,0,0,1-.777-.374c-.52-.66-12.685-16.232-12.685-23.389a13.465,13.465,0,1,1,26.93,0c0,7.158-12.165,22.729-12.685,23.389A.983.983,0,0,1,66.968,51.5Zm0-35.245A11.493,11.493,0,0,0,55.493,27.735c0,5,7.666,16.127,11.476,21.146,3.815-5.019,11.481-16.15,11.481-21.146A11.494,11.494,0,0,0,66.968,16.254Zm0,16.337a5.545,5.545,0,1,1,5.551-5.545A5.553,5.553,0,0,1,66.968,32.59Zm0-9.109a3.561,3.561,0,1,0,3.564,3.564A3.566,3.566,0,0,0,66.968,23.481Z" transform="translate(259.127 69.094)" fill="#8f91af" stroke="#8f91af" stroke-miterlimit="10" stroke-width="0.331"/>
      <g id="グループ_8381" data-name="グループ 8381" transform="translate(608.426 116.502)">
        <path id="パス_10146" data-name="パス 10146" d="M126.968,20.036H106.108a1.879,1.879,0,0,0-1.881,1.876V57.9a1.875,1.875,0,0,0,1.881,1.876h20.859a1.875,1.875,0,0,0,1.881-1.876V21.912A1.879,1.879,0,0,0,126.968,20.036ZM128.014,57.9a1.049,1.049,0,0,1-1.046,1.046H106.108a1.049,1.049,0,0,1-1.046-1.046V21.912a1.044,1.044,0,0,1,1.046-1.04h3.541l.725,1.531a.787.787,0,0,0,.719.444L122,22.753a.779.779,0,0,0,.7-.438l.724-1.443h3.547a1.044,1.044,0,0,1,1.046,1.04Z" transform="translate(-103.66 -19.469)" fill="#8f91af"/>
        <path id="パス_10147" data-name="パス 10147" d="M127.438,60.816H106.572a2.445,2.445,0,0,1-2.442-2.442V22.387a2.45,2.45,0,0,1,2.442-2.448h20.865a2.447,2.447,0,0,1,2.448,2.448V58.374A2.442,2.442,0,0,1,127.438,60.816ZM106.572,21.908a.476.476,0,0,0-.473.479V58.374a.48.48,0,0,0,.473.479h20.865a.481.481,0,0,0,.479-.479V22.387a.478.478,0,0,0-.479-.479h-3.19l-.567,1.134a1.364,1.364,0,0,1-1.2.748l-10.915.1a1.364,1.364,0,0,1-1.233-.777l-.578-1.2Zm4.049-.836.012.023.724,1.531a.229.229,0,0,0,.2.123l10.909-.093a.214.214,0,0,0,.187-.123l.724-1.449.006-.012Z" transform="translate(-104.13 -19.939)" fill="#8f91af"/>
      </g>
      <g id="グループ_8382" data-name="グループ 8382" transform="translate(551.848 226.186)">
        <ellipse id="楕円形_1150" data-name="楕円形 1150" cx="3.172" cy="3.172" rx="3.172" ry="3.172" transform="translate(0 19.935)" fill="#8f91af"/>
        <path id="パス_10148" data-name="パス 10148" d="M104.617,53.754H107.6a12.974,12.974,0,0,0-12.96-12.96V43.78A9.987,9.987,0,0,1,104.617,53.754Z" transform="translate(-93.497 -28.623)" fill="#8f91af"/>
        <path id="パス_10149" data-name="パス 10149" d="M110.822,58.892h2.986A19.186,19.186,0,0,0,94.643,39.733v2.98A16.2,16.2,0,0,1,110.822,58.892Z" transform="translate(-93.497 -33.761)" fill="#8f91af"/>
        <path id="パス_10150" data-name="パス 10150" d="M94.643,38.711V41.7a22.168,22.168,0,0,1,22.145,22.145h2.986A25.16,25.16,0,0,0,94.643,38.711Z" transform="translate(-93.497 -38.711)" fill="#8f91af"/>
      </g>
      <g id="グループ_8385" data-name="グループ 8385" transform="translate(245.152 125.413)">
        <g id="パス_10151" data-name="パス 10151" transform="translate(-41.957 -21.464)" fill="#8f91af" stroke-linecap="round" stroke-linejoin="round">
          <path d="M 82.89854431152344 47.65309143066406 L 44.99534225463867 47.65309143066406 C 43.27433013916016 47.65309143066406 41.87419128417969 46.25296401977539 41.87419128417969 44.53196334838867 L 41.87419128417969 24.50232315063477 C 41.87419128417969 22.78132247924805 43.27433013916016 21.38119316101074 44.99534225463867 21.38119316101074 L 82.89854431152344 21.38119316101074 C 84.61955261230469 21.38119316101074 86.01969146728516 22.78132247924805 86.01969146728516 24.50232315063477 L 86.01969146728516 44.53196334838867 C 86.01969146728516 46.25296401977539 84.61955261230469 47.65309143066406 82.89854431152344 47.65309143066406 Z M 44.99534225463867 22.95495414733887 C 44.14533996582031 22.95495414733887 43.45382308959961 23.64910316467285 43.45382308959961 24.50232315063477 L 43.45382308959961 44.53196334838867 C 43.45382308959961 45.38196182250977 44.14533996582031 46.07348251342773 44.99534225463867 46.07348251342773 L 82.89854431152344 46.07348251342773 C 83.75176239013672 46.07348251342773 84.44590759277344 45.38196182250977 84.44590759277344 44.53196334838867 L 84.44590759277344 24.50232315063477 C 84.44590759277344 23.64910316467285 83.75176239013672 22.95495414733887 82.89854431152344 22.95495414733887 L 44.99534225463867 22.95495414733887 Z" stroke="none"/>
          <path d="M 82.89854431152344 47.57028198242188 C 84.575439453125 47.57028198242188 85.93688201904297 46.20303344726562 85.93688201904297 44.53196334838867 L 85.93688201904297 24.50232315063477 C 85.93688201904297 22.82541275024414 84.575439453125 21.46400260925293 82.89854431152344 21.46400260925293 L 44.99534225463867 21.46400260925293 C 43.31841278076172 21.46400260925293 41.95700073242188 22.82541275024414 41.95700073242188 24.50232315063477 L 41.95700073242188 44.53196334838867 C 41.95700073242188 46.20303344726562 43.31841278076172 47.57028198242188 44.99534225463867 47.57028198242188 L 82.89854431152344 47.57028198242188 M 44.99534225463867 22.87214279174805 L 82.89854431152344 22.87214279174805 C 83.79835510253906 22.87214279174805 84.52872467041016 23.60251235961914 84.52872467041016 24.50232315063477 L 84.52872467041016 44.53196334838867 C 84.52872467041016 45.42592239379883 83.79835510253906 46.15629196166992 82.89854431152344 46.15629196166992 L 44.99534225463867 46.15629196166992 C 44.10138320922852 46.15629196166992 43.37100982666016 45.42592239379883 43.37100982666016 44.53196334838867 L 43.37100982666016 24.50232315063477 C 43.37100982666016 23.60251235961914 44.10138320922852 22.87214279174805 44.99534225463867 22.87214279174805 M 82.89854431152344 47.73591232299805 L 44.99534225463867 47.73591232299805 C 43.22867202758789 47.73591232299805 41.7913703918457 46.29862213134766 41.7913703918457 44.53196334838867 L 41.7913703918457 24.50232315063477 C 41.7913703918457 22.73566246032715 43.22867202758789 21.29837417602539 44.99534225463867 21.29837417602539 L 82.89854431152344 21.29837417602539 C 84.66521453857422 21.29837417602539 86.10250854492188 22.73566246032715 86.10250854492188 24.50232315063477 L 86.10250854492188 44.53196334838867 C 86.10250854492188 46.29862213134766 84.66521453857422 47.73591232299805 82.89854431152344 47.73591232299805 Z M 44.99534225463867 23.03777313232422 C 44.19100952148438 23.03777313232422 43.53664016723633 23.69476318359375 43.53664016723633 24.50232315063477 L 43.53664016723633 44.53196334838867 C 43.53664016723633 45.3362922668457 44.19100952148438 45.99066162109375 44.99534225463867 45.99066162109375 L 82.89854431152344 45.99066162109375 C 83.70610046386719 45.99066162109375 84.36309051513672 45.3362922668457 84.36309051513672 44.53196334838867 L 84.36309051513672 24.50232315063477 C 84.36309051513672 23.69476318359375 83.70610046386719 23.03777313232422 82.89854431152344 23.03777313232422 L 44.99534225463867 23.03777313232422 Z" stroke="none" fill="#8f91af"/>
        </g>
        <rect id="長方形_3306" data-name="長方形 3306" width="42.45" height="4.468" transform="translate(0.707 5.408)" fill="#8f91af"/>
        <rect id="長方形_3307" data-name="長方形 3307" width="8.819" height="1.999" transform="translate(2.823 19.166)" fill="#8f91af"/>
        <rect id="長方形_3308" data-name="長方形 3308" width="8.819" height="1.999" transform="translate(12.583 19.166)" fill="#8f91af"/>
        <rect id="長方形_3309" data-name="長方形 3309" width="8.819" height="1.999" transform="translate(22.343 19.166)" fill="#8f91af"/>
        <rect id="長方形_3310" data-name="長方形 3310" width="8.819" height="1.999" transform="translate(32.103 19.166)" fill="#8f91af"/>
        <rect id="長方形_3311" data-name="長方形 3311" width="1.999" height="5.174" transform="translate(6.41 11.523)" fill="#8f91af"/>
        <path id="パス_10152" data-name="パス 10152" d="M44.836,23.436h-.59a1.586,1.586,0,0,0-1.583,1.589V25.2h2.174Z" transform="translate(-38.543 -11.914)" fill="#8f91af"/>
        <g id="グループ_8383" data-name="グループ 8383" transform="translate(8.525 11.522)">
          <path id="パス_10153" data-name="パス 10153" d="M43.416,23.758v3.3h.707a1.591,1.591,0,0,0,1.589-1.589V23.758Z" transform="translate(-43.416 -21.877)" fill="#8f91af"/>
          <path id="パス_10154" data-name="パス 10154" d="M45.712,25.2v-.175a1.591,1.591,0,0,0-1.589-1.589h-.707V25.2Z" transform="translate(-43.416 -23.436)" fill="#8f91af"/>
        </g>
        <g id="グループ_8384" data-name="グループ 8384" transform="translate(4.117 13.404)">
          <rect id="長方形_3312" data-name="長方形 3312" width="2.175" height="1.529" fill="#8f91af"/>
          <path id="パス_10155" data-name="パス 10155" d="M42.662,24.04V24.1a1.586,1.586,0,0,0,1.583,1.589h.59V24.04Z" transform="translate(-42.659 -22.393)" fill="#8f91af"/>
        </g>
      </g>
      <g id="グループ_8386" data-name="グループ 8386" transform="translate(428.906 152.349)">
        <path id="パス_10156" data-name="パス 10156" d="M103.086,34.184a.911.911,0,0,1-.719-.356A13.777,13.777,0,0,0,99.277,31.1a19.642,19.642,0,0,0-9.5-3.19c-.409-.035-.818-.047-1.227-.047a17.73,17.73,0,0,0-9.244,2.752A20.219,20.219,0,0,0,75.18,33.88a.915.915,0,0,1-.672.3.87.87,0,0,1-.6-.234.9.9,0,0,1-.07-1.262,22.143,22.143,0,0,1,4.464-3.558A19.814,19.814,0,0,1,88.6,26.074c.438,0,.876.012,1.315.047,9.29.719,13.708,6.386,13.889,6.632a.907.907,0,0,1-.175,1.256A.937.937,0,0,1,103.086,34.184Z" transform="translate(-72.392 -26.074)" fill="#8f91af"/>
        <path id="パス_10157" data-name="パス 10157" d="M74.189,37.579a.9.9,0,0,1-.59-1.116,13.564,13.564,0,0,1,3.085-4.891c2.109-2.191,5.971-4.8,12.4-4.8a19.879,19.879,0,0,1,7.4,1.262,12.041,12.041,0,0,1,4.312,2.851,9.424,9.424,0,0,1,2.413,4.283.9.9,0,0,1-.725,1.04l-.041.006a.922.922,0,0,1-1-.719,7.615,7.615,0,0,0-2.033-3.471c-2.22-2.267-5.79-3.465-10.33-3.465-4.663,0-8.4,1.432-11.119,4.26a11.85,11.85,0,0,0-2.659,4.16.894.894,0,0,1-.859.643Z" transform="translate(-72.663 -22.703)" fill="#8f91af"/>
        <path id="パス_10158" data-name="パス 10158" d="M102.879,51.059a.9.9,0,0,1-.637-.263c-.958-.9-2.074-1.934-2.921-5.656a14.54,14.54,0,0,1-.2-3.3,29.581,29.581,0,0,0-.6-6.825c-.824-3.839-3.78-5.86-8.554-5.86-.409,0-.812.018-1.21.041-4.271.286-6.807,3.079-9.512,7.491a6.686,6.686,0,0,1-3.477,3.214,2.869,2.869,0,0,1-.847.129,2.32,2.32,0,0,1-1.052-.234.894.894,0,0,1-.351-1.215.877.877,0,0,1,.783-.467l.619.129c.3,0,1.385-.181,2.8-2.489a23.98,23.98,0,0,1,4.417-5.6,10.632,10.632,0,0,1,6.5-2.735c.456-.035.9-.047,1.332-.047a12.646,12.646,0,0,1,5.884,1.268,8.368,8.368,0,0,1,4.406,6,30.647,30.647,0,0,1,.637,7.21,13.372,13.372,0,0,0,.169,2.886c.719,3.19,1.554,3.967,2.168,4.534.444.432.538.66.538.9a.881.881,0,0,1-.263.625A.894.894,0,0,1,102.879,51.059Z" transform="translate(-73.406 -19.788)" fill="#8f91af"/>
        <path id="パス_10159" data-name="パス 10159" d="M79.133,41.486a1.006,1.006,0,0,1-.649-1.087,25.216,25.216,0,0,0,0-10.722,1.006,1.006,0,0,1,.649-1.087h.082a.915.915,0,0,1,1,.654,26.5,26.5,0,0,1,0,11.587.887.887,0,0,1-.865.678Z" transform="translate(-48.901 -13.884)" fill="#8f91af"/>
        <path id="パス_10160" data-name="パス 10160" d="M100.867,50.784c-5.574-2.086-5.539-5.738-5.475-11.791l.018-2.29c0-2.495-.59-4.353-1.759-5.516a4.237,4.237,0,0,0-2.682-1.239,6.961,6.961,0,0,0-1.256-.117c-1.689,0-4.826.649-6.819,5.054-2.886,6.386-8.256,6.941-8.484,6.965H74.4a.915.915,0,0,1-.958-.818.9.9,0,0,1,.812-.97h0a7.4,7.4,0,0,0,2.594-.906,10.4,10.4,0,0,0,4.411-5.007c1.747-3.856,4.33-5.282,6.182-5.79a8.4,8.4,0,0,1,2.29-.316,7.589,7.589,0,0,1,1.326.117,6.031,6.031,0,0,1,3.85,1.765c1.513,1.507,2.279,3.792,2.279,6.778L97.18,39.01c-.064,6.153-.088,8.449,4.312,10.1a.878.878,0,0,1,.5.467.9.9,0,0,1,.023.684.9.9,0,0,1-.836.578Z" transform="translate(-73.229 -16.538)" fill="#8f91af"/>
        <path id="パス_10161" data-name="パス 10161" d="M80.633,50.944a.89.89,0,0,1-.736-.386.881.881,0,0,1,.222-1.239C91.472,41.42,92,36.091,92.284,33.234a2.821,2.821,0,0,0-2.436-2.688,3.233,3.233,0,0,0-.707-.076c-1.548,0-2.816,1.139-3.482,3.132-2.2,6.591-10.547,10.8-10.9,10.973a2.815,2.815,0,0,1-.356.029.815.815,0,0,1-.841-.427.892.892,0,0,1,.4-1.2c.333-.169,8.092-4.207,10.009-9.939a6.582,6.582,0,0,1,2.688-3.669,4.887,4.887,0,0,1,2.507-.689,5.43,5.43,0,0,1,1.063.111,5.284,5.284,0,0,1,2.8,1.6,3.959,3.959,0,0,1,1.046,3.015,15.837,15.837,0,0,1-2.4,7.269c-2.045,3.3-5.487,6.6-10.523,10.108Z" transform="translate(-73.136 -13.444)" fill="#8f91af"/>
        <path id="パス_10162" data-name="パス 10162" d="M74.807,44.526a.9.9,0,0,1-.52-1.624c.391-.286,9.577-6.965,11.522-12.8a.891.891,0,0,1,.847-.614,1.015,1.015,0,0,1,.847,1.174c-2.162,6.486-11.768,13.4-12.177,13.684A.846.846,0,0,1,74.807,44.526Z" transform="translate(-70.961 -9.521)" fill="#8f91af"/>
        <path id="パス_10163" data-name="パス 10163" d="M81.906,39.431a.922.922,0,0,1-.473-.134c-3.138-1.963-4.219-4.184-4.575-5.7a6.377,6.377,0,0,1-.169-1.9.774.774,0,0,1,.771-.725l1.209.362h-.006c-.146,0-1.11,3.418,3.716,6.439a.9.9,0,0,1,.4.561.865.865,0,0,1-.117.666A.884.884,0,0,1,81.906,39.431Z" transform="translate(-57.57 -2.334)" fill="#8f91af"/>
        <path id="パス_10164" data-name="パス 10164" d="M75.827,36.883a.893.893,0,0,1-.356-1.209c.088-.164,2.115-3.874,4.914-3.874,1.77.058,3.2,1.379,4.353,3.932a.889.889,0,0,1-.444,1.18A2.688,2.688,0,0,1,84,36.93c-.52,0-.765-.187-.888-.456-.83-1.829-1.782-2.857-2.676-2.886h0c-1.467,0-2.98,2.179-3.395,2.939a.9.9,0,0,1-.789.467Z" transform="translate(-63.93 1.657)" fill="#8f91af"/>
        <path id="パス_10165" data-name="パス 10165" d="M77.2,34.866a1.242,1.242,0,1,1,1.239-1.245A1.246,1.246,0,0,1,77.2,34.866Z" transform="translate(-61.041 4.48)" fill="#8f91af"/>
      </g>
    </g>
  </g>
</svg>
