<svg xmlns="http://www.w3.org/2000/svg" width="493.702" height="318.23" viewBox="0 0 493.702 318.23">
  <g id="グループ_11563" data-name="グループ 11563" transform="translate(-95.173 -140.953)">
    <line id="線_175" data-name="線 175" x1="32.782" y1="62.3" transform="translate(175.697 380.761)" fill="none" stroke="#202360" stroke-miterlimit="10" stroke-width="0.709"/>
    <line id="線_176" data-name="線 176" y1="79.357" x2="106.082" transform="translate(112.888 192.733)" fill="none" stroke="#202360" stroke-miterlimit="10" stroke-width="0.709"/>
    <line id="線_177" data-name="線 177" y1="45.38" x2="38.9" transform="translate(531.927 334.309)" fill="none" stroke="#202360" stroke-miterlimit="10" stroke-width="0.709"/>
    <path id="パス_12857" data-name="パス 12857" d="M455.327,194.784v36.145a5.055,5.055,0,0,1-5.056,5.056h-77.05" transform="translate(3.109 0.602)" fill="none" stroke="#202360" stroke-miterlimit="10" stroke-width="0.709"/>
    <path id="パス_12858" data-name="パス 12858" d="M550.969,257.19v36.473a5.056,5.056,0,0,1-5.056,5.056H424.065" transform="translate(3.678 1.3)" fill="none" stroke="#202360" stroke-miterlimit="10" stroke-width="0.709"/>
    <path id="パス_12859" data-name="パス 12859" d="M528.529,377.048v24.879a5.057,5.057,0,0,1-5.056,5.056H399.025" transform="translate(3.398 2.64)" fill="none" stroke="#202360" stroke-miterlimit="10" stroke-width="0.709"/>
    <path id="パス_12860" data-name="パス 12860" d="M498.272,164.056h46.812a5.056,5.056,0,0,1,5.056,5.056v87.361" transform="translate(4.508 0.258)" fill="none" stroke="#202360" stroke-miterlimit="10" stroke-width="2.126"/>
    <path id="パス_12861" data-name="パス 12861" d="M499.751,164.056v46.259a5.056,5.056,0,0,1-5.056,5.056H366" transform="translate(3.029 0.258)" fill="none" stroke="#202360" stroke-miterlimit="10" stroke-width="2.126"/>
    <rect id="長方形_3796" data-name="長方形 3796" width="41.878" height="41.878" transform="translate(143.184 148.432)" fill="#202360"/>
    <rect id="長方形_3797" data-name="長方形 3797" width="19.928" height="19.928" transform="translate(544.683 246.768)" fill="#202360"/>
    <rect id="長方形_3798" data-name="長方形 3798" width="20.982" height="20.982" transform="translate(197.988 432.569)" fill="#202360"/>
    <circle id="楕円形_1401" data-name="楕円形 1401" cx="17.983" cy="17.983" r="17.983" transform="translate(125.201 392.137)" fill="#202360"/>
    <circle id="楕円形_1402" data-name="楕円形 1402" cx="23.362" cy="23.362" r="23.362" transform="translate(479.418 140.953)" fill="#202360"/>
    <path id="パス_12862" data-name="パス 12862" d="M492.024,418.454H470.3L459.44,437.267,470.3,456.079h21.723l10.861-18.812Z" transform="translate(4.074 3.103)" fill="#202360"/>
    <path id="パス_12863" data-name="パス 12863" d="M463.487,199.2V188.143l-9.576-5.528-9.576,5.528V199.2l9.576,5.528Z" transform="translate(3.905 0.466)" fill="#797ba0"/>
    <path id="パス_12864" data-name="パス 12864" d="M242.842,348.019v87.67a5.056,5.056,0,0,1-5.056,5.056h-30.56" transform="translate(1.253 2.316)" fill="none" stroke="#202360" stroke-miterlimit="10" stroke-width="0.709"/>
    <path id="パス_12865" data-name="パス 12865" d="M483.185,437.564H428.7a5.055,5.055,0,0,1-5.056-5.056v-87.67" transform="translate(3.673 2.28)" fill="none" stroke="#202360" stroke-miterlimit="10" stroke-width="2.126"/>
    <line id="線_178" data-name="線 178" y1="68.458" transform="translate(399.916 341.165)" fill="none" stroke="#202360" stroke-miterlimit="10" stroke-width="1"/>
    <path id="パス_12866" data-name="パス 12866" d="M163.36,169.057v50.9a5.056,5.056,0,0,0,5.056,5.056H291.794" transform="translate(0.763 0.314)" fill="none" stroke="#202360" stroke-miterlimit="10" stroke-width="2.126"/>
    <path id="パス_12867" data-name="パス 12867" d="M163.955,169.057H115.248a5.056,5.056,0,0,0-5.056,5.056V283.844" transform="translate(0.168 0.314)" fill="none" stroke="#202360" stroke-miterlimit="10" stroke-width="0.709"/>
    <path id="パス_12868" data-name="パス 12868" d="M142.653,407.966V338.625a5.056,5.056,0,0,1,5.056-5.056h83.98" transform="translate(0.531 2.154)" fill="none" stroke="#202360" stroke-miterlimit="10" stroke-width="2.126"/>
    <path id="パス_12869" data-name="パス 12869" d="M567.356,332.751h-67A5.056,5.056,0,0,1,495.3,327.7V285.248a5.055,5.055,0,0,0-5.056-5.056H405.623" transform="translate(3.472 1.557)" fill="none" stroke="#202360" stroke-miterlimit="10" stroke-width="2.126"/>
    <path id="パス_12870" data-name="パス 12870" d="M174.807,378.828v-60a5.056,5.056,0,0,1,5.056-5.056h87.67" transform="translate(0.891 1.933)" fill="none" stroke="#202360" stroke-miterlimit="10" stroke-width="0.709"/>
    <path id="パス_12871" data-name="パス 12871" d="M527.891,377.51H461.123a5.056,5.056,0,0,1-5.056-5.056V335.7" transform="translate(4.036 2.178)" fill="none" stroke="#202360" stroke-miterlimit="10" stroke-width="0.709"/>
    <path id="パス_12872" data-name="パス 12872" d="M217.6,192.16h41.2a5.056,5.056,0,0,1,5.056,5.056v87.671" transform="translate(1.369 0.573)" fill="none" stroke="#202360" stroke-miterlimit="10" stroke-width="0.709"/>
    <line id="線_179" data-name="線 179" x2="129.444" transform="translate(112.888 280.482)" fill="none" stroke="#202360" stroke-miterlimit="10" stroke-width="0.709"/>
    <path id="パス_12873" data-name="パス 12873" d="M459.618,280.5l-17.673-17.673v-6.088a31.662,31.662,0,0,0-9.257-22.385l-4.209-4.209a31.717,31.717,0,0,0-22.379-9.29H393.461a43.222,43.222,0,0,0-43.112-42.691H316.618a43.1,43.1,0,0,0-43.085,41.889h-10.8a37.486,37.486,0,0,0-37.48,37.489v.032a41.037,41.037,0,0,0-32.432,40.053v21.9a41.008,41.008,0,0,0,11.99,28.994l3.784,3.79a41.1,41.1,0,0,0,28.989,12.025h50.891v22.09l37.02,37.02,37.032-37.025V366.363h64.359a46.281,46.281,0,0,0,46.279-46.282v-6.818A46.344,46.344,0,0,0,459.618,280.5Z" transform="translate(1.092 0.416)" fill="#f3f3f7"/>
    <g id="グループ_11007" data-name="グループ 11007" transform="translate(208.074 192.733)">
      <g id="グループ_8390" data-name="グループ 8390" transform="translate(115.45 43.389)">
        <path id="パス_10166" data-name="パス 10166" d="M323.133,239.316a2.123,2.123,0,1,1,2.124-2.123h0A2.131,2.131,0,0,1,323.133,239.316Zm0-3.267a1.139,1.139,0,1,0,1.136,1.142v0a1.14,1.14,0,0,0-1.136-1.138Z" transform="translate(-320.998 -235.069)" fill="#202360"/>
        <path id="パス_10167" data-name="パス 10167" d="M323.134,249.423a2.13,2.13,0,1,1,2.124-2.136v.005A2.133,2.133,0,0,1,323.134,249.423Zm0-3.267a1.138,1.138,0,1,0,1.136,1.14v0A1.137,1.137,0,0,0,323.134,246.156Z" transform="translate(-320.998 -234.956)" fill="#202360"/>
      </g>
      <g id="グループ_8391" data-name="グループ 8391" transform="translate(117.026 12.199)">
        <rect id="長方形_3313" data-name="長方形 3313" width="7.516" height="0.992" transform="translate(6.089 3.039)" fill="#202360"/>
        <path id="パス_10168" data-name="パス 10168" d="M338.575,211.3a3.539,3.539,0,1,1,3.539-3.545A3.539,3.539,0,0,1,338.575,211.3Zm0-5.105a1.561,1.561,0,1,0,1.557,1.565v-.005A1.562,1.562,0,0,0,338.575,206.2Z" transform="translate(-322.417 -204.224)" fill="#202360"/>
        <path id="パス_10169" data-name="パス 10169" d="M326.1,211.3a3.539,3.539,0,1,1,3.539-3.548A3.539,3.539,0,0,1,326.1,211.3Zm0-5.105a1.561,1.561,0,1,0,1.558,1.564v-.007A1.563,1.563,0,0,0,326.1,206.2Z" transform="translate(-322.557 -204.224)" fill="#202360"/>
      </g>
      <g id="グループ_8394" data-name="グループ 8394" transform="translate(26.396 112.732)">
        <g id="グループ_8392" data-name="グループ 8392">
          <rect id="長方形_3314" data-name="長方形 3314" width="0.992" height="5.123" transform="translate(1.628 3.753)" fill="#202360"/>
          <path id="パス_10170" data-name="パス 10170" d="M235.052,307.892a2.123,2.123,0,1,1,2.123-2.123h0A2.131,2.131,0,0,1,235.052,307.892Zm0-3.264a1.138,1.138,0,1,0,1.136,1.14v0A1.138,1.138,0,0,0,235.052,304.628Z" transform="translate(-232.929 -303.645)" fill="#202360"/>
        </g>
        <g id="グループ_8393" data-name="グループ 8393" transform="translate(58.088 15.716)">
          <rect id="長方形_3315" data-name="長方形 3315" width="5.123" height="0.992" transform="translate(0 1.634)" fill="#202360"/>
          <path id="パス_10171" data-name="パス 10171" d="M297.08,323.446a2.13,2.13,0,1,1,2.123-2.136v.012A2.128,2.128,0,0,1,297.08,323.446Zm0-3.267a1.139,1.139,0,1,0,1.139,1.139h0A1.138,1.138,0,0,0,297.08,320.179Z" transform="translate(-290.323 -319.187)" fill="#202360"/>
        </g>
        <path id="パス_10172" data-name="パス 10172" d="M262.67,335.963H241.83a7.786,7.786,0,0,1-7.786-7.78v-15.76h1.985v15.76a5.8,5.8,0,0,0,5.8,5.8H262.67a5.806,5.806,0,0,0,5.8-5.8,7.787,7.787,0,0,1,7.78-7.786H291v1.982H276.247a5.808,5.808,0,0,0-5.8,5.8A7.785,7.785,0,0,1,262.67,335.963Z" transform="translate(-232.917 -303.547)" fill="#202360"/>
      </g>
      <g id="グループ_8397" data-name="グループ 8397" transform="translate(135.924 111.991)">
        <g id="グループ_8395" data-name="グループ 8395" transform="translate(88.852)">
          <rect id="長方形_3316" data-name="長方形 3316" width="5.123" height="0.992" transform="translate(0 1.624)" fill="#202360"/>
          <path id="パス_10173" data-name="パス 10173" d="M435.82,307.159a2.123,2.123,0,1,1,2.123-2.123h0A2.128,2.128,0,0,1,435.82,307.159Zm0-3.264a1.138,1.138,0,1,0,1.139,1.137v0A1.136,1.136,0,0,0,435.82,303.895Z" transform="translate(-429.064 -302.912)" fill="#202360"/>
        </g>
        <g id="グループ_8396" data-name="グループ 8396" transform="translate(0 21.725)">
          <rect id="長方形_3317" data-name="長方形 3317" width="5.123" height="0.992" transform="translate(3.769 1.635)" fill="#202360"/>
          <path id="パス_10174" data-name="パス 10174" d="M343.382,328.656a2.13,2.13,0,1,1,2.123-2.136v.012A2.131,2.131,0,0,1,343.382,328.656Zm0-3.267a1.139,1.139,0,1,0,1.136,1.142v0A1.139,1.139,0,0,0,343.382,325.389Z" transform="translate(-341.246 -324.397)" fill="#202360"/>
        </g>
        <path id="パス_10175" data-name="パス 10175" d="M360.464,327.745H350.041v-1.982h10.423a19.187,19.187,0,0,0,13.66-5.657l9.839-9.842a21.177,21.177,0,0,1,15.067-6.239H430v1.985H399.027a19.193,19.193,0,0,0-13.66,5.656l-9.839,9.839A21.15,21.15,0,0,1,360.464,327.745Z" transform="translate(-341.148 -302.9)" fill="#202360"/>
      </g>
      <g id="グループ_8400" data-name="グループ 8400" transform="translate(165.495 76.003)">
        <g id="グループ_8398" data-name="グループ 8398" transform="translate(14.622)">
          <rect id="長方形_3318" data-name="長方形 3318" width="5.123" height="0.992" transform="translate(0 1.634)" fill="#202360"/>
          <path id="パス_10176" data-name="パス 10176" d="M391.656,271.581a2.13,2.13,0,1,1,2.124-2.136v.012A2.128,2.128,0,0,1,391.656,271.581Zm0-3.267a1.138,1.138,0,1,0,1.139,1.139A1.139,1.139,0,0,0,391.656,268.314Z" transform="translate(-384.899 -267.322)" fill="#202360"/>
        </g>
        <g id="グループ_8399" data-name="グループ 8399" transform="translate(0 14.319)">
          <rect id="長方形_3319" data-name="長方形 3319" width="0.992" height="5.123" transform="translate(1.638)" fill="#202360"/>
          <path id="パス_10177" data-name="パス 10177" d="M372.626,290.316a2.13,2.13,0,1,1,2.124-2.136v.012A2.128,2.128,0,0,1,372.626,290.316Zm0-3.267a1.138,1.138,0,1,0,1.136,1.14h0A1.139,1.139,0,0,0,372.626,287.049Z" transform="translate(-370.49 -281.431)" fill="#202360"/>
        </g>
        <path id="パス_10178" data-name="パス 10178" d="M373.6,281.628H371.62v-4.38a8.811,8.811,0,0,1,8.8-8.8H385.1v1.982h-4.677a6.824,6.824,0,0,0-6.817,6.817Z" transform="translate(-370.477 -267.309)" fill="#202360"/>
      </g>
      <g id="グループ_8403" data-name="グループ 8403" transform="translate(124.737 23.207)">
        <g id="グループ_8401" data-name="グループ 8401">
          <path id="パス_10179" data-name="パス 10179" d="M344.13,258.526h-6.307a6.026,6.026,0,0,1-6.019-6.021V218.833h.992v33.672a5.032,5.032,0,0,0,5.026,5.029h6.308Z" transform="translate(-330.164 -215.068)" fill="#202360"/>
          <path id="パス_10180" data-name="パス 10180" d="M332.318,219.369a2.13,2.13,0,1,1,2.123-2.136v.005A2.134,2.134,0,0,1,332.318,219.369Zm0-3.267a1.138,1.138,0,1,0,1.138,1.138v0A1.14,1.14,0,0,0,332.318,216.1Z" transform="translate(-330.182 -215.11)" fill="#202360"/>
        </g>
        <g id="グループ_8402" data-name="グループ 8402" transform="translate(24.06 59.273)">
          <rect id="長方形_3320" data-name="長方形 3320" width="0.992" height="5.123" transform="translate(1.639)" fill="#202360"/>
          <path id="パス_10181" data-name="パス 10181" d="M356.112,279.295a1.138,1.138,0,1,0,1.136,1.14h0A1.139,1.139,0,0,0,356.112,279.295Zm0,3.267a2.13,2.13,0,1,1,2.123-2.136v.012A2.132,2.132,0,0,1,356.112,282.562Z" transform="translate(-353.976 -273.676)" fill="#202360"/>
        </g>
        <path id="パス_10182" data-name="パス 10182" d="M357.213,273.919H355.23v-12.2a3.122,3.122,0,0,0-3.117-3.117h-8.119v-1.983h8.119a5.105,5.105,0,0,1,5.1,5.1Z" transform="translate(-330.028 -214.646)" fill="#202360"/>
      </g>
      <g id="グループ_8406" data-name="グループ 8406" transform="translate(133.923 84.38)">
        <g id="グループ_8404" data-name="グループ 8404">
          <rect id="長方形_3321" data-name="長方形 3321" width="0.992" height="5.124" transform="translate(1.64 3.758)" fill="#202360"/>
          <path id="パス_10183" data-name="パス 10183" d="M341.4,279.866a2.13,2.13,0,1,1,2.123-2.136v.012A2.134,2.134,0,0,1,341.4,279.866Zm0-3.267a1.138,1.138,0,1,0,1.136,1.14h0a1.138,1.138,0,0,0-1.135-1.143h0Z" transform="translate(-339.267 -275.607)" fill="#202360"/>
        </g>
        <g id="グループ_8405" data-name="グループ 8405" transform="translate(18.151 33.811)">
          <rect id="長方形_3322" data-name="長方形 3322" width="5.123" height="0.992" transform="translate(0 1.634)" fill="#202360"/>
          <path id="パス_10184" data-name="パス 10184" d="M363.923,313.3a2.13,2.13,0,1,1,2.123-2.136v.012A2.132,2.132,0,0,1,363.923,313.3Zm0-3.267a1.138,1.138,0,1,0,1.139,1.139A1.137,1.137,0,0,0,363.923,310.036Z" transform="translate(-357.166 -309.044)" fill="#202360"/>
        </g>
        <path id="パス_10185" data-name="パス 10185" d="M357.975,312.44H348.52a8.131,8.131,0,0,1-8.122-8.122V284.39h1.983v19.928a6.144,6.144,0,0,0,6.137,6.14h9.456Z" transform="translate(-339.254 -275.509)" fill="#202360"/>
      </g>
      <g id="グループ_8409" data-name="グループ 8409" transform="translate(53.256 63.007)">
        <g id="グループ_8407" data-name="グループ 8407" transform="translate(68.016 14.046)">
          <rect id="長方形_3323" data-name="長方形 3323" width="5.123" height="0.992" transform="translate(0 1.633)" fill="#202360"/>
          <path id="パス_10186" data-name="パス 10186" d="M333.462,272.62a2.13,2.13,0,1,1,2.123-2.136v.005A2.131,2.131,0,0,1,333.462,272.62Zm0-3.267a1.138,1.138,0,1,0,1.139,1.137h0A1.138,1.138,0,0,0,333.462,269.353Z" transform="translate(-326.705 -268.361)" fill="#202360"/>
        </g>
        <g id="グループ_8408" data-name="グループ 8408">
          <rect id="長方形_3324" data-name="長方形 3324" width="5.123" height="0.992" transform="translate(3.763 1.633)" fill="#202360"/>
          <path id="パス_10187" data-name="パス 10187" d="M261.621,258.729a2.13,2.13,0,1,1,2.131-2.131A2.13,2.13,0,0,1,261.621,258.729Zm0-3.267a1.138,1.138,0,1,0,1.139,1.137h0A1.138,1.138,0,0,0,261.621,255.462Z" transform="translate(-259.492 -254.47)" fill="#202360"/>
        </g>
        <path id="パス_10188" data-name="パス 10188" d="M327.41,271.625H311.285a5.786,5.786,0,0,1-5.78-5.78v-4.471a3.8,3.8,0,0,0-3.8-3.8h-33.43v-1.985h33.429a5.789,5.789,0,0,1,5.781,5.781v4.471a3.8,3.8,0,0,0,3.8,3.8h16.124Z" transform="translate(-259.394 -254.457)" fill="#202360"/>
      </g>
      <g id="グループ_8412" data-name="グループ 8412" transform="translate(21.568 92.691)">
        <g id="グループ_8410" data-name="グループ 8410" transform="translate(43.743)">
          <rect id="長方形_3325" data-name="長方形 3325" width="5.123" height="0.992" transform="translate(0 1.623)" fill="#202360"/>
          <path id="パス_10189" data-name="パス 10189" d="M278.117,288.073a2.123,2.123,0,1,1,2.131-2.13,2.124,2.124,0,0,1-2.131,2.13Zm0-3.267a1.139,1.139,0,1,0,1.139,1.139h0a1.139,1.139,0,0,0-1.139-1.137Z" transform="translate(-271.362 -283.826)" fill="#202360"/>
        </g>
        <g id="グループ_8411" data-name="グループ 8411" transform="translate(0 9.193)">
          <rect id="長方形_3326" data-name="長方形 3326" width="5.124" height="0.992" transform="translate(3.769 1.634)" fill="#202360"/>
          <path id="パス_10190" data-name="パス 10190" d="M230.29,297.176a2.13,2.13,0,1,1,2.123-2.136v.012A2.132,2.132,0,0,1,230.29,297.176Zm0-3.267a1.138,1.138,0,1,0,1.136,1.14h0A1.138,1.138,0,0,0,230.29,293.909Z" transform="translate(-228.154 -292.917)" fill="#202360"/>
        </g>
        <path id="パス_10191" data-name="パス 10191" d="M245.225,296.127h-8.275v-1.982h8.275a3.618,3.618,0,0,0,3.611-3.611,5.6,5.6,0,0,1,5.594-5.594H271.8v1.985H254.43a3.613,3.613,0,0,0-3.611,3.609A5.6,5.6,0,0,1,245.225,296.127Z" transform="translate(-228.056 -283.814)" fill="#202360"/>
      </g>
      <g id="グループ_8415" data-name="グループ 8415" transform="translate(57.154 97.045)">
        <g id="グループ_8413" data-name="グループ 8413" transform="translate(22.063)">
          <rect id="長方形_3327" data-name="長方形 3327" width="0.992" height="5.124" transform="translate(1.638 3.763)" fill="#202360"/>
          <path id="パス_10192" data-name="パス 10192" d="M287.3,292.391a2.13,2.13,0,1,1,2.123-2.136v.005A2.131,2.131,0,0,1,287.3,292.391Zm0-3.267a1.138,1.138,0,1,0,1.136,1.14v0A1.138,1.138,0,0,0,287.3,289.124Z" transform="translate(-285.166 -288.132)" fill="#202360"/>
        </g>
        <g id="グループ_8414" data-name="グループ 8414" transform="translate(0 22.435)">
          <rect id="長方形_3328" data-name="長方形 3328" width="5.124" height="0.992" transform="translate(3.769 1.632)" fill="#202360"/>
          <path id="パス_10193" data-name="パス 10193" d="M265.483,314.578a2.13,2.13,0,1,1,2.123-2.136v.005A2.134,2.134,0,0,1,265.483,314.578Zm0-3.269a1.139,1.139,0,1,0,1.136,1.142v0a1.138,1.138,0,0,0-1.136-1.136Z" transform="translate(-263.347 -310.319)" fill="#202360"/>
        </g>
        <path id="パス_10194" data-name="パス 10194" d="M278.835,313.589h-6.7V311.6h6.693a7.625,7.625,0,0,0,7.62-7.617v-7.071h1.982v7.068A9.613,9.613,0,0,1,278.835,313.589Z" transform="translate(-263.249 -288.034)" fill="#202360"/>
      </g>
      <g id="グループ_8418" data-name="グループ 8418" transform="translate(188.434 123.153)">
        <g id="グループ_8416" data-name="グループ 8416" transform="translate(25.176 12.836)">
          <rect id="長方形_3329" data-name="長方形 3329" width="5.124" height="0.992" transform="translate(0 1.632)" fill="#202360"/>
          <path id="パス_10195" data-name="パス 10195" d="M424.777,330.9a2.13,2.13,0,1,1,2.131-2.131A2.13,2.13,0,0,1,424.777,330.9Zm0-3.267a1.138,1.138,0,1,0,1.139,1.137h0a1.136,1.136,0,0,0-1.136-1.136Z" transform="translate(-418.021 -326.645)" fill="#202360"/>
        </g>
        <g id="グループ_8417" data-name="グループ 8417" transform="translate(13.219)">
          <rect id="長方形_3330" data-name="長方形 3330" width="5.124" height="0.992" transform="translate(0 1.634)" fill="#202360"/>
          <path id="パス_10196" data-name="パス 10196" d="M412.954,318.21a2.13,2.13,0,1,1,2.131-2.129v.005A2.133,2.133,0,0,1,412.954,318.21Zm0-3.267a1.138,1.138,0,1,0,1.139,1.139A1.137,1.137,0,0,0,412.954,314.943Z" transform="translate(-406.197 -313.951)" fill="#202360"/>
        </g>
        <path id="パス_10197" data-name="パス 10197" d="M418.349,329.895H400.587a7.409,7.409,0,1,1-.006-14.818h5.812v1.982h-5.806a5.426,5.426,0,0,0,0,10.851h17.762Z" transform="translate(-393.175 -313.938)" fill="#202360"/>
      </g>
      <path id="パス_10198" data-name="パス 10198" d="M408.434,284.987H390.358V281.02h18.076a13.482,13.482,0,0,0,13.481-13.481V256.068a13.389,13.389,0,0,0-3.951-9.533l-4.24-4.24a13.393,13.393,0,0,0-9.53-3.944H379.413a11.529,11.529,0,0,0-8.2,3.4l-4.5,4.5-2.8-2.806,4.5-4.5a15.455,15.455,0,0,1,11.01-4.559h24.774a17.325,17.325,0,0,1,12.336,5.112l4.24,4.24a17.328,17.328,0,0,1,5.112,12.336v11.471A17.449,17.449,0,0,1,408.434,284.987Z" transform="translate(-205.068 -191.688)" fill="#797ba0"/>
      <path id="パス_10199" data-name="パス 10199" d="M242.865,259.669H238.9v-2.751a23.329,23.329,0,0,1,23.325-23.331h16.224v3.971H262.226a19.362,19.362,0,0,0-19.361,19.361v2.75Z" transform="translate(-206.466 -191.697)" fill="#202360"/>
      <path id="パス_10200" data-name="パス 10200" d="M290.578,237.655h-3.967V221.123A28.962,28.962,0,0,1,315.57,192.16H349.3a29,29,0,0,1,28.965,28.963v5.062H374.3v-5.062a25.028,25.028,0,0,0-25-25H315.576a25,25,0,0,0-25,25Z" transform="translate(-205.933 -192.16)" fill="#202360"/>
      <g id="グループ_8419" data-name="グループ 8419" transform="translate(94.07 89.016)">
        <path id="パス_10201" data-name="パス 10201" d="M425.525,351.066h-70.4a31.911,31.911,0,0,1-22.716-9.4l-8.292-8.292a31.923,31.923,0,0,1-9.409-22.719V299.006h3.967v11.645a27.977,27.977,0,0,0,8.252,19.909l8.292,8.292A27.971,27.971,0,0,0,355.13,347.1h70.4a28.162,28.162,0,0,0,28.158-28.158v-6.865a27.959,27.959,0,0,0-8.252-19.9L436.265,283l2.8-2.806,9.174,9.174a31.909,31.909,0,0,1,9.4,22.716v6.859a32.124,32.124,0,0,1-32.123,32.125h0Z" transform="translate(-299.689 -280.192)" fill="#202360"/>
        <path id="パス_10202" data-name="パス 10202" d="M331.056,301.867l-14.2-14.2-14.2,14.2-2.805-2.805,17-17,17.005,17Z" transform="translate(-299.855 -280.171)" fill="#202360"/>
      </g>
      <g id="グループ_8421" data-name="グループ 8421" transform="translate(0 78.366)">
        <g id="グループ_8420" data-name="グループ 8420" transform="translate(44.908)">
          <rect id="長方形_3331" data-name="長方形 3331" width="32.717" height="0.992" transform="translate(0 1.633)" fill="#202360"/>
          <path id="パス_10203" data-name="パス 10203" d="M285.231,273.918a2.13,2.13,0,1,1,2.123-2.136v.005A2.131,2.131,0,0,1,285.231,273.918Zm0-3.267a1.138,1.138,0,1,0,1.139,1.137h0A1.138,1.138,0,0,0,285.231,270.651Z" transform="translate(-250.88 -269.659)" fill="#202360"/>
        </g>
        <path id="パス_10204" data-name="パス 10204" d="M327.328,386.242h-3.967V371.018a21.889,21.889,0,0,0-21.867-21.864H237.43a26.645,26.645,0,0,1-18.953-7.852l-3.8-3.808a26.626,26.626,0,0,1-7.852-18.953V296.6a26.807,26.807,0,0,1,26.8-26.8h18.1v3.967h-18.1A22.834,22.834,0,0,0,210.792,296.6V318.55a22.69,22.69,0,0,0,6.688,16.15l3.8,3.8a22.7,22.7,0,0,0,16.15,6.691h64.062a25.862,25.862,0,0,1,25.834,25.832Z" transform="translate(-206.825 -269.657)" fill="#797ba0"/>
        <path id="パス_10205" data-name="パス 10205" d="M324.22,401.155l-17-17,2.805-2.805,14.2,14.2,14.2-14.2,2.808,2.805Z" transform="translate(-205.702 -268.41)" fill="#797ba0"/>
      </g>
    </g>
    <path id="パス_12874" data-name="パス 12874" d="M125.107,287.771V270.489l-14.967-8.641-14.967,8.641v17.282l14.967,8.641Z" transform="translate(0 1.352)" fill="#797ba0"/>
    <circle id="楕円形_1403" data-name="楕円形 1403" cx="14.847" cy="14.847" r="14.847" transform="translate(204.124 177.887)" fill="#797ba0"/>
    <circle id="楕円形_1404" data-name="楕円形 1404" cx="10.106" cy="10.106" r="10.106" transform="translate(165.591 370.654)" fill="#797ba0"/>
    <circle id="楕円形_1405" data-name="楕円形 1405" cx="9.642" cy="9.642" r="9.642" transform="translate(390.273 399.98)" fill="#797ba0"/>
    <circle id="楕円形_1406" data-name="楕円形 1406" cx="10.499" cy="10.499" r="10.499" transform="translate(521.428 369.19)" fill="#202360"/>
    <rect id="長方形_3799" data-name="長方形 3799" width="32.051" height="32.051" transform="translate(556.824 318.283)" fill="#797ba0"/>
  </g>
</svg>
